<?xml version="1.0" encoding="UTF-8"?><svg id="a" xmlns="http://www.w3.org/2000/svg" xmlns:xlink="http://www.w3.org/1999/xlink" viewBox="0 0 844 795.93"><defs><clipPath id="b"><circle cx="418.47" cy="695.94" r="29.16" style="fill:#f7ab4f; stroke:#ffcd59; stroke-miterlimit:10;"/></clipPath><clipPath id="c"><circle cx="253.13" cy="484.4" r="15.16" style="fill:#e87b4f; stroke:#fbb03b; stroke-miterlimit:10;"/></clipPath><clipPath id="d"><circle cx="474.56" cy="503.16" r="12.17" style="fill:#b0b0b0;"/></clipPath><clipPath id="e"><circle cx="426.12" cy="61.49" r="17.53" style="fill:#fbc878;"/></clipPath><clipPath id="f"><circle cx="682.87" cy="388.85" r="11.54" style="fill:#e86e3c; stroke:#fba67b; stroke-miterlimit:10;"/></clipPath><clipPath id="g"><circle cx="422" cy="397.97" r="65.77" style="fill:#4fb2e8; stroke:#a8e1ff; stroke-miterlimit:10; stroke-width:2px;"/></clipPath><clipPath id="h"><circle cx="75.95" cy="529.68" r="12.36" style="fill:#4fe8d9;"/></clipPath><clipPath id="i"><circle cx="250.29" cy="252.32" r="25.49" style="fill:#ffda59;"/></clipPath></defs><circle cx="422" cy="397.97" r="298.03" style="fill:none; stroke:#f7ab4f; stroke-miterlimit:10;"/><circle cx="422" cy="397.97" r="118.11" style="fill:none; stroke:#999; stroke-miterlimit:10;"/><circle cx="422" cy="397.97" r="154.09" style="fill:none; stroke:#fbb03b; stroke-miterlimit:10;"/><circle cx="422" cy="397.97" r="190.08" style="fill:none; stroke:#f79439; stroke-miterlimit:10;"/><circle cx="422" cy="397.97" r="226.06" style="fill:none; stroke:#ffda59; stroke-miterlimit:10;"/><circle cx="422" cy="397.97" r="262.05" style="fill:none; stroke:#f15a24; stroke-miterlimit:10;"/><circle cx="422" cy="397.97" r="334.02" style="fill:none; stroke:#fbcc83; stroke-miterlimit:10;"/><circle cx="422" cy="397.97" r="370" style="fill:none; stroke:#4fe8d9; stroke-miterlimit:10;"/><g><g><circle cx="418.47" cy="695.94" r="29.16" style="fill:#f7ab4f;"/><g style="clip-path:url(#b);"><path d="m463.06,688.25s-17.67,3.76-23.84,2.85c-6.17-.91-14.11-3.43-20.23-2.77-6.12.66-16.38,7.83-26.42-.25-7.84-6.31-14.44-1.13-14.44-1.13,0,0-5.31,12.47-5.1,15.89.21,3.42,18.52-.56,23.63-1.47,5.11-.91,6.22,1.83,16.22,1.38,10-.46,14.86-3.12,24.44-2.09,9.58,1.03,23.36,4.81,28.38,2.41,5.02-2.39-2.64-14.82-2.64-14.82Z" style="fill:#d9bb97;"/><path d="m388.24,691.28s12.78,2.26,17.24,1.71,8.39-2.84,12.82-2.45c4.42.39,12.43,3.34,21.51,2.24,9.08-1.1,9.85-2.29,9.85-2.29,0,0,3.84,7.49,3.69,9.55-.15,2.05-13.08-1.16-16.78-1.71-3.69-.55-3.39,3.08-10.62,2.81-7.24-.27-8.62-4.25-15.55-3.63-6.93.62-20.44,4.11-24.08,2.67-3.63-1.44,1.91-8.9,1.91-8.9Z" style="fill:#ded0be;"/><path d="m450.3,674.34s-13.77.96-18.58.73c-4.81-.23-7.23-2.5-12-2.33-4.77.17-15.2,2.71-24.99,2.25-9.79-.47-10.62-.97-10.62-.97,0,0-4.14,3.19-3.98,4.06.16.87,14.1-.5,18.08-.73,3.98-.23,3.65,1.31,11.45,1.19,7.8-.12,7.06-2.34,14.52-2.08,7.47.26,24.26,2.28,28.18,1.67s-2.06-3.79-2.06-3.79Z" style="fill:#ded0be;"/><path d="m451.12,713.51s-13.77.96-18.58.73c-4.81-.23-9.04-1.21-13.81-1.04-4.77.17-13.39,1.42-23.18.95-9.79-.47-10.62-.97-10.62-.97,0,0-4.14,3.19-3.98,4.06.16.87,14.1-.5,18.08-.73,3.98-.23,3.65,1.31,11.45,1.19,7.8-.12,9.29-1.81,16.75-1.54,7.47.26,22.03,1.75,25.95,1.14,3.91-.61-2.06-3.79-2.06-3.79Z" style="fill:#d9bb97;"/><path d="m410.58,735.2c15.09-20.51,23.64-46.65,9.42-78.2l32.62,20.62,1.19,38.34-43.23,19.24Z" style="fill:#e68a35; opacity:.75;"/></g><circle cx="418.47" cy="695.94" r="29.16" style="fill:none; stroke:#ffcd59; stroke-miterlimit:10;"/></g><rect x="370.04" y="730.77" width="96.86" height="28.39" rx="4.25" ry="4.25" style="fill:#fff;"/><text transform="translate(382.93 753.85)" style="fill:#1a1a1a; font-family:SegoeUI, &apos;Segoe UI&apos;; font-size:24px;"><tspan x="0" y="0">Jupiter</tspan></text></g><g><g><circle cx="253.13" cy="484.4" r="15.16" style="fill:#e87b4f;"/><g style="clip-path:url(#c);"><path d="m244.82,464.85c.41,12.79,4.64,25.23,17.86,36.86l-20.07.15-11.29-16.44,13.5-20.57Z" style="fill:#c96b44;"/></g><circle cx="253.13" cy="484.4" r="15.16" style="fill:none; stroke:#fbb03b; stroke-miterlimit:10;"/></g><rect x="204.15" y="506.8" width="97.96" height="28.39" rx="4.25" ry="4.25" style="fill:#fff;"/><text transform="translate(215.22 529.88)" style="fill:#1a1a1a; font-family:SegoeUI, &apos;Segoe UI&apos;; font-size:24px;"><tspan x="0" y="0" style="letter-spacing:-.06em;">V</tspan><tspan x="13.38" y="0">enuše</tspan></text></g><g><g><circle cx="474.56" cy="503.16" r="12.17" style="fill:#b0b0b0;"/><g style="clip-path:url(#d);"><path d="m489.23,494.19c-6.45,12.53-17.84,16.64-32.22,15.68l30.34,13.25,1.88-28.92Z" style="fill:#999;"/></g></g><rect x="426.13" y="519.19" width="96.86" height="28.39" rx="4.25" ry="4.25" style="fill:#fff;"/><text transform="translate(443.97 542.27)" style="fill:#1a1a1a; font-family:SegoeUI, &apos;Segoe UI&apos;; font-size:24px;"><tspan x="0" y="0">Měsíc</tspan></text></g><g><g><path d="m429.18,54.74c-21.25-16.56-40.45-27.45-42.9-24.31l5.03,3.92c2.12-2.73,18.82,6.74,37.29,21.13,18.47,14.4,31.72,28.28,29.59,31l5.03,3.92c2.44-3.14-12.8-19.11-34.05-35.67Z" style="fill:#e0b469;"/><path d="m427.5,56.9c-13.2-10.29-25.13-17.05-26.65-15.1l3.13,2.44c1.32-1.69,11.69,4.18,23.16,13.13,11.47,8.94,19.7,17.57,18.38,19.26l3.13,2.44c1.52-1.95-7.95-11.87-21.15-22.16Z" style="fill:#b38e54;"/><path d="m427.5,56.9c13.2,10.29,22.67,20.21,21.15,22.16l9.54,7.44c2.12-2.73-11.12-16.61-29.59-31-18.47-14.4-35.16-23.86-37.29-21.13l9.54,7.44c1.52-1.95,13.45,4.81,26.65,15.1Z" style="fill:#f7e0b7;"/><g><circle cx="426.12" cy="61.49" r="17.53" style="fill:#fbc878;"/><g style="clip-path:url(#e);"><path d="m445.46,66.98c-10.5-6.22-20.18-13.83-29.14-22.71l3.68-4.72c8.67,8.81,18.39,16.37,29.14,22.71l-3.68,4.72Z" style="fill:#e0b469;"/><path d="m446.87,64.92c-10.19-6.74-19.89-14.34-29.14-22.71l.49-.62c9.27,8.59,18.31,15.67,29.14,22.71l-.49.62Z" style="fill:#e0cba6;"/><path d="m433.81,81.5c-11.23-5.28-20.89-12.93-29.14-22.71l6.49-8.33c7.91,9.79,17.64,17.34,29.14,22.71l-6.49,8.33Z" style="fill:#e0b469;"/><path d="m434.95,79.79c-10.15-6.79-19.86-14.38-29.14-22.71l.9-1.15c9.39,8.61,18.44,15.68,29.14,22.71l-.9,1.15Z" style="fill:#e0cba6;"/><path d="m401.61,59.84c13.4,6.27,28.44,8.41,47.35.87l-10.34,20.77-22.86,3.05-14.14-24.68Z" style="fill:#b38f54; opacity:.75;"/></g></g><path d="m422.36,63.49c11.47,8.94,21.84,14.82,23.16,13.13l-41.55-32.39c-1.32,1.69,6.91,10.32,18.38,19.26Z" style="fill:none;"/><path d="m427.14,57.36c-11.47-8.94-21.84-14.82-23.16-13.13l41.55,32.39c1.32-1.69-6.91-10.32-18.38-19.26Z" style="fill:none;"/><path d="m420.9,65.36c-18.47-14.4-31.72-28.28-29.59-31l-5.03-3.92c-2.44,3.14,12.8,19.11,34.05,35.67,21.25,16.56,40.45,27.45,42.9,24.31l-5.03-3.92c-2.12,2.73-18.82-6.74-37.29-21.13Z" style="fill:#e0b469;"/><path d="m422.36,63.49c-11.47-8.94-19.7-17.57-18.38-19.26l-3.13-2.44c-1.52,1.95,7.95,11.87,21.15,22.16,13.2,10.29,25.13,17.05,26.65,15.1l-3.13-2.44c-1.32,1.69-11.69-4.18-23.16-13.13Z" style="fill:#b38e54;"/><path d="m420.9,65.36c18.47,14.4,35.16,23.86,37.29,21.13l-9.54-7.44c-1.52,1.95-13.45-4.81-26.65-15.1-13.2-10.29-22.67-20.21-21.15-22.16l-9.54-7.44c-2.12,2.73,11.12,16.61,29.59,31Z" style="fill:#f7e0b7;"/></g><rect x="378.63" y="90.41" width="94.97" height="28.39" rx="4.25" ry="4.25" style="fill:#fff;"/><text transform="translate(391.82 113.49)" style="fill:#1a1a1a; font-family:SegoeUI, &apos;Segoe UI&apos;; font-size:24px;"><tspan x="0" y="0">Saturn</tspan></text></g><g><g><circle cx="682.87" cy="388.85" r="11.54" style="fill:#e86e3c;"/><g style="clip-path:url(#f);"><path d="m680.97,404.9c4.56-8.6,6.47-18.42,2.14-31.1l13.31,7.49,1.25,15.13-16.7,8.48Z" style="fill:#c96b44;"/></g><circle cx="682.87" cy="388.85" r="11.54" style="fill:none; stroke:#fba67b; stroke-miterlimit:10;"/></g><rect x="643.69" y="404.86" width="78.35" height="28.39" rx="4.25" ry="4.25" style="fill:#fff;"/><text transform="translate(656.73 427.94)" style="fill:#1a1a1a; font-family:SegoeUI, &apos;Segoe UI&apos;; font-size:24px;"><tspan x="0" y="0">Mars</tspan></text></g><g><circle cx="422" cy="397.97" r="65.77" style="fill:#4fb2e8;"/><g style="clip-path:url(#g);"><path d="m364.47,399.32s8.71,2.96,10.88-1.35c2.17-4.31,16.75-3.48,17.6-8.79.86-5.3,4.03-23.85,1.43-27.59s-20.17-2.16-29.54,9.04c-3.44,4.11-11.64,26.29-.37,28.7Z" style="fill:#4bd6ba;"/><path d="m416.98,394.07s.73-12.47,6.85-13.7c6.11-1.22,23.72-3.67,25.68-8.31s4.64-17.85,9.29-18.34,17.12-1.96,17.12-1.96c0,0,16.87,32.77,17.36,41.33s-14.92,8.7-19.81,6.06-14.97-9.97-17.03-7.77.15,8.94-4.25,10.71c-4.4,1.77-6.16-11.58-9.83-9.87s-22.45,15.06-25.39,1.85Z" style="fill:#45c7ad;"/><path d="m424.31,413.34c6.89-8.47,10.86-1.71,17.95-5.13,7.09-3.42,16.29-3.87,20.69,1.02,4.4,4.89,4.05,25.68-1.28,29.84-5.33,4.16-5.82,17.12-13.15,11.74-7.34-5.38-6.07-19.82-10.54-19.52-5.98.39-20.56-9.47-13.67-17.94Z" style="fill:#45c7ad;"/><path d="m345.66,449.61c54.1-12.37,103.56-40.72,142.11-106.65l17.3,85.32-60.62,61.74-98.79-40.41Z" style="fill:#469ecf; opacity:.4;"/></g><circle cx="422" cy="397.97" r="65.77" style="fill:none; stroke:#a8e1ff; stroke-miterlimit:10; stroke-width:2px;"/></g><g><rect x="374.21" y="382.82" width="90.88" height="28.39" rx="4.25" ry="4.25" style="fill:#fff;"/><text transform="translate(389.23 405.9)" style="fill:#1a1a1a; font-family:SegoeUI-Semibold, &apos;Segoe UI&apos;; font-size:24px; font-weight:600;"><tspan x="0" y="0">Země</tspan></text></g><g><g><path d="m77.99,532.37c11.35-3.23,20.16-7.21,19.68-8.89l-2.69.77c.41,1.46-7.24,4.91-17.1,7.72-9.86,2.81-18.19,3.91-18.61,2.45l-2.69.77c.48,1.67,10.06.41,21.41-2.82Z" style="fill:#41bfb3;"/><path d="m77.99,532.37c-11.35,3.23-20.93,4.5-21.41,2.82l-8.2,2.34c.67,2.34,14.08.57,29.95-3.95,15.87-4.52,28.2-10.09,27.53-12.43l-8.2,2.34c.48,1.67-8.33,5.65-19.68,8.89Z" style="fill:#4fe8d9;"/><g><circle cx="75.95" cy="529.68" r="12.36" style="fill:#4fe8d9;"/><g style="clip-path:url(#h);"><path d="m64.78,538.4c7.9-3.39,16.27-5.73,25.05-7.14l1.16,4.05c-8.62,1.27-16.97,3.66-25.05,7.14l-1.16-4.05Z" style="fill:#41bfb3;"/><path d="m65.37,540.06c8.07-3,16.43-5.36,25.05-7.14l.15.54c-8.75,1.7-16.54,3.9-25.05,7.14l-.15-.54Z" style="fill:#4fe8d9;"/><path d="m61.36,525.73c7.67-4.2,16.05-6.51,25.05-7.14l2.04,7.16c-8.86.43-17.21,2.82-25.05,7.14l-2.04-7.16Z" style="fill:#41bfb3;"/><path d="m61.86,527.09c8.09-2.96,16.44-5.33,25.05-7.14l.28.99c-8.81,1.76-16.59,3.98-25.05,7.14l-.28-.99Z" style="fill:#4fe8d9;"/><path d="m70.28,511.29c-1.69,10.29-.26,20.9,8.47,32.29l-16.07-3.04-6.44-14.93,14.04-14.32Z" style="fill:#3bada3;"/></g></g><path d="m76.37,526.71c-9.86,2.81-17.52,6.27-17.1,7.72l35.71-10.18c-.41-1.46-8.75-.36-18.61,2.45Z" style="fill:none;"/><path d="m77.87,531.98c9.86-2.81,17.52-6.27,17.1-7.72l-35.71,10.18c.41,1.46,8.75.36,18.61-2.45Z" style="fill:none;"/><path d="m76.37,526.71c9.86-2.81,18.19-3.91,18.61-2.45l2.69-.77c-.48-1.67-10.06-.41-21.41,2.82-11.35,3.23-20.16,7.21-19.68,8.89l2.69-.77c-.41-1.46,7.24-4.91,17.1-7.72Z" style="fill:#41bfb3;"/><path d="m75.91,525.1c-15.87,4.52-28.2,10.09-27.53,12.43l8.2-2.34c-.48-1.67,8.33-5.65,19.68-8.89,11.35-3.23,20.93-4.5,21.41-2.82l8.2-2.34c-.67-2.34-14.08-.57-29.95,3.95Z" style="fill:#4fe8d9;"/></g><rect x="35.76" y="548.46" width="82.73" height="28.39" rx="4.25" ry="4.25" style="fill:#fff;"/><text transform="translate(51.81 571.54)" style="fill:#1a1a1a; font-family:SegoeUI, &apos;Segoe UI&apos;; font-size:24px;"><tspan x="0" y="0">Uran</tspan></text></g><g><g><rect x="200.13" y="290.19" width="97.96" height="28.39" rx="4.25" ry="4.25" style="fill:#fff;"/><text transform="translate(215.61 313.26)" style="fill:#1a1a1a; font-family:SegoeUI, &apos;Segoe UI&apos;; font-size:24px;"><tspan x="0" y="0">Slunce</tspan></text></g><g><path d="m253.51,220.65l1.19-1.88.67,2.13c.84,2.67,4.17,3.57,6.23,1.67l1.64-1.51.09,2.23c.12,2.8,3.1,4.52,5.58,3.22l1.97-1.03-.49,2.18c-.61,2.73,1.83,5.17,4.56,4.56l2.18-.49-1.03,1.97c-1.3,2.48.43,5.47,3.22,5.58l2.23.09-1.51,1.64c-1.9,2.06-1,5.39,1.67,6.23l2.13.67-1.88,1.19c-2.37,1.5-2.37,4.95,0,6.45l1.88,1.19-2.13.67c-2.67.84-3.57,4.17-1.67,6.23l1.51,1.64-2.23.09c-2.8.12-4.52,3.1-3.22,5.58l1.03,1.97-2.18-.49c-2.73-.61-5.17,1.83-4.56,4.56l.49,2.18-1.97-1.03c-2.48-1.3-5.47.43-5.58,3.22l-.09,2.23-1.64-1.51c-2.06-1.9-5.39-1-6.23,1.67l-.67,2.13-1.19-1.88c-1.5-2.37-4.95-2.37-6.45,0l-1.19,1.88-.67-2.13c-.84-2.67-4.17-3.57-6.23-1.67l-1.64,1.51-.09-2.23c-.12-2.8-3.1-4.52-5.58-3.22l-1.97,1.03.49-2.18c.61-2.73-1.83-5.17-4.56-4.56l-2.18.49,1.03-1.97c1.3-2.48-.43-5.47-3.22-5.58l-2.23-.09,1.51-1.64c1.9-2.06,1-5.39-1.67-6.23l-2.13-.67,1.88-1.19c2.37-1.5,2.37-4.95,0-6.45l-1.88-1.19,2.13-.67c2.67-.84,3.57-4.17,1.67-6.23l-1.51-1.64,2.23-.09c2.8-.12,4.52-3.1,3.22-5.58l-1.03-1.97,2.18.49c2.73.61,5.17-1.83,4.56-4.56l-.49-2.18,1.97,1.03c2.48,1.3,5.47-.43,5.58-3.22l.09-2.23,1.64,1.51c2.06,1.9,5.39,1,6.23-1.67l.67-2.13,1.19,1.88c1.5,2.37,4.95,2.37,6.45,0Z" style="fill:#ffda59;"/><circle cx="250.29" cy="252.32" r="28.31" style="fill:#fff5d1;"/><circle cx="250.29" cy="252.32" r="26.6" style="fill:#ffedb0;"/><circle cx="251.75" cy="253.78" r="25.39" style="fill:#e87b4f;"/><g><circle cx="250.29" cy="252.32" r="25.49" style="fill:#ffda59;"/><g style="clip-path:url(#i);"><path d="m265.6,229.65c6.32,32.77-9.34,41.65-39.6,39.6v12.58h50.53v-51.02l-10.93-1.17Z" style="fill:#ffb83d;"/><ellipse cx="228.07" cy="248.56" rx="3.82" ry="1.84" transform="translate(-60.81 422.76) rotate(-78.55)" style="fill:#ffedb0;"/><ellipse cx="228.73" cy="248.58" rx="3.41" ry="1.74" transform="translate(-60.3 423.42) rotate(-78.55)" style="fill:#ffda59;"/><ellipse cx="256.49" cy="264.56" rx="6.24" ry="4.73" transform="translate(-101.72 178.15) rotate(-32.33)" style="fill:#ffda59;"/><ellipse cx="239.75" cy="239.95" rx="5.34" ry="4.04" transform="translate(-91.15 165.39) rotate(-32.33)" style="fill:#fbb03b;"/><ellipse cx="238.97" cy="240.04" rx="6.24" ry="4.73" transform="translate(-91.32 164.98) rotate(-32.33)" style="fill:#ffe7ad;"/><ellipse cx="244.38" cy="232.2" rx="1.18" ry=".89" transform="translate(-52.12 71.81) rotate(-15.12)" style="fill:#f79439;"/><ellipse cx="239.55" cy="241.02" rx="5.34" ry="4.04" transform="translate(-91.75 165.45) rotate(-32.33)" style="fill:#ffda59;"/><ellipse cx="235.21" cy="257.61" rx="3.62" ry="4.78" transform="translate(-13.87 13.38) rotate(-3.17)" style="fill:#ffb83d;"/><ellipse cx="236.08" cy="257.58" rx="3.09" ry="4.08" transform="translate(-13.86 13.43) rotate(-3.17)" style="fill:#ffda59;"/><ellipse cx="264.55" cy="270.52" rx=".76" ry=".44" transform="translate(-99.82 168.52) rotate(-30)" style="fill:#ffda59;"/><ellipse cx="229.74" cy="263.38" rx=".44" ry=".55" transform="translate(-93.05 129.37) rotate(-26.36)" style="fill:#ffe7ad;"/><ellipse cx="237.89" cy="269.14" rx="2.68" ry="4" transform="translate(-87.99 420.23) rotate(-73.4)" style="fill:#ffda59;"/><ellipse cx="258.66" cy="233.99" rx="3.03" ry="4" transform="translate(-39.47 415.02) rotate(-73.4)" style="fill:#ffb83d;"/><ellipse cx="258.36" cy="234.92" rx="3.03" ry="3.72" transform="translate(-40.58 415.4) rotate(-73.4)" style="fill:#ffda59;"/><circle cx="247.67" cy="254.3" r="4.32" style="fill:#ffb83d;"/><circle cx="248.43" cy="254.88" r="3.9" style="fill:#ffda59;"/><ellipse cx="249.94" cy="229.12" rx=".71" ry=".53" transform="translate(-12.27 14.15) rotate(-3.17)" style="fill:#fbb03b;"/><ellipse cx="246.42" cy="229.22" rx=".71" ry=".53" transform="translate(-12.28 13.96) rotate(-3.17)" style="fill:#ffe7ad;"/><ellipse cx="246.55" cy="270.24" rx=".71" ry=".53" transform="translate(-14.55 14.03) rotate(-3.17)" style="fill:#fbb03b;"/><ellipse cx="270.42" cy="247.08" rx=".71" ry=".53" transform="translate(-2.08 491.86) rotate(-84.35)" style="fill:#fbb03b;"/><ellipse cx="273.35" cy="255.89" rx=".71" ry=".53" transform="translate(-8.21 502.71) rotate(-84.35)" style="fill:#e87b4f;"/><ellipse cx="230.96" cy="265.35" rx=".53" ry=".71" transform="translate(-87.61 116.13) rotate(-23.87)" style="fill:#e87b4f;"/><ellipse cx="261.64" cy="272.98" rx=".71" ry=".53" transform="translate(-101.44 167.39) rotate(-30)" style="fill:#e87b4f;"/><ellipse cx="266.38" cy="242.29" rx="3.03" ry="4" transform="translate(-33.84 43.47) rotate(-8.77)" style="fill:#ffda59;"/></g></g></g></g><g><circle cx="515.87" cy="275.68" r="7.44" style="fill:#f79439;"/><rect x="467.44" y="291.71" width="96.86" height="28.39" rx="4.25" ry="4.25" style="fill:#fff;"/><text transform="translate(477.72 314.79)" style="fill:#1a1a1a; font-family:SegoeUI, &apos;Segoe UI&apos;; font-size:24px;"><tspan x="0" y="0">Merkur</tspan></text></g></svg>