<?xml version="1.0" encoding="UTF-8"?><svg id="a" xmlns="http://www.w3.org/2000/svg" viewBox="0 0 568.01 996.36"><line x1="284.01" y1="212.13" x2="473.28" y2="212.13" style="fill:none; stroke:#fbb03b; stroke-dasharray:0 8; stroke-linecap:round; stroke-miterlimit:10; stroke-width:4px;"/><line x1="96.3" y1="212.13" x2="284.01" y2="212.13" style="fill:none; stroke:#999; stroke-dasharray:0 8; stroke-linecap:round; stroke-miterlimit:10; stroke-width:4px;"/><path d="m284.01,8c152.19,0,276.01,91.57,276.01,204.13s-123.82,204.13-276.01,204.13S8,324.68,8,212.13,131.82,8,284.01,8M284.01,0C127.15,0,0,94.97,0,212.13s127.15,212.13,284.01,212.13,284.01-94.97,284.01-212.13S440.86,0,284.01,0h0Z" style="fill:#45abff;"/><g><path d="m284.01,222.67c-5.81,0-10.54-4.73-10.54-10.54s4.73-10.54,10.54-10.54,10.54,4.73,10.54,10.54-4.73,10.54-10.54,10.54Z" style="fill:#fff;"/><path d="m284.01,205.59c3.61,0,6.54,2.93,6.54,6.54s-2.93,6.54-6.54,6.54-6.54-2.93-6.54-6.54,2.93-6.54,6.54-6.54m0-8c-8.02,0-14.54,6.52-14.54,14.54s6.52,14.54,14.54,14.54,14.54-6.52,14.54-14.54-6.52-14.54-14.54-14.54h0Z" style="fill:#45abff;"/></g><g><path d="m473.28,220.67c-4.71,0-8.54-3.83-8.54-8.54s3.83-8.54,8.54-8.54,8.54,3.83,8.54,8.54-3.83,8.54-8.54,8.54Z" style="fill:#fff;"/><path d="m473.28,205.59c3.61,0,6.54,2.93,6.54,6.54s-2.93,6.54-6.54,6.54-6.54-2.93-6.54-6.54,2.93-6.54,6.54-6.54m0-4c-5.81,0-10.54,4.73-10.54,10.54s4.73,10.54,10.54,10.54,10.54-4.73,10.54-10.54-4.73-10.54-10.54-10.54h0Z" style="fill:#1bcc9a;"/></g><text transform="translate(270.55 281.4)" style="fill:#45abff; font-family:SegoeUI-Bold, &apos;Segoe UI&apos;; font-size:48px; font-weight:700;"><tspan x="0" y="0">S</tspan></text><text transform="translate(83.52 281.4)" style="fill:#b91eed; font-family:SegoeUI-Bold, &apos;Segoe UI&apos;; font-size:48px; font-weight:700;"><tspan x="0" y="0">E</tspan></text><text transform="translate(460.8 281.4)" style="fill:#1bcc9a; font-family:SegoeUI-Bold, &apos;Segoe UI&apos;; font-size:48px; font-weight:700;"><tspan x="0" y="0">F</tspan></text><text transform="translate(177.17 181.24)" style="fill:#999; font-family:SegoeUI-Bold, &apos;Segoe UI&apos;; font-size:48px; font-weight:700;"><tspan x="0" y="0">e</tspan></text><text transform="translate(365.66 181.24)" style="fill:#fbb03b; font-family:SegoeUI-Bold, &apos;Segoe UI&apos;; font-size:48px; font-weight:700;"><tspan x="0" y="0">e</tspan></text><g><path d="m96.3,220.67c-4.71,0-8.54-3.83-8.54-8.54s3.83-8.54,8.54-8.54,8.54,3.83,8.54,8.54-3.83,8.54-8.54,8.54Z" style="fill:#fff;"/><path d="m96.3,205.59c3.61,0,6.54,2.93,6.54,6.54s-2.93,6.54-6.54,6.54-6.54-2.93-6.54-6.54,2.93-6.54,6.54-6.54m0-4c-5.81,0-10.54,4.73-10.54,10.54s4.73,10.54,10.54,10.54,10.54-4.73,10.54-10.54-4.73-10.54-10.54-10.54h0Z" style="fill:#b91eed;"/></g><path d="m284.01,580.11c27.56,0,54.29,5.4,79.45,16.04,24.31,10.28,46.14,25,64.89,43.75,18.75,18.75,33.47,40.58,43.75,64.89,10.64,25.16,16.04,51.89,16.04,79.45s-5.4,54.29-16.04,79.45c-10.28,24.31-25,46.14-43.75,64.89-18.75,18.75-40.58,33.47-64.89,43.75-25.16,10.64-51.89,16.04-79.45,16.04s-54.29-5.4-79.45-16.04c-24.31-10.28-46.14-25-64.89-43.75-18.75-18.75-33.47-40.58-43.75-64.89-10.64-25.16-16.04-51.89-16.04-79.45s5.4-54.29,16.04-79.45c10.28-24.31,25-46.14,43.75-64.89,18.75-18.75,40.58-33.47,64.89-43.75,25.16-10.64,51.89-16.04,79.45-16.04m0-8c-117.15,0-212.13,94.97-212.13,212.13s94.97,212.13,212.13,212.13,212.13-94.97,212.13-212.13-94.97-212.13-212.13-212.13h0Z" style="fill:#ff1d25;"/><g><path d="m284.01,794.78c-5.81,0-10.54-4.73-10.54-10.54s4.73-10.54,10.54-10.54,10.54,4.73,10.54,10.54-4.73,10.54-10.54,10.54Z" style="fill:#fff;"/><path d="m284.01,777.7c3.61,0,6.54,2.93,6.54,6.54s-2.93,6.54-6.54,6.54-6.54-2.93-6.54-6.54,2.93-6.54,6.54-6.54m0-8c-8.02,0-14.54,6.52-14.54,14.54s6.52,14.54,14.54,14.54,14.54-6.52,14.54-14.54-6.52-14.54-14.54-14.54h0Z" style="fill:#45abff;"/></g><text transform="translate(211.36 853.5)" style="font-family:SegoeUI-Bold, &apos;Segoe UI&apos;; font-size:48px; font-weight:700;"><tspan x="0" y="0" style="fill:#b91eed;">E</tspan><tspan x="25.55" y="0" style="fill:#999;">=</tspan><tspan x="59.48" y="0" style="fill:#45abff;">S</tspan><tspan x="86.39" y="0" style="fill:#999;">=</tspan><tspan x="120.33" y="0" style="fill:#1bcc9a;">F</tspan></text><g><path d="m284.01,792.78c-4.71,0-8.54-3.83-8.54-8.54s3.83-8.54,8.54-8.54,8.54,3.83,8.54,8.54-3.83,8.54-8.54,8.54Z" style="fill:#fff;"/><path d="m284.01,777.7c3.61,0,6.54,2.93,6.54,6.54s-2.93,6.54-6.54,6.54-6.54-2.93-6.54-6.54,2.93-6.54,6.54-6.54m0-4c-5.81,0-10.54,4.73-10.54,10.54s4.73,10.54,10.54,10.54,10.54-4.73,10.54-10.54-4.73-10.54-10.54-10.54h0Z" style="fill:#b91eed;"/></g><g><path d="m284.01,791.78c-4.16,0-7.54-3.38-7.54-7.54s3.38-7.54,7.54-7.54,7.54,3.38,7.54,7.54-3.38,7.54-7.54,7.54Z" style="fill:#fff;"/><path d="m284.01,777.7c3.61,0,6.54,2.93,6.54,6.54s-2.93,6.54-6.54,6.54-6.54-2.93-6.54-6.54,2.93-6.54,6.54-6.54m0-2c-4.71,0-8.54,3.83-8.54,8.54s3.83,8.54,8.54,8.54,8.54-3.83,8.54-8.54-3.83-8.54-8.54-8.54h0Z" style="fill:#1bcc9a;"/></g><g><g><line x1="284.01" y1="458.69" x2="284.01" y2="508.97" style="fill:none; stroke:#ccc; stroke-miterlimit:10; stroke-width:8px;"/><polygon points="264.06 503.14 284.01 537.68 303.95 503.14 264.06 503.14" style="fill:#ccc;"/></g><g><line x1="201.26" y1="458.69" x2="201.26" y2="508.97" style="fill:none; stroke:#ccc; stroke-miterlimit:10; stroke-width:8px;"/><polygon points="181.31 503.14 201.26 537.68 221.2 503.14 181.31 503.14" style="fill:#ccc;"/></g><g><line x1="366.76" y1="458.69" x2="366.76" y2="508.97" style="fill:none; stroke:#ccc; stroke-miterlimit:10; stroke-width:8px;"/><polygon points="346.81 503.14 366.76 537.68 386.7 503.14 346.81 503.14" style="fill:#ccc;"/></g></g></svg>