<?xml version="1.0" encoding="UTF-8"?><svg id="a" xmlns="http://www.w3.org/2000/svg" viewBox="0 0 568.01 420.43"><line x1="169.95" y1="62.66" x2="451.65" y2="230.06" style="fill:none; stroke:#f1503d; stroke-dasharray:0 8; stroke-linecap:round; stroke-miterlimit:10; stroke-width:4px;"/><line x1="117.75" y1="230.06" x2="169.95" y2="62.66" style="fill:none; stroke:#fbb03b; stroke-dasharray:0 8; stroke-linecap:round; stroke-miterlimit:10; stroke-width:4px;"/><ellipse cx="284.01" cy="230.06" rx="251.55" ry="187.88" style="fill:none; stroke:#999; stroke-miterlimit:10; stroke-width:8px;"/><circle cx="117.75" cy="230.06" r="5.79" style="fill:#999;"/><g><path d="m169.95,70.45c-4.3,0-7.79-3.5-7.79-7.79s3.5-7.79,7.79-7.79,7.79,3.5,7.79,7.79-3.49,7.79-7.79,7.79Z" style="fill:#fff;"/><path d="m169.95,56.86c3.2,0,5.79,2.59,5.79,5.79s-2.59,5.79-5.79,5.79-5.79-2.59-5.79-5.79,2.59-5.79,5.79-5.79m0-4c-5.4,0-9.79,4.39-9.79,9.79s4.39,9.79,9.79,9.79,9.79-4.39,9.79-9.79-4.39-9.79-9.79-9.79h0Z" style="fill:#1bcc9a;"/></g><circle cx="451.65" cy="230.06" r="5.79" style="fill:#999;"/><text transform="translate(105.33 291.6)" style="fill:#999; font-family:SegoeUI-Semibold, &apos;Segoe UI&apos;; font-size:48px; font-weight:600;"><tspan x="0" y="0">E</tspan></text><text transform="translate(147.41 36.64)" style="fill:#1bcc9a; font-family:SegoeUI-Bold, &apos;Segoe UI&apos;; font-size:48px; font-weight:700;"><tspan x="0" y="0">P</tspan></text><text transform="translate(151.64 182.2)" style="fill:#fbb03b; font-family:SegoeUI-Bold, &apos;Segoe UI&apos;; font-size:36px; font-weight:700;"><tspan x="0" y="0">|EP|</tspan></text><text transform="translate(317.86 127.17)" style="fill:#f1503d; font-family:SegoeUI-Bold, &apos;Segoe UI&apos;; font-size:36px; font-weight:700;"><tspan x="0" y="0">|FP|</tspan></text><text transform="translate(439.59 291.6)" style="fill:#999; font-family:SegoeUI-Semibold, &apos;Segoe UI&apos;; font-size:48px; font-weight:600;"><tspan x="0" y="0">F</tspan></text></svg>