<?xml version="1.0" encoding="UTF-8"?><svg id="a" xmlns="http://www.w3.org/2000/svg" viewBox="0 0 568.01 424.26"><g><line x1="284.01" y1="212.13" x2="284.01" y2="208.13" style="fill:none; stroke:#f1503d; stroke-linecap:round; stroke-miterlimit:10; stroke-width:4px;"/><line x1="284.01" y1="199.96" x2="284.01" y2="8.08" style="fill:none; stroke:#f1503d; stroke-dasharray:0 0 8.17 8.17; stroke-linecap:round; stroke-miterlimit:10; stroke-width:4px;"/><line x1="284.01" y1="4" x2="284.01" y2="0" style="fill:none; stroke:#f1503d; stroke-linecap:round; stroke-miterlimit:10; stroke-width:4px;"/></g><line y1="212.13" x2="284.01" y2="212.13" style="fill:none; stroke:#1bcc9a; stroke-dasharray:0 8; stroke-linecap:round; stroke-miterlimit:10; stroke-width:4px;"/><path d="m284.01,8c152.19,0,276.01,91.57,276.01,204.13s-123.82,204.13-276.01,204.13S8,324.68,8,212.13,131.82,8,284.01,8M284.01,0C127.15,0,0,94.97,0,212.13s127.15,212.13,284.01,212.13,284.01-94.97,284.01-212.13S440.86,0,284.01,0h0Z" style="fill:#999;"/><circle cx="96.3" cy="212.13" r="6.54" style="fill:#999;"/><circle cx="284.01" cy="212.13" r="6.54" style="fill:#999;"/><circle cx="473.28" cy="212.13" r="6.54" style="fill:#999;"/><text transform="translate(270.94 281.4)" style="fill:#999; font-family:SegoeUI-Semibold, &apos;Segoe UI&apos;; font-size:48px; font-weight:600;"><tspan x="0" y="0">S</tspan></text><text transform="translate(83.87 281.4)" style="fill:#999; font-family:SegoeUI-Semibold, &apos;Segoe UI&apos;; font-size:48px; font-weight:600;"><tspan x="0" y="0">E</tspan></text><text transform="translate(461.22 281.4)" style="fill:#999; font-family:SegoeUI-Semibold, &apos;Segoe UI&apos;; font-size:48px; font-weight:600;"><tspan x="0" y="0">F</tspan></text><text transform="translate(62.8 186.04)" style="fill:#1bcc9a; font-family:SegoeUI-Semibold, &apos;Segoe UI&apos;; font-size:24px; font-weight:600;"><tspan x="0" y="0">hlavní poloosa</tspan></text><text transform="translate(318.85 157.54)" style="fill:#f1503d; font-family:SegoeUI-Semibold, &apos;Segoe UI&apos;; font-size:24px; font-weight:600;"><tspan x="0" y="0" style="letter-spacing:0em;">v</tspan><tspan x="11.99" y="0">edlejší poloosa</tspan></text><text transform="translate(129.09 149.77)" style="fill:#1bcc9a; font-family:SegoeUI-Bold, &apos;Segoe UI&apos;; font-size:48px; font-weight:700;"><tspan x="0" y="0">a</tspan></text><text transform="translate(317.34 123.83)" style="fill:#f1503d; font-family:SegoeUI-Bold, &apos;Segoe UI&apos;; font-size:48px; font-weight:700;"><tspan x="0" y="0">b</tspan></text></svg>