<?xml version="1.0" encoding="UTF-8"?><svg id="a" xmlns="http://www.w3.org/2000/svg" viewBox="0 0 568.01 1804.62"><line x1="284.43" y1="1248.64" x2="410.64" y2="1121.1" style="fill:none; stroke:#fa8fed; stroke-dasharray:0 8; stroke-linecap:round; stroke-miterlimit:10; stroke-width:4px;"/><g><line x1="284.43" y1="184.98" x2="288.43" y2="184.98" style="fill:none; stroke:#fbb03b; stroke-linecap:round; stroke-miterlimit:10; stroke-width:4px;"/><line x1="296.43" y1="184.98" x2="436.51" y2="184.98" style="fill:none; stroke:#fbb03b; stroke-dasharray:0 0 8 8; stroke-linecap:round; stroke-miterlimit:10; stroke-width:4px;"/><line x1="440.51" y1="184.98" x2="444.51" y2="184.98" style="fill:none; stroke:#fbb03b; stroke-linecap:round; stroke-miterlimit:10; stroke-width:4px;"/></g><line x1="384.46" y1="487.8" x2="544.55" y2="487.8" style="fill:none; stroke:#fbb03b; stroke-dasharray:0 8; stroke-linecap:round; stroke-miterlimit:10; stroke-width:4px;"/><g><line x1="203.96" y1="727.76" x2="207.96" y2="727.76" style="fill:none; stroke:#fbb03b; stroke-linecap:round; stroke-miterlimit:10; stroke-width:4px;"/><line x1="215.97" y1="727.76" x2="356.05" y2="727.76" style="fill:none; stroke:#fbb03b; stroke-dasharray:0 0 8 8; stroke-linecap:round; stroke-miterlimit:10; stroke-width:4px;"/><line x1="360.05" y1="727.76" x2="364.05" y2="727.76" style="fill:none; stroke:#fbb03b; stroke-linecap:round; stroke-miterlimit:10; stroke-width:4px;"/></g><line x1="23.46" y1="487.8" x2="384.46" y2="487.8" style="fill:none; stroke:#f1503d; stroke-dasharray:0 8; stroke-linecap:round; stroke-miterlimit:10; stroke-width:4px;"/><g><line x1="284.43" y1="184.98" x2="280.43" y2="184.98" style="fill:none; stroke:#1bcc9a; stroke-linecap:round; stroke-miterlimit:10; stroke-width:4px;"/><line x1="272.42" y1="184.98" x2="52.23" y2="184.98" style="fill:none; stroke:#1bcc9a; stroke-dasharray:0 0 8.01 8.01; stroke-linecap:round; stroke-miterlimit:10; stroke-width:4px;"/><line x1="48.22" y1="184.98" x2="44.22" y2="184.98" style="fill:none; stroke:#1bcc9a; stroke-linecap:round; stroke-miterlimit:10; stroke-width:4px;"/></g><g><line x1="404.11" y1="601.69" x2="400.11" y2="601.69" style="fill:none; stroke:#1bcc9a; stroke-linecap:round; stroke-miterlimit:10; stroke-width:4px;"/><line x1="392.1" y1="601.69" x2="171.91" y2="601.69" style="fill:none; stroke:#1bcc9a; stroke-dasharray:0 0 8.01 8.01; stroke-linecap:round; stroke-miterlimit:10; stroke-width:4px;"/><line x1="167.9" y1="601.69" x2="163.9" y2="601.69" style="fill:none; stroke:#1bcc9a; stroke-linecap:round; stroke-miterlimit:10; stroke-width:4px;"/></g><ellipse cx="284.43" cy="184.98" rx="240.21" ry="179.41" style="fill:none; stroke:#999; stroke-miterlimit:10; stroke-width:8px;"/><text transform="translate(112.89 244.56)" style="fill:#b91eed; font-family:SegoeUI-Bold, &apos;Segoe UI&apos;; font-size:48px; font-weight:700;"><tspan x="0" y="0">E</tspan></text><text transform="translate(10.69 460.23)" style="fill:#b91eed; font-family:SegoeUI-Bold, &apos;Segoe UI&apos;; font-size:48px; font-weight:700;"><tspan x="0" y="0">E</tspan></text><text transform="translate(475.45 48.81)" style="fill:#45abff; font-family:SegoeUI-Bold, &apos;Segoe UI&apos;; font-size:45.84px; font-weight:700;"><tspan x="0" y="0">P</tspan></text><text transform="translate(370.39 459.42)" style="fill:#45abff; font-family:SegoeUI-Bold, &apos;Segoe UI&apos;; font-size:45.84px; font-weight:700;"><tspan x="0" y="0">P</tspan></text><text transform="translate(432.03 244.56)" style="fill:#6ac439; font-family:SegoeUI-Bold, &apos;Segoe UI&apos;; font-size:48px; font-weight:700;"><tspan x="0" y="0">F</tspan></text><text transform="translate(532.07 460.23)" style="fill:#6ac439; font-family:SegoeUI-Bold, &apos;Segoe UI&apos;; font-size:48px; font-weight:700;"><tspan x="0" y="0">F</tspan></text><text transform="translate(271.95 243.76)" style="fill:#999; font-family:SegoeUI-Semibold, &apos;Segoe UI&apos;; font-size:45.84px; font-weight:600;"><tspan x="0" y="0">S</tspan></text><text transform="translate(151.99 157.29)" style="fill:#1bcc9a; font-family:SegoeUI-Bold, &apos;Segoe UI&apos;; font-size:45.84px; font-weight:700;"><tspan x="0" y="0">a</tspan></text><text transform="translate(271.67 580.73)" style="fill:#1bcc9a; font-family:SegoeUI-Bold, &apos;Segoe UI&apos;; font-size:45.84px; font-weight:700;"><tspan x="0" y="0">a</tspan></text><g><line x1="404.11" y1="1665.49" x2="400.11" y2="1665.49" style="fill:none; stroke:#1bcc9a; stroke-linecap:round; stroke-miterlimit:10; stroke-width:4px;"/><line x1="392.1" y1="1665.49" x2="171.91" y2="1665.49" style="fill:none; stroke:#1bcc9a; stroke-dasharray:0 0 8.01 8.01; stroke-linecap:round; stroke-miterlimit:10; stroke-width:4px;"/><line x1="167.9" y1="1665.49" x2="163.9" y2="1665.49" style="fill:none; stroke:#1bcc9a; stroke-linecap:round; stroke-miterlimit:10; stroke-width:4px;"/></g><text transform="translate(271.67 1641.55)" style="fill:#1bcc9a; font-family:SegoeUI-Bold, &apos;Segoe UI&apos;; font-size:45.84px; font-weight:700;"><tspan x="0" y="0">a</tspan></text><g><line x1="404.11" y1="1551.86" x2="400.11" y2="1551.86" style="fill:none; stroke:#fa8fed; stroke-linecap:round; stroke-miterlimit:10; stroke-width:4px;"/><line x1="392.1" y1="1551.86" x2="171.91" y2="1551.86" style="fill:none; stroke:#fa8fed; stroke-dasharray:0 0 8.01 8.01; stroke-linecap:round; stroke-miterlimit:10; stroke-width:4px;"/><line x1="167.9" y1="1551.86" x2="163.9" y2="1551.86" style="fill:none; stroke:#fa8fed; stroke-linecap:round; stroke-miterlimit:10; stroke-width:4px;"/></g><text transform="translate(274.89 1522.9)" style="fill:#fa8fed; font-family:SegoeUI-Bold, &apos;Segoe UI&apos;; font-size:45.84px; font-weight:700;"><tspan x="0" y="0">r</tspan></text><text transform="translate(352.07 157.29)" style="fill:#fbb03b; font-family:SegoeUI-Bold, &apos;Segoe UI&apos;; font-size:45.84px; font-weight:700;"><tspan x="0" y="0">e</tspan></text><text transform="translate(271.61 704.76)" style="fill:#fbb03b; font-family:SegoeUI-Bold, &apos;Segoe UI&apos;; font-size:45.84px; font-weight:700;"><tspan x="0" y="0">e</tspan></text><circle cx="284.43" cy="184.98" r="6.24" style="fill:#999;"/><text transform="translate(183.35 450.94)" style="font-family:SegoeUI-Bold, &apos;Segoe UI&apos;; font-size:22.92px; font-weight:700;"><tspan x="0" y="0" style="fill:#999;">|</tspan><tspan x="7.48" y="0" style="fill:#b91eed;">E</tspan><tspan x="19.67" y="0" style="fill:#45abff;">P</tspan><tspan x="33.75" y="0" style="fill:#999;">|</tspan></text><text transform="translate(257.57 103.79)" style="font-family:SegoeUI-Bold, &apos;Segoe UI&apos;; font-size:22.92px; font-weight:700;"><tspan x="0" y="0" style="fill:#999;">|</tspan><tspan x="7.48" y="0" style="fill:#b91eed;">E</tspan><tspan x="19.67" y="0" style="fill:#45abff;">P</tspan><tspan x="33.75" y="0" style="fill:#999;">|</tspan></text><text transform="translate(444.03 450.94)" style="font-family:SegoeUI-Bold, &apos;Segoe UI&apos;; font-size:22.92px; font-weight:700;"><tspan x="0" y="0" style="fill:#999;">|</tspan><tspan x="7.48" y="0" style="fill:#6ac439;">F</tspan><tspan x="19.39" y="0" style="fill:#45abff;">P</tspan><tspan x="33.47" y="0" style="fill:#999;">|</tspan></text><text transform="translate(462.19 149.2)" style="font-family:SegoeUI-Bold, &apos;Segoe UI&apos;; font-size:22.92px; font-weight:700;"><tspan x="0" y="0" style="fill:#999;">|</tspan><tspan x="7.48" y="0" style="fill:#6ac439;">F</tspan><tspan x="19.39" y="0" style="fill:#45abff;">P</tspan><tspan x="33.47" y="0" style="fill:#999;">|</tspan></text><g><g><line x1="284.01" y1="862.82" x2="284.01" y2="913.1" style="fill:none; stroke:#ccc; stroke-miterlimit:10; stroke-width:8px;"/><polygon points="264.06 907.27 284.01 941.81 303.95 907.27 264.06 907.27" style="fill:#ccc;"/></g><g><line x1="201.26" y1="862.82" x2="201.26" y2="913.1" style="fill:none; stroke:#ccc; stroke-miterlimit:10; stroke-width:8px;"/><polygon points="181.31 907.27 201.26 941.81 221.2 907.27 181.31 907.27" style="fill:#ccc;"/></g><g><line x1="366.76" y1="862.82" x2="366.76" y2="913.1" style="fill:none; stroke:#ccc; stroke-miterlimit:10; stroke-width:8px;"/><polygon points="346.81 907.27 366.76 941.81 386.7 907.27 346.81 907.27" style="fill:#ccc;"/></g></g><g><line x1="125.67" y1="184.98" x2="129.46" y2="183.71" style="fill:none; stroke:#f1503d; stroke-linecap:round; stroke-miterlimit:10; stroke-width:4px;"/><line x1="136.9" y1="181.22" x2="460.7" y2="72.61" style="fill:none; stroke:#f1503d; stroke-dasharray:0 0 7.85 7.85; stroke-linecap:round; stroke-miterlimit:10; stroke-width:4px;"/><line x1="464.42" y1="71.36" x2="468.22" y2="70.09" style="fill:none; stroke:#f1503d; stroke-linecap:round; stroke-miterlimit:10; stroke-width:4px;"/></g><g><path d="m125.67,192.51c-4.15,0-7.53-3.38-7.53-7.53s3.38-7.53,7.53-7.53,7.53,3.38,7.53,7.53-3.38,7.53-7.53,7.53Z" style="fill:#fff;"/><path d="m125.67,179.46c3.05,0,5.53,2.48,5.53,5.53s-2.48,5.53-5.53,5.53-5.53-2.48-5.53-5.53,2.48-5.53,5.53-5.53m0-4c-5.25,0-9.53,4.27-9.53,9.53s4.28,9.53,9.53,9.53,9.53-4.27,9.53-9.53-4.28-9.53-9.53-9.53h0Z" style="fill:#b91eed;"/></g><g><path d="m23.46,495.33c-4.15,0-7.53-3.38-7.53-7.53s3.38-7.53,7.53-7.53,7.53,3.38,7.53,7.53-3.38,7.53-7.53,7.53Z" style="fill:#fff;"/><path d="m23.46,482.27c3.05,0,5.53,2.48,5.53,5.53s-2.48,5.53-5.53,5.53-5.53-2.48-5.53-5.53,2.48-5.53,5.53-5.53m0-4c-5.25,0-9.53,4.27-9.53,9.53s4.28,9.53,9.53,9.53,9.53-4.27,9.53-9.53-4.28-9.53-9.53-9.53h0Z" style="fill:#b91eed;"/></g><g><line x1="444.51" y1="184.98" x2="445.32" y2="181.07" style="fill:none; stroke:#45abff; stroke-linecap:round; stroke-miterlimit:10; stroke-width:4px;"/><line x1="447.02" y1="172.83" x2="466.56" y2="78.13" style="fill:none; stroke:#45abff; stroke-dasharray:0 0 8.41 8.41; stroke-linecap:round; stroke-miterlimit:10; stroke-width:4px;"/><line x1="467.41" y1="74.01" x2="468.22" y2="70.09" style="fill:none; stroke:#45abff; stroke-linecap:round; stroke-miterlimit:10; stroke-width:4px;"/></g><g><path d="m468.22,77.62c-4.15,0-7.53-3.38-7.53-7.53s3.38-7.53,7.53-7.53,7.53,3.38,7.53,7.53-3.38,7.53-7.53,7.53Z" style="fill:#fff;"/><path d="m468.22,64.56c3.05,0,5.53,2.48,5.53,5.53s-2.48,5.53-5.53,5.53-5.53-2.48-5.53-5.53,2.48-5.53,5.53-5.53m0-4c-5.25,0-9.53,4.28-9.53,9.53s4.28,9.53,9.53,9.53,9.53-4.28,9.53-9.53-4.28-9.53-9.53-9.53h0Z" style="fill:#45abff;"/></g><g><path d="m384.46,495.33c-4.15,0-7.53-3.38-7.53-7.53s3.38-7.53,7.53-7.53,7.53,3.38,7.53,7.53-3.38,7.53-7.53,7.53Z" style="fill:#fff;"/><path d="m384.46,482.27c3.05,0,5.53,2.48,5.53,5.53s-2.48,5.53-5.53,5.53-5.53-2.48-5.53-5.53,2.48-5.53,5.53-5.53m0-4c-5.25,0-9.53,4.27-9.53,9.53s4.28,9.53,9.53,9.53,9.53-4.27,9.53-9.53-4.28-9.53-9.53-9.53h0Z" style="fill:#45abff;"/></g><g><path d="m444.51,192.51c-4.15,0-7.53-3.38-7.53-7.53s3.38-7.53,7.53-7.53,7.53,3.38,7.53,7.53-3.38,7.53-7.53,7.53Z" style="fill:#fff;"/><path d="m444.51,179.46c3.05,0,5.53,2.48,5.53,5.53s-2.48,5.53-5.53,5.53-5.53-2.48-5.53-5.53,2.48-5.53,5.53-5.53m0-4c-5.25,0-9.53,4.27-9.53,9.53s4.28,9.53,9.53,9.53,9.53-4.27,9.53-9.53-4.28-9.53-9.53-9.53h0Z" style="fill:#6ac439;"/></g><g><line x1="284.43" y1="1248.64" x2="280.43" y2="1248.64" style="fill:none; stroke:#1bcc9a; stroke-linecap:round; stroke-miterlimit:10; stroke-width:4px;"/><line x1="272.27" y1="1248.64" x2="113.1" y2="1248.64" style="fill:none; stroke:#1bcc9a; stroke-dasharray:0 0 8.16 8.16; stroke-linecap:round; stroke-miterlimit:10; stroke-width:4px;"/><line x1="109.01" y1="1248.64" x2="105.01" y2="1248.64" style="fill:none; stroke:#1bcc9a; stroke-linecap:round; stroke-miterlimit:10; stroke-width:4px;"/></g><circle cx="284.43" cy="1248.64" r="179.41" style="fill:none; stroke:#999; stroke-miterlimit:10; stroke-width:8px;"/><text transform="translate(430.44 1097.34)" style="fill:#45abff; font-family:SegoeUI-Bold, &apos;Segoe UI&apos;; font-size:45.84px; font-weight:700;"><tspan x="0" y="0">P</tspan></text><text transform="translate(214.87 1308.21)"><tspan><tspan x="0" y="0" style="fill:#b91eed; font-family:SegoeUI-Bold, &apos;Segoe UI&apos;; font-size:48px; font-weight:700;">E</tspan><tspan x="25.55" y="0" style="fill:#999; font-family:SegoeUI-Semibold, &apos;Segoe UI&apos;; font-size:45.84px; font-weight:600;">=S=</tspan><tspan x="114.15" y="0" style="fill:#6ac439; font-family:SegoeUI-Bold, &apos;Segoe UI&apos;; font-size:48px; font-weight:700;">F</tspan></tspan></text><text transform="translate(182.39 1224.88)" style="fill:#1bcc9a; font-family:SegoeUI-Bold, &apos;Segoe UI&apos;; font-size:45.84px; font-weight:700;"><tspan x="0" y="0">a</tspan></text><text transform="translate(316.5 1168.79)" style="fill:#fa8fed; font-family:SegoeUI-Bold, &apos;Segoe UI&apos;; font-size:45.84px; font-weight:700;"><tspan x="0" y="0">r</tspan></text><g><path d="m284.43,1256.17c-4.15,0-7.53-3.38-7.53-7.53s3.38-7.53,7.53-7.53,7.53,3.38,7.53,7.53-3.38,7.53-7.53,7.53Z" style="fill:#fff;"/><path d="m284.43,1243.11c3.05,0,5.53,2.48,5.53,5.53s-2.48,5.53-5.53,5.53-5.53-2.48-5.53-5.53,2.48-5.53,5.53-5.53m0-4c-5.25,0-9.53,4.28-9.53,9.53s4.28,9.53,9.53,9.53,9.53-4.28,9.53-9.53-4.28-9.53-9.53-9.53h0Z" style="fill:#b91eed;"/></g><g><circle cx="410.64" cy="1121.1" r="7.53" style="fill:#fff;"/><path d="m410.64,1115.57c3.05,0,5.53,2.48,5.53,5.53s-2.48,5.53-5.53,5.53-5.53-2.48-5.53-5.53,2.48-5.53,5.53-5.53m0-4c-5.25,0-9.53,4.27-9.53,9.53s4.28,9.53,9.53,9.53,9.53-4.27,9.53-9.53-4.28-9.53-9.53-9.53h0Z" style="fill:#45abff;"/></g><g><path d="m284.43,1255.17c-3.6,0-6.53-2.93-6.53-6.53s2.93-6.53,6.53-6.53,6.53,2.93,6.53,6.53-2.93,6.53-6.53,6.53Z" style="fill:#fff;"/><path d="m284.43,1243.11c3.05,0,5.53,2.48,5.53,5.53s-2.48,5.53-5.53,5.53-5.53-2.48-5.53-5.53,2.48-5.53,5.53-5.53m0-2c-4.15,0-7.53,3.38-7.53,7.53s3.38,7.53,7.53,7.53,7.53-3.38,7.53-7.53-3.38-7.53-7.53-7.53h0Z" style="fill:#6ac439;"/></g><g><path d="m544.55,495.33c-4.15,0-7.53-3.38-7.53-7.53s3.38-7.53,7.53-7.53,7.53,3.38,7.53,7.53-3.38,7.53-7.53,7.53Z" style="fill:#fff;"/><path d="m544.55,482.27c3.05,0,5.53,2.48,5.53,5.53s-2.48,5.53-5.53,5.53-5.53-2.48-5.53-5.53,2.48-5.53,5.53-5.53m0-4c-5.25,0-9.53,4.27-9.53,9.53s4.28,9.53,9.53,9.53,9.53-4.27,9.53-9.53-4.28-9.53-9.53-9.53h0Z" style="fill:#6ac439;"/></g><circle cx="284.43" cy="1248.64" r="4" style="fill:#999;"/><line x1="404.11" y1="1548.19" x2="404.11" y2="1665.49" style="fill:#fff; stroke:#ccc; stroke-miterlimit:10;"/><line x1="163.9" y1="1548.19" x2="163.9" y2="1665.49" style="fill:#fff; stroke:#ccc; stroke-miterlimit:10;"/><line x1="404.11" y1="1539.36" x2="404.11" y2="1564.36" style="fill:none; stroke:#999; stroke-linecap:round; stroke-miterlimit:10; stroke-width:4px;"/><line x1="163.9" y1="1539.36" x2="163.9" y2="1564.36" style="fill:none; stroke:#999; stroke-linecap:round; stroke-miterlimit:10; stroke-width:4px;"/><line x1="203.96" y1="715.26" x2="203.96" y2="740.26" style="fill:none; stroke:#999; stroke-linecap:round; stroke-miterlimit:10; stroke-width:4px;"/><line x1="364.05" y1="715.26" x2="364.05" y2="740.26" style="fill:none; stroke:#999; stroke-linecap:round; stroke-miterlimit:10; stroke-width:4px;"/><text transform="translate(230.03 1761.99)" style="font-size:45.84px;"><tspan x="0" y="0" style="fill:#fbb03b; font-family:SegoeUI-Bold, &apos;Segoe UI&apos;; font-weight:700;">e </tspan><tspan x="37.44" y="0" style="fill:#999; font-family:SegoeUI-Bold, &apos;Segoe UI&apos;; font-weight:700;">=</tspan><tspan x="69.85" y="0" style="fill:#fbb03b; font-family:SegoeUI-Bold, &apos;Segoe UI&apos;; font-weight:700;"> </tspan><tspan x="82.5" y="0" style="fill:#999; font-family:SegoeUI-Semibold, &apos;Segoe UI&apos;; font-weight:600;">0</tspan></text><line x1="284.01" y1="1778.56" x2="284.01" y2="1803.56" style="fill:none; stroke:#999; stroke-linecap:round; stroke-miterlimit:10; stroke-width:4px;"/><line x1="404.11" y1="589.19" x2="404.11" y2="614.19" style="fill:none; stroke:#999; stroke-linecap:round; stroke-miterlimit:10; stroke-width:4px;"/><line x1="163.9" y1="589.19" x2="163.9" y2="614.19" style="fill:none; stroke:#999; stroke-linecap:round; stroke-miterlimit:10; stroke-width:4px;"/><line x1="404.11" y1="1652.99" x2="404.11" y2="1677.99" style="fill:none; stroke:#999; stroke-linecap:round; stroke-miterlimit:10; stroke-width:4px;"/><line x1="163.9" y1="1652.99" x2="163.9" y2="1677.99" style="fill:none; stroke:#999; stroke-linecap:round; stroke-miterlimit:10; stroke-width:4px;"/></svg>