<?xml version="1.0" encoding="UTF-8"?><svg id="a" xmlns="http://www.w3.org/2000/svg" viewBox="0 0 606.02 701.29"><path d="m305.25,25.09c152.19,0,276.01,91.57,276.01,204.13s-123.82,204.13-276.01,204.13S29.24,341.77,29.24,229.22,153.06,25.09,305.25,25.09m0-8C148.39,17.09,21.24,112.06,21.24,229.22s127.15,212.13,284.01,212.13,284.01-94.97,284.01-212.13S462.1,17.09,305.25,17.09h0Z" style="fill:#45abff;"/><path d="m305.25,17.09v666.08H21.24V17.09h284.01m0-6H21.24c-3.31,0-6,2.69-6,6v666.08c0,3.31,2.69,6,6,6h284.01c3.31,0,6-2.69,6-6V17.09c0-3.31-2.69-6-6-6h0Z" style="fill:#454eff;"/><g><rect x="22.24" y="18.09" width="282.01" height="210.13" style="fill:#fa8fed; opacity:.6;"/><path d="m303.25,19.09v208.13H23.24V19.09h280.01m2-2H21.24v212.13h284.01V17.09h0Z" style="fill:#fa8fed;"/></g><g><rect x="22.24" y="442.35" width="282.01" height="210.13" style="fill:#fa8fed; opacity:.25;"/><path d="m303.25,443.35v208.13H23.24v-208.13h280.01m2-2H21.24v212.13h284.01v-212.13h0Z" style="fill:#fa8fed;"/></g><g><rect x="22.24" y="654.47" width="282.01" height="27.7" style="fill:#fa8fed; opacity:.25;"/><path d="m303.25,655.47v25.7H23.24v-25.7h280.01m2-2H21.24v29.7h284.01v-29.7h0Z" style="fill:#fa8fed;"/></g><g><rect x="22.24" y="230.22" width="282.01" height="210.13" style="fill:#fa8fed; opacity:.25;"/><path d="m303.25,231.22v208.13H23.24v-208.13h280.01m2-2H21.24v212.13h284.01v-212.13h0Z" style="fill:#fa8fed;"/></g><g><line x1="305.25" y1="229.22" x2="305.25" y2="225.22" style="fill:none; stroke:#f1503d; stroke-linecap:round; stroke-miterlimit:10; stroke-width:4px;"/><line x1="305.25" y1="217.05" x2="305.25" y2="25.17" style="fill:none; stroke:#f1503d; stroke-dasharray:0 0 8.17 8.17; stroke-linecap:round; stroke-miterlimit:10; stroke-width:4px;"/><line x1="305.25" y1="21.09" x2="305.25" y2="17.09" style="fill:none; stroke:#f1503d; stroke-linecap:round; stroke-miterlimit:10; stroke-width:4px;"/></g><g><line x1="21.24" y1="229.22" x2="25.24" y2="229.22" style="fill:none; stroke:#1bcc9a; stroke-linecap:round; stroke-miterlimit:10; stroke-width:4px;"/><line x1="33.13" y1="229.22" x2="297.3" y2="229.22" style="fill:none; stroke:#1bcc9a; stroke-dasharray:0 0 7.89 7.89; stroke-linecap:round; stroke-miterlimit:10; stroke-width:4px;"/><line x1="301.25" y1="229.22" x2="305.25" y2="229.22" style="fill:none; stroke:#1bcc9a; stroke-linecap:round; stroke-miterlimit:10; stroke-width:4px;"/></g><circle cx="305.25" cy="229.22" r="6.54" style="fill:#999;"/><text transform="translate(135.45 140.92)" style="font-family:SegoeUI-Bold, &apos;Segoe UI&apos;; font-size:48px; font-weight:700;"><tspan x="0" y="0" style="fill:#1bcc9a;">a</tspan><tspan x="25.83" y="0" style="fill:#f1503d;">b</tspan></text><text transform="translate(369.93 361.66)" style="fill:#fbb03b; font-family:SegoeUI-Bold, &apos;Segoe UI&apos;; font-size:48px; font-weight:700;"><tspan x="0" y="0">π</tspan></text><text transform="translate(152.29 367.9)" style="fill:#454eff; font-family:SegoeUI-Bold, &apos;Segoe UI&apos;; font-size:48px; font-weight:700;"><tspan x="0" y="0">S</tspan></text><path d="m313,17.09h12.79c5.16,0,9.34,5.39,9.34,12.03v642.02c0,6.64-4.18,12.03-9.34,12.03h-12.79" style="fill:none; stroke:#fbb03b; stroke-linecap:round; stroke-miterlimit:10; stroke-width:2px;"/><line x1="335.13" y1="350.13" x2="353.05" y2="350.13" style="fill:none; stroke:#fbb03b; stroke-linecap:round; stroke-miterlimit:10; stroke-width:2px;"/></svg>