<?xml version="1.0" encoding="UTF-8"?><svg id="a" xmlns="http://www.w3.org/2000/svg" xmlns:xlink="http://www.w3.org/1999/xlink" viewBox="0 0 844 455.09"><defs><clipPath id="b"><circle cx="594.72" cy="229.51" r="18.87" style="fill:#ffda59;"/></clipPath><clipPath id="c"><circle cx="122.12" cy="230.13" r="14.31" style="fill:#b3b3b3; stroke:#f2f2f2; stroke-miterlimit:10;"/></clipPath></defs><g><line x1="595.4" y1="230.13" x2="591.4" y2="230.13" style="fill:none; stroke:#f1503d; stroke-linecap:round; stroke-miterlimit:10; stroke-width:4px;"/><line x1="583.51" y1="230.13" x2="130.06" y2="230.13" style="fill:none; stroke:#f1503d; stroke-dasharray:0 0 7.89 7.89; stroke-linecap:round; stroke-miterlimit:10; stroke-width:4px;"/><line x1="126.12" y1="230.13" x2="122.12" y2="230.13" style="fill:none; stroke:#f1503d; stroke-linecap:round; stroke-miterlimit:10; stroke-width:4px;"/></g><g><g><path d="m597.11,206.07l.88-1.39.49,1.58c.62,1.98,3.09,2.64,4.61,1.24l1.21-1.12.07,1.65c.09,2.07,2.3,3.35,4.13,2.39l1.46-.77-.36,1.61c-.45,2.02,1.35,3.83,3.38,3.38l1.61-.36-.77,1.46c-.96,1.84.32,4.05,2.39,4.13l1.65.07-1.12,1.21c-1.4,1.52-.74,3.99,1.24,4.61l1.58.49-1.39.88c-1.75,1.11-1.75,3.66,0,4.77l1.39.88-1.58.49c-1.98.62-2.64,3.09-1.24,4.61l1.12,1.21-1.65.07c-2.07.09-3.35,2.3-2.39,4.13l.77,1.46-1.61-.36c-2.02-.45-3.83,1.35-3.38,3.38l.36,1.61-1.46-.77c-1.84-.96-4.05.32-4.13,2.39l-.07,1.65-1.21-1.12c-1.52-1.4-3.99-.74-4.61,1.24l-.49,1.58-.88-1.39c-1.11-1.75-3.66-1.75-4.77,0l-.88,1.39-.49-1.58c-.62-1.98-3.09-2.64-4.61-1.24l-1.21,1.12-.07-1.65c-.09-2.07-2.3-3.35-4.13-2.39l-1.46.77.36-1.61c.45-2.02-1.35-3.83-3.38-3.38l-1.61.36.77-1.46c.96-1.84-.32-4.05-2.39-4.13l-1.65-.07,1.12-1.21c1.4-1.52.74-3.99-1.24-4.61l-1.58-.49,1.39-.88c1.75-1.11,1.75-3.66,0-4.77l-1.39-.88,1.58-.49c1.98-.62,2.64-3.09,1.24-4.61l-1.12-1.21,1.65-.07c2.07-.09,3.35-2.3,2.39-4.13l-.77-1.46,1.61.36c2.02.45,3.83-1.35,3.38-3.38l-.36-1.61,1.46.77c1.84.96,4.05-.32,4.13-2.39l.07-1.65,1.21,1.12c1.52,1.4,3.99.74,4.61-1.24l.49-1.58.88,1.39c1.11,1.75,3.66,1.75,4.77,0Z" style="fill:#ffda59;"/><circle cx="594.72" cy="229.51" r="20.96" style="fill:#fff5d1;"/><circle cx="594.72" cy="229.51" r="19.69" style="fill:#ffedb0;"/><circle cx="595.8" cy="230.59" r="18.8" style="fill:#e87b4f;"/><g><circle cx="594.72" cy="229.51" r="18.87" style="fill:#ffda59;"/><g style="clip-path:url(#b);"><path d="m606.05,212.73c4.68,24.26-6.92,30.83-29.32,29.32v9.32h37.41v-37.77l-8.09-.87Z" style="fill:#ffb83d;"/><ellipse cx="578.28" cy="226.73" rx="2.82" ry="1.36" transform="translate(241.29 748.5) rotate(-78.55)" style="fill:#ffedb0;"/><ellipse cx="578.76" cy="226.74" rx="2.53" ry="1.29" transform="translate(241.66 748.99) rotate(-78.55)" style="fill:#ffda59;"/><ellipse cx="599.32" cy="238.57" rx="4.62" ry="3.5" transform="translate(-34.69 357.44) rotate(-32.33)" style="fill:#ffda59;"/><ellipse cx="586.92" cy="220.35" rx="3.95" ry="2.99" transform="translate(-26.87 347.99) rotate(-32.33)" style="fill:#fbb03b;"/><ellipse cx="586.34" cy="220.42" rx="4.62" ry="3.5" transform="translate(-27 347.69) rotate(-32.33)" style="fill:#ffe7ad;"/><ellipse cx="590.35" cy="214.62" rx=".87" ry=".66" transform="translate(-35.55 161.47) rotate(-15.12)" style="fill:#f79439;"/><ellipse cx="586.77" cy="221.15" rx="3.95" ry="2.99" transform="translate(-27.32 348.04) rotate(-32.33)" style="fill:#ffda59;"/><ellipse cx="583.56" cy="233.43" rx="2.68" ry="3.54" transform="translate(-12 32.58) rotate(-3.17)" style="fill:#ffb83d;"/><ellipse cx="584.2" cy="233.41" rx="2.29" ry="3.02" transform="translate(-12 32.62) rotate(-3.17)" style="fill:#ffda59;"/><ellipse cx="605.28" cy="242.99" rx=".56" ry=".32" transform="translate(-40.4 335.19) rotate(-30)" style="fill:#ffda59;"/><ellipse cx="579.51" cy="237.7" rx=".32" ry=".41" transform="translate(-45.29 281.99) rotate(-26.36)" style="fill:#ffe7ad;"/><ellipse cx="585.54" cy="241.96" rx="1.99" ry="2.96" transform="translate(186.39 733.98) rotate(-73.4)" style="fill:#ffda59;"/><ellipse cx="600.92" cy="215.94" rx="2.24" ry="2.96" transform="translate(222.31 730.13) rotate(-73.4)" style="fill:#ffb83d;"/><ellipse cx="600.7" cy="216.63" rx="2.24" ry="2.76" transform="translate(221.49 730.41) rotate(-73.4)" style="fill:#ffda59;"/><circle cx="592.78" cy="230.98" r="3.2" style="fill:#ffb83d;"/><circle cx="593.35" cy="231.41" r="2.89" style="fill:#ffda59;"/><ellipse cx="594.47" cy="212.34" rx=".52" ry=".4" transform="translate(-10.82 33.15) rotate(-3.17)" style="fill:#fbb03b;"/><ellipse cx="591.86" cy="212.41" rx=".52" ry=".4" transform="translate(-10.83 33.01) rotate(-3.17)" style="fill:#ffe7ad;"/><ellipse cx="591.96" cy="242.78" rx=".52" ry=".4" transform="translate(-12.5 33.06) rotate(-3.17)" style="fill:#fbb03b;"/><ellipse cx="609.63" cy="225.63" rx=".52" ry=".4" transform="translate(325.07 810.08) rotate(-84.35)" style="fill:#fbb03b;"/><ellipse cx="611.79" cy="232.15" rx=".52" ry=".4" transform="translate(320.53 818.12) rotate(-84.35)" style="fill:#e87b4f;"/><ellipse cx="580.41" cy="239.16" rx=".4" ry=".52" transform="translate(-47.13 255.28) rotate(-23.87)" style="fill:#e87b4f;"/><ellipse cx="603.12" cy="244.81" rx=".52" ry=".4" transform="translate(-41.6 334.36) rotate(-30)" style="fill:#e87b4f;"/><ellipse cx="606.63" cy="222.09" rx="2.24" ry="2.96" transform="translate(-26.78 95.13) rotate(-8.77)" style="fill:#ffda59;"/></g></g><rect x="561.3" y="180.58" width="66.83" height="19.37" rx="4.25" ry="4.25" style="fill:#fff;"/><text transform="translate(572.92 195.89)" style="fill:#1a1a1a; font-family:SegoeUI-Semibold, &apos;Segoe UI&apos;; font-size:15.2px; font-weight:600;"><tspan x="0" y="0">Slunce</tspan></text></g><g><circle cx="595.4" cy="230.13" r="7.54" style="fill:#fff;"/><path d="m595.4,223.59c3.61,0,6.54,2.93,6.54,6.54s-2.93,6.54-6.54,6.54-6.54-2.93-6.54-6.54,2.93-6.54,6.54-6.54m0-2c-4.71,0-8.54,3.83-8.54,8.54s3.83,8.54,8.54,8.54,8.54-3.83,8.54-8.54-3.83-8.54-8.54-8.54h0Z" style="fill:#fbb03b;"/></g></g><ellipse cx="406.13" cy="230.13" rx="284.01" ry="212.13" style="fill:none; stroke:#999; stroke-miterlimit:10; stroke-width:8px;"/><text transform="translate(20.67 236.01)" style="fill:#b91eed; font-family:SegoeUI-Semibold, &apos;Segoe UI&apos;; font-size:24px; font-weight:600;"><tspan x="0" y="0">afélium</tspan></text><g><path d="m360.45,254.88c-.89-.48-1.93-.73-3.12-.73-1.61,0-2.87.59-3.77,1.77s-1.36,2.79-1.36,4.82v11.46h-7.41v-24h7.41v4.45h.09c1.17-3.25,3.28-4.88,6.33-4.88.78,0,1.39.09,1.83.28v6.82Z" style="fill:#f1503d;"/><path d="m374.24,288.18h-4.08v-2.01h-.05c-.94,1.57-2.33,2.35-4.17,2.35-1.36,0-2.42-.38-3.2-1.15-.78-.77-1.17-1.8-1.17-3.08,0-2.71,1.61-4.28,4.82-4.7l3.8-.51c0-1.53-.83-2.3-2.49-2.3s-3.25.5-4.75,1.49v-3.25c.6-.31,1.42-.58,2.47-.82,1.04-.24,1.99-.35,2.85-.35,3.99,0,5.98,1.99,5.98,5.97v8.36Zm-4.06-5.68v-.94l-2.54.33c-1.4.18-2.1.82-2.1,1.9,0,.49.17.9.51,1.21.34.31.8.47,1.39.47.81,0,1.47-.28,1.98-.84s.77-1.27.77-2.12Z" style="fill:#f1503d;"/></g><g><circle cx="122.12" cy="230.13" r="14.31" style="fill:#b3b3b3;"/><g style="clip-path:url(#c);"><path d="m122.53,210.08c-4.6,11.17-5.77,23.51,1.1,38.64l-17.33-7.64-3.36-18.52,19.59-12.48Z" style="fill:#999;"/></g><circle cx="122.12" cy="230.13" r="14.31" style="fill:none; stroke:#f2f2f2; stroke-miterlimit:10;"/></g><g><circle cx="122.12" cy="230.13" r="7.53" style="fill:#fff;"/><path d="m122.12,224.6c3.05,0,5.53,2.48,5.53,5.53s-2.48,5.53-5.53,5.53-5.53-2.48-5.53-5.53,2.48-5.53,5.53-5.53m0-4c-5.25,0-9.53,4.28-9.53,9.53s4.28,9.53,9.53,9.53,9.53-4.28,9.53-9.53-4.28-9.53-9.53-9.53h0Z" style="fill:#b91eed;"/></g></svg>