<?xml version="1.0" encoding="UTF-8"?><svg xmlns="http://www.w3.org/2000/svg" xmlns:xlink="http://www.w3.org/1999/xlink" viewBox="0 0 686 171.27"><defs><clipPath id="b"><circle cx="342.51" cy="94.21" r="27.66" style="fill:#ffda59;"/></clipPath><clipPath id="c"><circle cx="564.62" cy="87.57" r="8.55" style="fill:#4fb2e8; stroke:#a8e1ff; stroke-miterlimit:10; stroke-width:2px;"/></clipPath></defs><g style="isolation:isolate;"><g id="a"><text transform="translate(654.63 100.87)" style="fill:#ccc; font-family:SegoeUI-Semibold, &apos;Segoe UI&apos;; font-size:18px; font-weight:600;"><tspan x="0" y="0">0°</tspan></text><text transform="translate(332.36 23.75)" style="fill:#999; font-family:SegoeUI-Semibold, &apos;Segoe UI&apos;; font-size:18px; font-weight:600;"><tspan x="0" y="0">90°</tspan></text><text transform="translate(437.47 116.02)" style="fill:#f79439; font-family:SegoeUI-Semibold, &apos;Segoe UI&apos;; font-size:18px; font-weight:600;"><tspan x="0" y="0">6,3°</tspan></text><text transform="translate(553 116.02)" style="fill:#5eb2e9; font-family:SegoeUI-Semibold, &apos;Segoe UI&apos;; font-size:18px; font-weight:600;"><tspan x="0" y="0">1,6°</tspan></text><line x1="645.53" y1="94.21" x2="39.49" y2="94.21" style="fill:#fff; stroke:#ccc; stroke-linecap:round; stroke-miterlimit:10;"/><g><line x1="342.51" y1="30.98" x2="342.51" y2="34.98" style="fill:none; stroke:#999; stroke-linecap:round; stroke-miterlimit:10; stroke-width:4px;"/><line x1="342.51" y1="42.87" x2="342.51" y2="149.5" style="fill:none; stroke:#999; stroke-dasharray:0 0 7.9 7.9; stroke-linecap:round; stroke-miterlimit:10; stroke-width:4px;"/><line x1="342.51" y1="153.45" x2="342.51" y2="157.45" style="fill:none; stroke:#999; stroke-linecap:round; stroke-miterlimit:10; stroke-width:4px;"/></g><g><path d="m346.01,59.84l1.29-2.04.72,2.31c.91,2.9,4.52,3.87,6.76,1.81l1.78-1.64.1,2.42c.12,3.04,3.37,4.91,6.06,3.5l2.14-1.12-.53,2.36c-.67,2.97,1.98,5.61,4.95,4.95l2.36-.53-1.12,2.14c-1.41,2.69.46,5.94,3.5,6.06l2.42.1-1.64,1.78c-2.06,2.24-1.09,5.85,1.81,6.76l2.31.72-2.04,1.29c-2.57,1.63-2.57,5.37,0,7l2.04,1.29-2.31.72c-2.9.91-3.87,4.52-1.81,6.76l1.64,1.78-2.42.1c-3.04.12-4.91,3.37-3.5,6.06l1.12,2.14-2.36-.53c-2.97-.67-5.61,1.98-4.95,4.95l.53,2.36-2.14-1.12c-2.69-1.41-5.94.46-6.06,3.5l-.1,2.42-1.78-1.64c-2.24-2.06-5.85-1.09-6.76,1.81l-.72,2.31-1.29-2.04c-1.63-2.57-5.37-2.57-7,0l-1.29,2.04-.72-2.31c-.91-2.9-4.52-3.87-6.76-1.81l-1.78,1.64-.1-2.42c-.12-3.04-3.37-4.91-6.06-3.5l-2.14,1.12.53-2.36c.67-2.97-1.98-5.61-4.95-4.95l-2.36.53,1.12-2.14c1.41-2.69-.46-5.94-3.5-6.06l-2.42-.1,1.64-1.78c2.06-2.24,1.09-5.85-1.81-6.76l-2.31-.72,2.04-1.29c2.57-1.63,2.57-5.37,0-7l-2.04-1.29,2.31-.72c2.9-.91,3.87-4.52,1.81-6.76l-1.64-1.78,2.42-.1c3.04-.12,4.91-3.37,3.5-6.06l-1.12-2.14,2.36.53c2.97.67,5.61-1.98,4.95-4.95l-.53-2.36,2.14,1.12c2.69,1.41,5.94-.46,6.06-3.5l.1-2.42,1.78,1.64c2.24,2.06,5.85,1.09,6.76-1.81l.72-2.31,1.29,2.04c1.63,2.57,5.37,2.57,7,0Z" style="fill:#ffda59;"/><circle cx="342.51" cy="94.21" r="30.72" style="fill:#fff5d1;"/><circle cx="342.51" cy="94.21" r="28.86" style="fill:#ffedb0;"/><circle cx="344.1" cy="95.8" r="27.56" style="fill:#e87b4f;"/><g><circle cx="342.51" cy="94.21" r="27.66" style="fill:#ffda59;"/><g style="clip-path:url(#b);"><path d="m359.13,69.62c6.86,35.56-10.14,45.2-42.98,42.98v13.65h54.83v-55.36l-11.86-1.27Z" style="fill:#ffb83d;"/><ellipse cx="318.41" cy="90.13" rx="4.14" ry="1.99" transform="translate(166.87 384.32) rotate(-78.55)" style="fill:#ffedb0;"/><ellipse cx="319.12" cy="90.15" rx="3.7" ry="1.88" transform="translate(167.42 385.03) rotate(-78.55)" style="fill:#ffda59;"/><ellipse cx="349.25" cy="107.5" rx="6.77" ry="5.13" transform="translate(-3.36 203.41) rotate(-32.33)" style="fill:#ffda59;"/><ellipse cx="331.07" cy="80.79" rx="5.79" ry="4.39" transform="translate(8.11 189.55) rotate(-32.33)" style="fill:#fbb03b;"/><ellipse cx="330.23" cy="80.89" rx="6.77" ry="5.13" transform="translate(7.92 189.12) rotate(-32.33)" style="fill:#ffe7ad;"/><ellipse cx="336.1" cy="72.38" rx="1.28" ry=".97" transform="translate(-7.24 90.2) rotate(-15.12)" style="fill:#f79439;"/><ellipse cx="330.86" cy="81.95" rx="5.79" ry="4.39" transform="translate(7.45 189.62) rotate(-32.33)" style="fill:#ffda59;"/><ellipse cx="326.15" cy="99.95" rx="3.93" ry="5.18" transform="translate(-5.02 18.16) rotate(-3.17)" style="fill:#ffb83d;"/><ellipse cx="327.09" cy="99.92" rx="3.36" ry="4.43" transform="translate(-5.02 18.21) rotate(-3.17)" style="fill:#ffda59;"/><ellipse cx="357.99" cy="113.96" rx=".82" ry=".48" transform="translate(-9.02 194.26) rotate(-30)" style="fill:#ffda59;"/><ellipse cx="320.21" cy="106.22" rx=".48" ry=".6" transform="translate(-13.87 153.2) rotate(-26.36)" style="fill:#ffe7ad;"/><ellipse cx="329.06" cy="112.46" rx="2.91" ry="4.34" transform="translate(127.28 395.68) rotate(-73.4)" style="fill:#ffda59;"/><ellipse cx="351.59" cy="74.32" rx="3.29" ry="4.34" transform="translate(179.93 390.03) rotate(-73.4)" style="fill:#ffb83d;"/><ellipse cx="351.27" cy="75.33" rx="3.29" ry="4.04" transform="translate(178.73 390.44) rotate(-73.4)" style="fill:#ffda59;"/><circle cx="339.67" cy="96.37" r="4.69" style="fill:#ffb83d;"/><circle cx="340.5" cy="96.99" r="4.23" style="fill:#ffda59;"/><ellipse cx="342.14" cy="69.04" rx=".77" ry=".58" transform="translate(-3.29 19) rotate(-3.17)" style="fill:#fbb03b;"/><ellipse cx="338.31" cy="69.14" rx=".77" ry=".58" transform="translate(-3.3 18.79) rotate(-3.17)" style="fill:#ffe7ad;"/><ellipse cx="338.46" cy="113.66" rx=".77" ry=".58" transform="translate(-5.76 18.86) rotate(-3.17)" style="fill:#fbb03b;"/><ellipse cx="364.36" cy="88.53" rx=".77" ry=".58" transform="translate(240.39 442.4) rotate(-84.35)" style="fill:#fbb03b;"/><ellipse cx="367.54" cy="98.08" rx=".77" ry=".58" transform="translate(233.74 454.18) rotate(-84.35)" style="fill:#e87b4f;"/><ellipse cx="321.54" cy="108.35" rx=".58" ry=".77" transform="translate(-16.35 139.36) rotate(-23.87)" style="fill:#e87b4f;"/><ellipse cx="354.83" cy="116.63" rx=".77" ry=".58" transform="translate(-10.78 193.04) rotate(-30)" style="fill:#e87b4f;"/><ellipse cx="359.97" cy="83.33" rx="3.29" ry="4.34" transform="translate(-8.5 55.88) rotate(-8.77)" style="fill:#ffda59;"/></g></g></g><line x1="460.59" y1="81.17" x2="224.43" y2="107.25" style="fill:none; stroke:#fbb03b; stroke-linecap:round; stroke-miterlimit:10; stroke-width:2px;"/><line x1="580.34" y1="87.57" x2="104.68" y2="100.85" style="fill:none; stroke:#3fa9f5; stroke-linecap:round; stroke-miterlimit:10; stroke-width:2px;"/><g><circle cx="450.07" cy="82.31" r="5.26" style="fill:#f79439;"/><rect x="402.64" y="39.85" width="96.86" height="28.39" rx="6" ry="6" style="fill:#fff;"/><text transform="translate(414.26 62.29)" style="fill:#f79439; font-family:SegoeUI-Semibold, &apos;Segoe UI&apos;; font-size:22.28px; font-weight:600;"><tspan x="0" y="0">Merkur</tspan></text></g><g><circle cx="564.62" cy="87.57" r="8.55" style="fill:#4fb2e8;"/><g style="clip-path:url(#c);"><path d="m558.62,89.54s6.62.68,6.9-.7c.28-1.38-3.94-3.68-4.11-5.24s2.71-3.84,1.69-4.7-6.31.96-6.57,2.51c-.26,1.55-1.28,8.32,2.08,8.14Z" style="fill:#45c7ad;"/><path d="m572.82,86.05s-1.31-.19-1.5.48-1.3,1.94-1.28,2.71,0,2.17.46,2.63,2.85-1.01,3.03-1.76.95-4.03-.71-4.07Z" style="fill:#4bd6ba;"/><path d="m571.95,80.79s.23-1.18-.55-1.46-2.26-1.51-3.16-1.62-2.54-.36-3.08,0,1.16,2.79,2.04,3.08,4.7,1.53,4.76,0Z" style="fill:#c3dee0;"/><path d="m557.29,93.82s-.21,1.18.58,1.46,2.28,1.48,3.19,1.57,2.54.32,3.08-.04-1.21-2.77-2.08-3.05-4.72-1.45-4.76.07Z" style="fill:#c3dee0;"/><path d="m565.51,97.52c2.23-6.86,2.36-14.27-2.42-22.96l10.67,3.76,2.85,10.88-11.09,8.33Z" style="fill:#469ecf; mix-blend-mode:multiply; opacity:.31;"/></g><circle cx="564.62" cy="87.57" r="8.55" style="fill:none; stroke:#a8e1ff; stroke-miterlimit:10; stroke-width:2px;"/></g><rect x="518.79" y="39.85" width="96.86" height="28.39" rx="6" ry="6" style="fill:#fff;"/><text transform="translate(538.98 62.29)" style="fill:#5eb2e9; font-family:SegoeUI-Semibold, &apos;Segoe UI&apos;; font-size:22.28px; font-weight:600;"><tspan x="0" y="0">Země</tspan></text></g></g></svg>