<?xml version="1.0" encoding="UTF-8"?><svg id="a" xmlns="http://www.w3.org/2000/svg" xmlns:xlink="http://www.w3.org/1999/xlink" viewBox="0 0 568.01 715.97"><defs><clipPath id="b"><circle cx="443.91" cy="184.37" r="18.87" style="fill:#ffda59;"/></clipPath></defs><line x1="44.22" y1="184.98" x2="44.22" y2="587.92" style="fill:#fff; stroke:#ccc; stroke-miterlimit:10;"/><line x1="444.51" y1="184.98" x2="444.51" y2="587.92" style="fill:#fff; stroke:#ccc; stroke-miterlimit:10;"/><line x1="284.43" y1="184.98" x2="444.51" y2="184.98" style="fill:none; stroke:#fbb03b; stroke-dasharray:0 8; stroke-linecap:round; stroke-miterlimit:10; stroke-width:4px;"/><line x1="284.43" y1="184.98" x2="44.22" y2="184.98" style="fill:none; stroke:#1bcc9a; stroke-dasharray:0 8; stroke-linecap:round; stroke-miterlimit:10; stroke-width:4px;"/><ellipse cx="284.43" cy="184.98" rx="240.21" ry="179.41" style="fill:none; stroke:#999; stroke-miterlimit:10; stroke-width:8px;"/><circle cx="125.67" cy="184.98" r="5.53" style="fill:#999;"/><text transform="translate(271.95 243.75)" style="fill:#999; font-family:SegoeUI-Semibold, &apos;Segoe UI&apos;; font-size:45.84px; font-weight:600;"><tspan x="0" y="0">S</tspan></text><text transform="translate(151.99 157.29)" style="fill:#1bcc9a; font-family:SegoeUI-Bold, &apos;Segoe UI&apos;; font-size:45.84px; font-weight:700;"><tspan x="0" y="0">a</tspan></text><text transform="translate(352.07 157.29)" style="fill:#fbb03b; font-family:SegoeUI-Bold, &apos;Segoe UI&apos;; font-size:45.84px; font-weight:700;"><tspan x="0" y="0">e</tspan></text><circle cx="284.43" cy="184.98" r="6.24" style="fill:#999;"/><g><line x1="284.43" y1="587.8" x2="280.43" y2="587.8" style="fill:none; stroke:#1bcc9a; stroke-linecap:round; stroke-miterlimit:10; stroke-width:4px;"/><line x1="272.42" y1="587.8" x2="52.23" y2="587.8" style="fill:none; stroke:#1bcc9a; stroke-dasharray:0 0 8.01 8.01; stroke-linecap:round; stroke-miterlimit:10; stroke-width:4px;"/><line x1="48.22" y1="587.8" x2="44.22" y2="587.8" style="fill:none; stroke:#1bcc9a; stroke-linecap:round; stroke-miterlimit:10; stroke-width:4px;"/></g><text transform="translate(151.99 551.48)" style="fill:#1bcc9a; font-family:SegoeUI-Bold, &apos;Segoe UI&apos;; font-size:45.84px; font-weight:700;"><tspan x="0" y="0">a</tspan></text><g><line x1="284.43" y1="587.8" x2="288.43" y2="587.8" style="fill:none; stroke:#fbb03b; stroke-linecap:round; stroke-miterlimit:10; stroke-width:4px;"/><line x1="296.43" y1="587.8" x2="436.51" y2="587.8" style="fill:none; stroke:#fbb03b; stroke-dasharray:0 0 8 8; stroke-linecap:round; stroke-miterlimit:10; stroke-width:4px;"/><line x1="440.51" y1="587.8" x2="444.51" y2="587.8" style="fill:none; stroke:#fbb03b; stroke-linecap:round; stroke-miterlimit:10; stroke-width:4px;"/></g><text transform="translate(352.07 559.27)" style="fill:#fbb03b; font-family:SegoeUI-Bold, &apos;Segoe UI&apos;; font-size:45.84px; font-weight:700;"><tspan x="0" y="0">e</tspan></text><line x1="44.22" y1="575.3" x2="44.22" y2="600.3" style="fill:none; stroke:#999; stroke-linecap:round; stroke-miterlimit:10; stroke-width:4px;"/><line x1="284.01" y1="575.3" x2="284.01" y2="600.3" style="fill:none; stroke:#999; stroke-linecap:round; stroke-miterlimit:10; stroke-width:4px;"/><line x1="444.51" y1="575.3" x2="444.51" y2="600.3" style="fill:none; stroke:#999; stroke-linecap:round; stroke-miterlimit:10; stroke-width:4px;"/><g><g><path d="m245.3,419.49c-.89-.48-1.93-.73-3.12-.73-1.61,0-2.87.59-3.77,1.77s-1.36,2.79-1.36,4.82v11.46h-7.41v-24h7.41v4.45h.09c1.17-3.25,3.28-4.88,6.33-4.88.78,0,1.39.09,1.83.28v6.82Z" style="fill:#f1503d;"/><path d="m259.09,452.79h-4.08v-2.01h-.05c-.94,1.57-2.33,2.35-4.17,2.35-1.36,0-2.42-.38-3.2-1.15-.78-.77-1.17-1.8-1.17-3.08,0-2.71,1.61-4.28,4.82-4.7l3.8-.51c0-1.53-.83-2.3-2.49-2.3s-3.25.5-4.75,1.49v-3.25c.6-.31,1.42-.58,2.47-.82,1.04-.24,1.99-.35,2.85-.35,3.99,0,5.98,1.99,5.98,5.97v8.36Zm-4.06-5.68v-.94l-2.54.33c-1.4.18-2.1.82-2.1,1.9,0,.49.17.9.51,1.21.34.31.8.47,1.39.47.81,0,1.47-.28,1.98-.84s.77-1.27.77-2.12Z" style="fill:#f1503d;"/></g><g><line x1="444.51" y1="465.63" x2="440.51" y2="465.63" style="fill:none; stroke:#f1503d; stroke-linecap:round; stroke-miterlimit:10; stroke-width:4px;"/><line x1="432.51" y1="465.63" x2="52.22" y2="465.63" style="fill:none; stroke:#f1503d; stroke-dasharray:0 0 8.01 8.01; stroke-linecap:round; stroke-miterlimit:10; stroke-width:4px;"/><line x1="48.22" y1="465.63" x2="44.22" y2="465.63" style="fill:none; stroke:#f1503d; stroke-linecap:round; stroke-miterlimit:10; stroke-width:4px;"/></g><line x1="44.22" y1="453.13" x2="44.22" y2="478.13" style="fill:none; stroke:#999; stroke-linecap:round; stroke-miterlimit:10; stroke-width:4px;"/><line x1="444.51" y1="453.13" x2="444.51" y2="478.13" style="fill:none; stroke:#999; stroke-linecap:round; stroke-miterlimit:10; stroke-width:4px;"/></g><g><g><path d="m446.3,160.92l.88-1.39.49,1.58c.62,1.98,3.09,2.64,4.61,1.24l1.21-1.12.07,1.65c.09,2.07,2.3,3.35,4.13,2.39l1.46-.77-.36,1.61c-.45,2.02,1.35,3.83,3.38,3.38l1.61-.36-.77,1.46c-.96,1.84.32,4.05,2.39,4.13l1.65.07-1.12,1.21c-1.4,1.52-.74,3.99,1.24,4.61l1.58.49-1.39.88c-1.75,1.11-1.75,3.66,0,4.77l1.39.88-1.58.49c-1.98.62-2.64,3.09-1.24,4.61l1.12,1.21-1.65.07c-2.07.09-3.35,2.3-2.39,4.13l.77,1.46-1.61-.36c-2.02-.45-3.83,1.35-3.38,3.38l.36,1.61-1.46-.77c-1.84-.96-4.05.32-4.13,2.39l-.07,1.65-1.21-1.12c-1.52-1.4-3.99-.74-4.61,1.24l-.49,1.58-.88-1.39c-1.11-1.75-3.66-1.75-4.77,0l-.88,1.39-.49-1.58c-.62-1.98-3.09-2.64-4.61-1.24l-1.21,1.12-.07-1.65c-.09-2.07-2.3-3.35-4.13-2.39l-1.46.77.36-1.61c.45-2.02-1.35-3.83-3.38-3.38l-1.61.36.77-1.46c.96-1.84-.32-4.05-2.39-4.13l-1.65-.07,1.12-1.21c1.4-1.52.74-3.99-1.24-4.61l-1.58-.49,1.39-.88c1.75-1.11,1.75-3.66,0-4.77l-1.39-.88,1.58-.49c1.98-.62,2.64-3.09,1.24-4.61l-1.12-1.21,1.65-.07c2.07-.09,3.35-2.3,2.39-4.13l-.77-1.46,1.61.36c2.02.45,3.83-1.35,3.38-3.38l-.36-1.61,1.46.77c1.84.96,4.05-.32,4.13-2.39l.07-1.65,1.21,1.12c1.52,1.4,3.99.74,4.61-1.24l.49-1.58.88,1.39c1.11,1.75,3.66,1.75,4.77,0Z" style="fill:#ffda59;"/><circle cx="443.91" cy="184.37" r="20.96" style="fill:#fff5d1;"/><circle cx="443.91" cy="184.37" r="19.69" style="fill:#ffedb0;"/><circle cx="444.99" cy="185.45" r="18.8" style="fill:#e87b4f;"/><g><circle cx="443.91" cy="184.37" r="18.87" style="fill:#ffda59;"/><g style="clip-path:url(#b);"><path d="m455.24,167.59c4.68,24.26-6.92,30.83-29.32,29.32v9.32h37.41v-37.77l-8.09-.87Z" style="fill:#ffb83d;"/><ellipse cx="427.46" cy="181.59" rx="2.82" ry="1.36" transform="translate(164.65 564.51) rotate(-78.55)" style="fill:#ffedb0;"/><ellipse cx="427.95" cy="181.6" rx="2.53" ry="1.29" transform="translate(165.03 565) rotate(-78.55)" style="fill:#ffda59;"/><ellipse cx="448.5" cy="193.43" rx="4.62" ry="3.5" transform="translate(-33.93 269.8) rotate(-32.33)" style="fill:#ffda59;"/><ellipse cx="436.11" cy="175.21" rx="3.95" ry="2.99" transform="translate(-26.1 260.35) rotate(-32.33)" style="fill:#fbb03b;"/><ellipse cx="435.53" cy="175.28" rx="4.62" ry="3.5" transform="translate(-26.23 260.05) rotate(-32.33)" style="fill:#ffe7ad;"/><ellipse cx="439.54" cy="169.47" rx=".87" ry=".66" transform="translate(-28.99 120.55) rotate(-15.12)" style="fill:#f79439;"/><ellipse cx="435.96" cy="176" rx="3.95" ry="2.99" transform="translate(-26.55 260.4) rotate(-32.33)" style="fill:#ffda59;"/><ellipse cx="432.75" cy="188.28" rx="2.68" ry="3.54" transform="translate(-9.74 24.18) rotate(-3.17)" style="fill:#ffb83d;"/><ellipse cx="433.39" cy="188.26" rx="2.29" ry="3.02" transform="translate(-9.73 24.22) rotate(-3.17)" style="fill:#ffda59;"/><ellipse cx="454.47" cy="197.84" rx=".56" ry=".32" transform="translate(-38.03 253.74) rotate(-30)" style="fill:#ffda59;"/><ellipse cx="428.7" cy="192.56" rx=".32" ry=".41" transform="translate(-40.92 210.34) rotate(-26.36)" style="fill:#ffe7ad;"/><ellipse cx="434.73" cy="196.82" rx="1.99" ry="2.96" transform="translate(121.92 557.21) rotate(-73.4)" style="fill:#ffda59;"/><ellipse cx="450.11" cy="170.8" rx="2.24" ry="2.96" transform="translate(157.84 553.36) rotate(-73.4)" style="fill:#ffb83d;"/><ellipse cx="449.88" cy="171.49" rx="2.24" ry="2.76" transform="translate(157.02 553.64) rotate(-73.4)" style="fill:#ffda59;"/><circle cx="441.97" cy="185.84" r="3.2" style="fill:#ffb83d;"/><circle cx="442.54" cy="186.26" r="2.89" style="fill:#ffda59;"/><ellipse cx="443.66" cy="167.2" rx=".52" ry=".4" transform="translate(-8.56 24.75) rotate(-3.17)" style="fill:#fbb03b;"/><ellipse cx="441.05" cy="167.27" rx=".52" ry=".4" transform="translate(-8.56 24.61) rotate(-3.17)" style="fill:#ffe7ad;"/><ellipse cx="441.15" cy="197.64" rx=".52" ry=".4" transform="translate(-10.24 24.66) rotate(-3.17)" style="fill:#fbb03b;"/><ellipse cx="458.82" cy="180.49" rx=".52" ry=".4" transform="translate(234.03 619.31) rotate(-84.35)" style="fill:#fbb03b;"/><ellipse cx="460.98" cy="187.01" rx=".52" ry=".4" transform="translate(229.49 627.34) rotate(-84.35)" style="fill:#e87b4f;"/><ellipse cx="429.6" cy="194.01" rx=".4" ry=".52" transform="translate(-41.76 190.4) rotate(-23.87)" style="fill:#e87b4f;"/><ellipse cx="452.31" cy="199.67" rx=".52" ry=".4" transform="translate(-39.23 252.91) rotate(-30)" style="fill:#e87b4f;"/><ellipse cx="455.82" cy="176.94" rx="2.24" ry="2.96" transform="translate(-21.66 71.6) rotate(-8.77)" style="fill:#ffda59;"/></g></g><rect x="410.49" y="135.44" width="66.83" height="19.37" rx="4.25" ry="4.25" style="fill:#fff;"/><text transform="translate(422.11 150.75)" style="fill:#1a1a1a; font-family:SegoeUI-Semibold, &apos;Segoe UI&apos;; font-size:15.2px; font-weight:600;"><tspan x="0" y="0">Slunce</tspan></text></g><g><circle cx="444.59" cy="184.98" r="7.54" style="fill:#fff;"/><path d="m444.59,178.45c3.61,0,6.54,2.93,6.54,6.54s-2.93,6.54-6.54,6.54-6.54-2.93-6.54-6.54,2.93-6.54,6.54-6.54m0-2c-4.71,0-8.54,3.83-8.54,8.54s3.83,8.54,8.54,8.54,8.54-3.83,8.54-8.54-3.83-8.54-8.54-8.54h0Z" style="fill:#fbb03b;"/></g></g></svg>