<?xml version="1.0" encoding="UTF-8"?><svg id="a" xmlns="http://www.w3.org/2000/svg" xmlns:xlink="http://www.w3.org/1999/xlink" viewBox="0 0 844 795.93"><defs><clipPath id="b"><circle cx="425" cy="397.97" r="27.66" style="fill:#ffda59;"/></clipPath><clipPath id="c"><circle cx="251.38" cy="311.35" r="16.53" style="fill:#4fb2e8; stroke:#a8e1ff; stroke-miterlimit:10;"/></clipPath><clipPath id="d"><circle cx="229.92" cy="521.85" r="11.54" style="fill:#e86e3c; stroke:#fba67b; stroke-miterlimit:10;"/></clipPath><clipPath id="e"><circle cx="686.2" cy="437.08" r="29.16" style="fill:#f7ab4f; stroke:#ffcd59; stroke-miterlimit:10;"/></clipPath><clipPath id="f"><circle cx="505.43" cy="268.32" r="15.16" style="fill:#e87b4f; stroke:#fbb03b; stroke-miterlimit:10;"/></clipPath><clipPath id="g"><circle cx="414.19" cy="697.06" r="17.53" style="fill:#fbc878;"/></clipPath><clipPath id="h"><circle cx="279.79" cy="93.08" r="12.36" style="fill:#4fe8d9;"/></clipPath><clipPath id="i"><circle cx="131.54" cy="483.82" r="11.91" style="fill:#1e73c7; stroke:#97cbe8; stroke-miterlimit:10;"/></clipPath></defs><g><path d="m428.5,363.6l1.29-2.04.72,2.31c.91,2.9,4.52,3.87,6.76,1.81l1.78-1.64.1,2.42c.12,3.04,3.37,4.91,6.06,3.5l2.14-1.12-.53,2.36c-.67,2.97,1.98,5.61,4.95,4.95l2.36-.53-1.12,2.14c-1.41,2.69.46,5.94,3.5,6.06l2.42.1-1.64,1.78c-2.06,2.24-1.09,5.85,1.81,6.76l2.31.72-2.04,1.29c-2.57,1.63-2.57,5.37,0,7l2.04,1.29-2.31.72c-2.9.91-3.87,4.52-1.81,6.76l1.64,1.78-2.42.1c-3.04.12-4.91,3.37-3.5,6.06l1.12,2.14-2.36-.53c-2.97-.67-5.61,1.98-4.95,4.95l.53,2.36-2.14-1.12c-2.69-1.41-5.94.46-6.06,3.5l-.1,2.42-1.78-1.64c-2.24-2.06-5.85-1.09-6.76,1.81l-.72,2.31-1.29-2.04c-1.63-2.57-5.37-2.57-7,0l-1.29,2.04-.72-2.31c-.91-2.9-4.52-3.87-6.76-1.81l-1.78,1.64-.1-2.42c-.12-3.04-3.37-4.91-6.06-3.5l-2.14,1.12.53-2.36c.67-2.97-1.98-5.61-4.95-4.95l-2.36.53,1.12-2.14c1.41-2.69-.46-5.94-3.5-6.06l-2.42-.1,1.64-1.78c2.06-2.24,1.09-5.85-1.81-6.76l-2.31-.72,2.04-1.29c2.57-1.63,2.57-5.37,0-7l-2.04-1.29,2.31-.72c2.9-.91,3.87-4.52,1.81-6.76l-1.64-1.78,2.42-.1c3.04-.12,4.91-3.37,3.5-6.06l-1.12-2.14,2.36.53c2.97.67,5.61-1.98,4.95-4.95l-.53-2.36,2.14,1.12c2.69,1.41,5.94-.46,6.06-3.5l.1-2.42,1.78,1.64c2.24,2.06,5.85,1.09,6.76-1.81l.72-2.31,1.29,2.04c1.63,2.57,5.37,2.57,7,0Z" style="fill:#ffda59;"/><circle cx="425" cy="397.97" r="30.72" style="fill:#fff5d1;"/><ellipse cx="422" cy="397.97" rx="303.68" ry="298.03" style="fill:none; stroke:#fbcc83; stroke-miterlimit:10;"/><circle cx="425" cy="397.97" r="28.86" style="fill:#ffedb0;"/><circle cx="426.59" cy="399.55" r="27.56" style="fill:#e87b4f;"/><g><circle cx="425" cy="397.97" r="27.66" style="fill:#ffda59;"/><g style="clip-path:url(#b);"><path d="m441.62,373.37c6.86,35.56-10.14,45.2-42.98,42.98v13.65h54.83v-55.36l-11.86-1.27Z" style="fill:#ffb83d;"/><ellipse cx="400.9" cy="393.89" rx="4.14" ry="1.99" transform="translate(-64.72 708.63) rotate(-78.55)" style="fill:#ffedb0;"/><ellipse cx="401.61" cy="393.91" rx="3.7" ry="1.88" transform="translate(-64.17 709.35) rotate(-78.55)" style="fill:#ffda59;"/><ellipse cx="431.74" cy="411.25" rx="6.77" ry="5.13" transform="translate(-153 294.59) rotate(-32.33)" style="fill:#ffda59;"/><ellipse cx="413.56" cy="384.54" rx="5.79" ry="4.39" transform="translate(-141.53 280.74) rotate(-32.33)" style="fill:#fbb03b;"/><ellipse cx="412.72" cy="384.65" rx="6.77" ry="5.13" transform="translate(-141.72 280.3) rotate(-32.33)" style="fill:#ffe7ad;"/><ellipse cx="418.6" cy="376.13" rx="1.28" ry=".97" transform="translate(-83.64 122.25) rotate(-15.12)" style="fill:#f79439;"/><ellipse cx="413.35" cy="385.7" rx="5.79" ry="4.39" transform="translate(-142.19 280.81) rotate(-32.33)" style="fill:#ffda59;"/><ellipse cx="408.64" cy="403.7" rx="3.93" ry="5.18" transform="translate(-21.67 23.18) rotate(-3.17)" style="fill:#ffb83d;"/><ellipse cx="409.58" cy="403.67" rx="3.36" ry="4.43" transform="translate(-21.67 23.23) rotate(-3.17)" style="fill:#ffda59;"/><ellipse cx="440.48" cy="417.72" rx=".82" ry=".48" transform="translate(-149.85 276.2) rotate(-30)" style="fill:#ffda59;"/><ellipse cx="402.7" cy="409.97" rx=".48" ry=".6" transform="translate(-140.15 221.4) rotate(-26.36)" style="fill:#ffe7ad;"/><ellipse cx="411.55" cy="416.22" rx="2.91" ry="4.34" transform="translate(-104.9 691.71) rotate(-73.4)" style="fill:#ffda59;"/><ellipse cx="434.09" cy="378.08" rx="3.29" ry="4.34" transform="translate(-52.24 686.07) rotate(-73.4)" style="fill:#ffb83d;"/><ellipse cx="433.76" cy="379.09" rx="3.29" ry="4.04" transform="translate(-53.45 686.47) rotate(-73.4)" style="fill:#ffda59;"/><circle cx="422.16" cy="400.12" r="4.69" style="fill:#ffb83d;"/><circle cx="422.99" cy="400.74" r="4.23" style="fill:#ffda59;"/><ellipse cx="424.63" cy="372.79" rx=".77" ry=".58" transform="translate(-19.94 24.02) rotate(-3.17)" style="fill:#fbb03b;"/><ellipse cx="420.8" cy="372.9" rx=".77" ry=".58" transform="translate(-19.95 23.81) rotate(-3.17)" style="fill:#ffe7ad;"/><ellipse cx="420.95" cy="417.42" rx=".77" ry=".58" transform="translate(-22.41 23.88) rotate(-3.17)" style="fill:#fbb03b;"/><ellipse cx="446.85" cy="392.28" rx=".77" ry=".58" transform="translate(12.48 798.34) rotate(-84.35)" style="fill:#fbb03b;"/><ellipse cx="450.03" cy="401.84" rx=".77" ry=".58" transform="translate(5.83 810.11) rotate(-84.35)" style="fill:#e87b4f;"/><ellipse cx="404.03" cy="412.11" rx=".58" ry=".77" transform="translate(-132.19 198.7) rotate(-23.87)" style="fill:#e87b4f;"/><ellipse cx="437.32" cy="420.39" rx=".77" ry=".58" transform="translate(-151.6 274.98) rotate(-30)" style="fill:#e87b4f;"/><ellipse cx="442.46" cy="387.08" rx="3.29" ry="4.34" transform="translate(-53.86 72.02) rotate(-8.77)" style="fill:#ffda59;"/></g></g><ellipse cx="425" cy="397.97" rx="120.35" ry="118.11" style="fill:none; stroke:#fbb03b; stroke-miterlimit:10;"/><ellipse cx="422" cy="397.97" rx="157.01" ry="154.09" style="fill:none; stroke:#f79439; stroke-miterlimit:10;"/><ellipse cx="422" cy="397.97" rx="193.68" ry="190.08" style="fill:none; stroke:#3fa9f5; stroke-miterlimit:10;"/><ellipse cx="422" cy="397.97" rx="230.35" ry="226.06" style="fill:none; stroke:#f15a24; stroke-miterlimit:10;"/><ellipse cx="422" cy="397.97" rx="267.02" ry="262.05" style="fill:none; stroke:#f7ab4f; stroke-miterlimit:10;"/><ellipse cx="422" cy="397.97" rx="340.35" ry="334.02" style="fill:none; stroke:#4fe8d9; stroke-miterlimit:10;"/><ellipse cx="422" cy="397.97" rx="377.02" ry="370" style="fill:none; stroke:#3374c7; stroke-miterlimit:10;"/><g><circle cx="251.38" cy="311.35" r="16.53" style="fill:#4fb2e8;"/><g style="clip-path:url(#c);"><path d="m258.69,289.37c-8.89,10.75-14.4,23.97-11.99,43.02l-16.51-14.35,2.62-21.59,25.88-7.08Z" style="fill:#469ecf;"/><path d="m249.15,323.47s7.92-6.92,6.63-8.74c-1.29-1.82-8.51.6-10.49-.9-1.98-1.5-1.52-7.27-3.62-7.02-2.1.26-5.69,8.33-4.18,10.3,1.51,1.97,8.24,10.45,11.66,6.36Z" style="fill:#45c7ad;"/><path d="m261.96,302.79s-2.19.75-1.96,1.94c.23,1.19-.49,4.05.15,5.24s1.7,3.39,2.79,3.74c1.09.35,3.64-3.82,3.34-5.13s-1.71-7.02-4.32-5.77Z" style="fill:#4bd6ba;"/></g><circle cx="251.38" cy="311.35" r="16.53" style="fill:none; stroke:#a8e1ff; stroke-miterlimit:10;"/></g><g><circle cx="229.92" cy="521.85" r="11.54" style="fill:#e86e3c;"/><g style="clip-path:url(#d);"><path d="m222.23,507.63c1.22,9.66,5.32,18.78,16.16,26.65l-15.19,1.55-9.73-11.65,8.76-16.55Z" style="fill:#c96b44;"/></g><circle cx="229.92" cy="521.85" r="11.54" style="fill:none; stroke:#fba67b; stroke-miterlimit:10;"/></g><g><circle cx="686.2" cy="437.08" r="29.16" style="fill:#f7ab4f;"/><g style="clip-path:url(#e);"><path d="m730.78,429.39s-17.67,3.76-23.84,2.85c-6.17-.91-14.11-3.43-20.23-2.77-6.12.66-16.38,7.83-26.42-.25-7.84-6.31-14.44-1.13-14.44-1.13,0,0-5.31,12.47-5.1,15.89.21,3.42,18.52-.56,23.63-1.47,5.11-.91,6.22,1.83,16.22,1.38,10-.46,14.86-3.12,24.44-2.09,9.58,1.03,23.36,4.81,28.38,2.41,5.02-2.39-2.64-14.82-2.64-14.82Z" style="fill:#d9bb97;"/><path d="m655.96,432.42s12.78,2.26,17.24,1.71c4.46-.55,8.39-2.84,12.82-2.45,4.42.39,12.43,3.34,21.51,2.24,9.08-1.1,9.85-2.29,9.85-2.29,0,0,3.84,7.49,3.69,9.55s-13.08-1.16-16.78-1.71c-3.69-.55-3.39,3.08-10.62,2.81-7.24-.27-8.62-4.25-15.55-3.63-6.93.62-20.44,4.11-24.08,2.67-3.63-1.44,1.91-8.9,1.91-8.9Z" style="fill:#ded0be;"/><path d="m718.02,415.48s-13.77.96-18.58.73c-4.81-.23-7.23-2.5-12-2.33-4.77.17-15.2,2.71-24.99,2.25-9.79-.47-10.62-.97-10.62-.97,0,0-4.14,3.19-3.98,4.06.16.87,14.1-.5,18.08-.73,3.98-.23,3.65,1.31,11.45,1.19,7.8-.12,7.06-2.34,14.52-2.08,7.47.26,24.26,2.28,28.18,1.67,3.91-.61-2.06-3.79-2.06-3.79Z" style="fill:#ded0be;"/><path d="m718.85,454.65s-13.77.96-18.58.73-9.04-1.21-13.81-1.04c-4.77.17-13.39,1.42-23.18.95-9.79-.47-10.62-.97-10.62-.97,0,0-4.14,3.19-3.98,4.06.16.87,14.1-.5,18.08-.73s3.65,1.31,11.45,1.19c7.8-.12,9.29-1.81,16.75-1.54,7.47.26,22.03,1.75,25.95,1.14,3.91-.61-2.06-3.79-2.06-3.79Z" style="fill:#d9bb97;"/><path d="m678.3,476.34c15.09-20.51,23.64-46.65,9.42-78.2l32.62,20.62,1.19,38.34-43.23,19.24Z" style="fill:#e68a35; opacity:.75;"/></g><circle cx="686.2" cy="437.08" r="29.16" style="fill:none; stroke:#ffcd59; stroke-miterlimit:10;"/></g><g><circle cx="505.43" cy="268.32" r="15.16" style="fill:#e87b4f;"/><g style="clip-path:url(#f);"><path d="m520.97,282.8c-5.58-11.51-14.5-21.16-31.31-26.4l18.27-8.3,17.01,10.42-3.97,24.28Z" style="fill:#c96b44;"/></g><circle cx="505.43" cy="268.32" r="15.16" style="fill:none; stroke:#fbb03b; stroke-miterlimit:10;"/></g><g><path d="m417.25,690.32c-21.25-16.56-40.45-27.45-42.9-24.31l5.03,3.92c2.12-2.73,18.82,6.74,37.29,21.13,18.47,14.4,31.72,28.28,29.59,31l5.03,3.92c2.44-3.14-12.8-19.11-34.05-35.67Z" style="fill:#e0b469;"/><path d="m415.57,692.47c-13.2-10.29-25.13-17.05-26.65-15.1l3.13,2.44c1.32-1.69,11.69,4.18,23.16,13.13,11.47,8.94,19.7,17.57,18.38,19.26l3.13,2.44c1.52-1.95-7.95-11.87-21.15-22.16Z" style="fill:#b38e54;"/><path d="m415.57,692.47c13.2,10.29,22.67,20.21,21.15,22.16l9.54,7.44c2.12-2.73-11.12-16.61-29.59-31-18.47-14.4-35.16-23.86-37.29-21.13l9.54,7.44c1.52-1.95,13.45,4.81,26.65,15.1Z" style="fill:#f7e0b7;"/><g><circle cx="414.19" cy="697.06" r="17.53" style="fill:#fbc878;"/><g style="clip-path:url(#g);"><path d="m433.53,702.55c-10.5-6.22-20.18-13.83-29.14-22.71l3.68-4.72c8.67,8.81,18.39,16.37,29.14,22.71l-3.68,4.72Z" style="fill:#e0b469;"/><path d="m434.94,700.49c-10.19-6.74-19.89-14.34-29.14-22.71l.49-.62c9.27,8.59,18.31,15.67,29.14,22.71l-.49.62Z" style="fill:#e0cba6;"/><path d="m421.88,717.07c-11.23-5.28-20.89-12.93-29.14-22.71l6.49-8.33c7.91,9.79,17.64,17.34,29.14,22.71l-6.49,8.33Z" style="fill:#e0b469;"/><path d="m423.02,715.36c-10.15-6.79-19.86-14.38-29.14-22.71l.9-1.15c9.39,8.61,18.44,15.68,29.14,22.71l-.9,1.15Z" style="fill:#e0cba6;"/><path d="m389.68,695.41c13.4,6.27,28.44,8.41,47.35.87l-10.34,20.77-22.86,3.05-14.14-24.68Z" style="fill:#b38f54; opacity:.75;"/></g></g><path d="m410.43,699.06c11.47,8.94,21.84,14.82,23.16,13.13l-41.55-32.39c-1.32,1.69,6.91,10.32,18.38,19.26Z" style="fill:none;"/><path d="m415.21,692.93c-11.47-8.94-21.84-14.82-23.16-13.13l41.55,32.39c1.32-1.69-6.91-10.32-18.38-19.26Z" style="fill:none;"/><path d="m408.97,700.93c-18.47-14.4-31.72-28.28-29.59-31l-5.03-3.92c-2.44,3.14,12.8,19.11,34.05,35.67,21.25,16.56,40.45,27.45,42.9,24.31l-5.03-3.92c-2.12,2.73-18.82-6.74-37.29-21.13Z" style="fill:#e0b469;"/><path d="m410.43,699.06c-11.47-8.94-19.7-17.57-18.38-19.26l-3.13-2.44c-1.52,1.95,7.95,11.87,21.15,22.16,13.2,10.29,25.13,17.05,26.65,15.1l-3.13-2.44c-1.32,1.69-11.69-4.18-23.16-13.13Z" style="fill:#b38e54;"/><path d="m408.97,700.93c18.47,14.4,35.16,23.86,37.29,21.13l-9.54-7.44c-1.52,1.95-13.45-4.81-26.65-15.1-13.2-10.29-22.67-20.21-21.15-22.16l-9.54-7.44c-2.12,2.73,11.12,16.61,29.59,31Z" style="fill:#f7e0b7;"/></g><g><path d="m279.89,96.46c11.12,3.94,20.61,5.8,21.19,4.16l-2.63-.93c-.51,1.43-8.75-.19-18.42-3.61-9.67-3.42-17.09-7.35-16.59-8.78l-2.63-.93c-.58,1.64,7.96,6.16,19.08,10.1Z" style="fill:#41bfb3;"/><path d="m279.89,96.46c-11.12-3.94-19.67-8.46-19.08-10.1l-8.04-2.85c-.81,2.3,11.14,8.62,26.7,14.13,15.56,5.51,28.83,8.11,29.65,5.82l-8.04-2.85c-.58,1.64-10.07-.22-21.19-4.16Z" style="fill:#4fe8d9;"/><g><circle cx="279.79" cy="93.08" r="12.36" style="fill:#4fe8d9;"/><g style="clip-path:url(#h);"><path d="m265.63,93.72c8.41,1.82,16.58,4.75,24.55,8.69l-1.41,3.97c-7.76-3.96-15.95-6.85-24.55-8.69l1.41-3.97Z" style="fill:#41bfb3;"/><path d="m265.15,95.41c8.32,2.24,16.5,5.15,24.55,8.69l-.19.52c-8.12-3.68-15.74-6.4-24.55-8.69l.19-.52Z" style="fill:#4fe8d9;"/><path d="m270.18,81.41c8.69,1.03,16.85,3.99,24.55,8.69l-2.49,7.02c-7.47-4.79-15.66-7.67-24.55-8.69l2.49-7.02Z" style="fill:#41bfb3;"/><path d="m269.8,82.81c8.3,2.27,16.49,5.18,24.55,8.69l-.34.97c-8.2-3.67-15.83-6.37-24.55-8.69l.34-.97Z" style="fill:#4fe8d9;"/><path d="m296.54,88.72c-10.36-1.2-20.89.72-31.85,9.98l2.29-16.19,14.61-7.13,14.96,13.35Z" style="fill:#3bada3;"/></g></g><path d="m281.85,90.9c-9.67-3.42-17.91-5.04-18.42-3.61l35,12.39c.51-1.43-6.92-5.36-16.59-8.78Z" style="fill:none;"/><path d="m280.02,96.07c9.67,3.42,17.91,5.04,18.42,3.61l-35-12.39c-.51,1.43,6.92,5.36,16.59,8.78Z" style="fill:none;"/><path d="m281.85,90.9c9.67,3.42,17.09,7.35,16.59,8.78l2.63.93c.58-1.64-7.96-6.16-19.08-10.1-11.12-3.94-20.61-5.8-21.19-4.16l2.63.93c.51-1.43,8.75.19,18.42,3.61Z" style="fill:#41bfb3;"/><path d="m282.41,89.33c-15.56-5.51-28.83-8.11-29.65-5.82l8.04,2.85c.58-1.64,10.07.22,21.19,4.16,11.12,3.94,19.67,8.46,19.08,10.1l8.04,2.85c.81-2.3-11.14-8.62-26.7-14.13Z" style="fill:#4fe8d9;"/></g><rect x="630.77" y="471.91" width="96.86" height="28.39" rx="6" ry="6" style="fill:#fff;"/><text transform="translate(646.2 494.35)" style="fill:#1a1a1a; font-family:SegoeUI, &apos;Segoe UI&apos;; font-size:22.28px;"><tspan x="0" y="0">Jupiter</tspan></text><rect x="456.44" y="290.72" width="97.96" height="28.39" rx="6" ry="6" style="fill:#fff;"/><rect x="375.55" y="327.88" width="97.96" height="28.39" rx="4.25" ry="4.25" style="fill:#fff;"/><text transform="translate(470.23 313.16)" style="fill:#1a1a1a; font-family:SegoeUI, &apos;Segoe UI&apos;; font-size:22.28px;"><tspan x="0" y="0" style="letter-spacing:-.06em;">V</tspan><tspan x="12.42" y="0">enuše</tspan></text><circle cx="474.56" cy="505.16" r="7.44" style="fill:#f79439;"/><rect x="426.13" y="519.19" width="96.86" height="28.39" rx="6" ry="6" style="fill:#fff;"/><text transform="translate(439.15 541.63)" style="fill:#1a1a1a; font-family:SegoeUI, &apos;Segoe UI&apos;; font-size:22.28px;"><tspan x="0" y="0">Merkur</tspan></text><rect x="366.7" y="725.99" width="94.97" height="28.39" rx="6" ry="6" style="fill:#fff;"/><text transform="translate(382.35 748.43)" style="fill:#1a1a1a; font-family:SegoeUI, &apos;Segoe UI&apos;; font-size:22.28px;"><tspan x="0" y="0">Saturn</tspan></text><rect x="192.75" y="537.86" width="78.35" height="28.39" rx="6" ry="6" style="fill:#fff;"/><text transform="translate(207.66 560.3)" style="fill:#1a1a1a; font-family:SegoeUI, &apos;Segoe UI&apos;; font-size:22.28px;"><tspan x="0" y="0">Mars</tspan></text><rect x="207.94" y="333.17" width="90.88" height="28.39" rx="6" ry="6" style="fill:#fff;"/><text transform="translate(225.78 355.61)" style="fill:#1a1a1a; font-family:SegoeUI, &apos;Segoe UI&apos;; font-size:22.28px;"><tspan x="0" y="0">Země</tspan></text><rect x="239.57" y="112.6" width="82.73" height="28.39" rx="6" ry="6" style="fill:#fff;"/><text transform="translate(257.44 135.04)" style="fill:#1a1a1a; font-family:SegoeUI, &apos;Segoe UI&apos;; font-size:22.28px;"><tspan x="0" y="0">Uran</tspan></text><text transform="translate(392.58 350.32)" style="fill:#1a1a1a; font-family:SegoeUI-Semibold, &apos;Segoe UI&apos;; font-size:22.28px; font-weight:600;"><tspan x="0" y="0">Slunce</tspan></text><g><g><circle cx="131.54" cy="483.82" r="11.91" style="fill:#1e73c7;"/><g style="clip-path:url(#i);"><path d="m149.74,480.68s-7.21,1.54-9.73,1.16c-2.52-.37-5.76-1.4-8.26-1.13-2.5.27-6.69,3.2-10.79-.1-3.2-2.57-5.9-.46-5.9-.46,0,0-2.17,5.09-2.08,6.49.08,1.4,7.56-.23,9.65-.6,2.09-.37,2.54.75,6.62.56,4.09-.19,6.07-1.27,9.98-.85,3.91.42,9.54,1.96,11.59.98,2.05-.98-1.08-6.05-1.08-6.05Z" style="fill:#4fb2e8;"/><path d="m119.19,482.5s5.22.63,7.04.48c1.82-.15,3.43-.79,5.23-.68,1.81.11,5.08.93,8.78.63,3.71-.31,4.02-.64,4.02-.64,0,0,1.57,2.09,1.51,2.66-.06.57-5.34-.32-6.85-.48-1.51-.15-1.38.86-4.34.78s-3.52-1.18-6.35-1.01c-2.83.17-8.35,1.15-9.83.74-1.48-.4.78-2.48.78-2.48Z" style="fill:#1e73c7;"/><path d="m144.53,475s-5.62.39-7.59.3c-1.96-.1-2.95-1.02-4.9-.95-1.95.07-6.21,1.11-10.2.92-4-.19-4.34-.4-4.34-.4,0,0-1.69,1.3-1.62,1.66s5.76-.2,7.38-.3c1.63-.1,1.49.54,4.67.49,3.18-.05,2.88-.96,5.93-.85,3.05.11,9.91.93,11.51.68s-.84-1.55-.84-1.55Z" style="fill:#4fb2e8;"/><path d="m144.87,490.99s-5.62.39-7.59.3c-1.96-.1-3.69-.49-5.64-.43-1.95.07-5.47.58-9.47.39-4-.19-4.34-.4-4.34-.4,0,0-1.69,1.3-1.62,1.66.07.36,5.76-.2,7.38-.3,1.63-.1,1.49.54,4.67.49,3.18-.05,3.79-.74,6.84-.63,3.05.11,9,.71,10.59.46,1.6-.25-.84-1.55-.84-1.55Z" style="fill:#469ecf;"/><path d="m128.31,499.85c6.16-8.37,9.65-19.05,3.85-31.93l13.32,8.42.48,15.66-17.65,7.86Z" style="fill:#2b62a8; opacity:.75;"/></g><circle cx="131.54" cy="483.82" r="11.91" style="fill:none; stroke:#97cbe8; stroke-miterlimit:10;"/></g><rect x="78.82" y="500.3" width="105.43" height="28.39" rx="6" ry="6" style="fill:#fff;"/><text transform="translate(94.45 522.74)" style="fill:#1a1a1a; font-family:SegoeUI, &apos;Segoe UI&apos;; font-size:22.28px;"><tspan x="0" y="0">Neptun</tspan></text></g></g><text transform="translate(371.67 469.67)"><tspan><tspan x="0" y="0" style="fill:#b91eed; font-family:SegoeUI-Bold, &apos;Segoe UI&apos;; font-size:48px; font-weight:700;">E</tspan><tspan x="25.55" y="0" xml:space="preserve" style="fill:#999; font-family:SegoeUI-Semibold, &apos;Segoe UI&apos;; font-size:45.84px; font-weight:600;"> S </tspan><tspan x="75.7" y="0" style="fill:#6ac439; font-family:SegoeUI-Bold, &apos;Segoe UI&apos;; font-size:48px; font-weight:700;">F</tspan></tspan></text><g><g><circle cx="419" cy="400.62" r="6.53" style="fill:#fff;"/><path d="m419,395.09c3.05,0,5.53,2.48,5.53,5.53s-2.48,5.53-5.53,5.53-5.53-2.48-5.53-5.53,2.48-5.53,5.53-5.53m0-2c-4.15,0-7.53,3.38-7.53,7.53s3.38,7.53,7.53,7.53,7.53-3.38,7.53-7.53-3.38-7.53-7.53-7.53h0Z" style="fill:#b91eed;"/></g><g><circle cx="425" cy="400.62" r="6.53" style="fill:#fff;"/><path d="m425,395.09c3.05,0,5.53,2.48,5.53,5.53s-2.48,5.53-5.53,5.53-5.53-2.48-5.53-5.53,2.48-5.53,5.53-5.53m0-2c-4.15,0-7.53,3.38-7.53,7.53s3.38,7.53,7.53,7.53,7.53-3.38,7.53-7.53-3.38-7.53-7.53-7.53h0Z" style="fill:#6ac439;"/></g><circle cx="422" cy="400.62" r="4" style="fill:#999;"/></g></svg>