<?xml version="1.0" encoding="UTF-8"?><svg id="a" xmlns="http://www.w3.org/2000/svg" viewBox="0 0 844 276.62"><path d="m104.5,178.87s116.98,82.51,313.98-38.49c197-121,321.02,0,321.02,0" style="fill:none; stroke:#45abff; stroke-linecap:round; stroke-miterlimit:10; stroke-width:8px;"/><g><path d="m481.03,81.69c61.59-24.59,114-25.6,155.19-17.53" style="fill:none; stroke:#999; stroke-linecap:round; stroke-miterlimit:10; stroke-width:2px;"/><polygon points="625.5 73.62 670.39 73.56 631.48 51.16 625.5 73.62" style="fill:#999;"/></g><g><path d="m189.63,178.24c35.92,3.38,82.53-.02,138.49-20.43" style="fill:none; stroke:#999; stroke-linecap:round; stroke-miterlimit:10; stroke-width:2px;"/><polygon points="195.67 190.68 154.68 172.35 199.34 167.73 195.67 190.68" style="fill:#999;"/></g><text transform="translate(236.74 165.61) rotate(-5.59)" style="fill:#1a1a1a; font-family:SegoeUI-Semibold, &apos;Segoe UI&apos;; font-size:18px; font-weight:600;"><tspan x="0" y="0">d</tspan></text><text transform="translate(247.54 164.55) rotate(-7.61)" style="fill:#1a1a1a; font-family:SegoeUI-Semibold, &apos;Segoe UI&apos;; font-size:18px; font-weight:600;"><tspan x="0" y="0">o</tspan></text><text transform="translate(258.12 163.12) rotate(-9.32)" style="fill:#1a1a1a; font-family:SegoeUI-Semibold, &apos;Segoe UI&apos;; font-size:18px; font-weight:600;"><tspan x="0" y="0">z</tspan></text><text transform="translate(266.29 161.78) rotate(-10.86)" style="fill:#1a1a1a; font-family:SegoeUI-Semibold, &apos;Segoe UI&apos;; font-size:18px; font-weight:600;"><tspan x="0" y="0">a</tspan></text><text transform="translate(275.42 160.04) rotate(-12.55)" style="fill:#1a1a1a; font-family:SegoeUI-Semibold, &apos;Segoe UI&apos;; font-size:18px; font-weight:600;"><tspan x="0" y="0">d</tspan></text><text transform="translate(285.95 157.69) rotate(-14.28)" style="fill:#1a1a1a; font-family:SegoeUI-Semibold, &apos;Segoe UI&apos;; font-size:18px; font-weight:600;"><tspan x="0" y="0">u</tspan></text><text transform="translate(518.72 56.19) rotate(-13.84)" style="fill:#1a1a1a; font-family:SegoeUI-Semibold, &apos;Segoe UI&apos;; font-size:18px; font-weight:600;"><tspan x="0" y="0">d</tspan></text><text transform="translate(529.16 53.61) rotate(-11.77)" style="fill:#1a1a1a; font-family:SegoeUI-Semibold, &apos;Segoe UI&apos;; font-size:18px; font-weight:600;"><tspan x="0" y="0">o</tspan></text><text transform="translate(539.58 51.44) rotate(-9.63)" style="fill:#1a1a1a; font-family:SegoeUI-Semibold, &apos;Segoe UI&apos;; font-size:18px; font-weight:600;"><tspan x="0" y="0">p</tspan></text><text transform="translate(550.17 49.67) rotate(-7.84)" style="fill:#1a1a1a; font-family:SegoeUI-Semibold, &apos;Segoe UI&apos;; font-size:18px; font-weight:600;"><tspan x="0" y="0">ř</tspan></text><text transform="translate(556.48 48.78) rotate(-6.19)" style="fill:#1a1a1a; font-family:SegoeUI-Semibold, &apos;Segoe UI&apos;; font-size:18px; font-weight:600;"><tspan x="0" y="0">e</tspan></text><text transform="translate(565.87 47.74) rotate(-4.01)" style="fill:#1a1a1a; font-family:SegoeUI-Semibold, &apos;Segoe UI&apos;; font-size:18px; font-weight:600;"><tspan x="0" y="0">d</tspan></text><text transform="translate(576.59 46.99) rotate(-1.68)" style="fill:#1a1a1a; font-family:SegoeUI-Semibold, &apos;Segoe UI&apos;; font-size:18px; font-weight:600;"><tspan x="0" y="0">u</tspan></text></svg>