<?xml version="1.0" encoding="UTF-8"?><svg id="a" xmlns="http://www.w3.org/2000/svg" viewBox="0 0 568.01 424.26"><path d="m96.3,197.87v-12.79c0-5.16,5.39-9.34,12.03-9.34h163.65c6.64,0,12.03,4.18,12.03,9.34v12.79" style="fill:none; stroke:#fbb03b; stroke-linecap:round; stroke-miterlimit:10; stroke-width:2px;"/><path d="m284.01,197.87v-12.79c0-5.16,5.39-9.34,12.03-9.34h163.65c6.64,0,12.03,4.18,12.03,9.34v12.79" style="fill:none; stroke:#fbb03b; stroke-linecap:round; stroke-miterlimit:10; stroke-width:2px;"/><path d="m284.01,8c152.19,0,276.01,91.57,276.01,204.13s-123.82,204.13-276.01,204.13S8,324.68,8,212.13,131.82,8,284.01,8M284.01,0C127.15,0,0,94.97,0,212.13s127.15,212.13,284.01,212.13,284.01-94.97,284.01-212.13S440.86,0,284.01,0h0Z" style="fill:#3fa9f5;"/><circle cx="96.3" cy="212.13" r="6.54" style="fill:#999;"/><circle cx="284.01" cy="212.13" r="6.54" style="fill:#999;"/><circle cx="473.28" cy="212.13" r="6.54" style="fill:#999;"/><text transform="translate(270.94 281.4)" style="fill:#999; font-family:SegoeUI-Semibold, &apos;Segoe UI&apos;; font-size:48px; font-weight:600;"><tspan x="0" y="0">S</tspan></text><text transform="translate(83.87 281.4)" style="fill:#999; font-family:SegoeUI-Semibold, &apos;Segoe UI&apos;; font-size:48px; font-weight:600;"><tspan x="0" y="0">E</tspan></text><text transform="translate(461.22 281.4)" style="fill:#999; font-family:SegoeUI-Semibold, &apos;Segoe UI&apos;; font-size:48px; font-weight:600;"><tspan x="0" y="0">F</tspan></text><text transform="translate(134.42 142.58)" style="fill:#fbb03b; font-family:SegoeUI-Semibold, &apos;Segoe UI&apos;; font-size:24px; font-weight:600;"><tspan x="0" y="0">výst</tspan><tspan x="43.39" y="0" style="letter-spacing:-.01em;">ř</tspan><tspan x="52" y="0">ednost </tspan></text><text transform="translate(314.58 142.58)" style="fill:#fbb03b; font-family:SegoeUI-Semibold, &apos;Segoe UI&apos;; font-size:24px; font-weight:600;"><tspan x="0" y="0">výst</tspan><tspan x="43.39" y="0" style="letter-spacing:-.01em;">ř</tspan><tspan x="52" y="0">ednost </tspan></text><text transform="translate(177.17 106.21)" style="fill:#fbb03b; font-family:SegoeUI-Bold, &apos;Segoe UI&apos;; font-size:48px; font-weight:700;"><tspan x="0" y="0">e</tspan></text><text transform="translate(364.88 106.21)" style="fill:#fbb03b; font-family:SegoeUI-Bold, &apos;Segoe UI&apos;; font-size:48px; font-weight:700;"><tspan x="0" y="0">e</tspan></text><line x1="190.15" y1="175.75" x2="190.15" y2="157.83" style="fill:none; stroke:#fbb03b; stroke-linecap:round; stroke-miterlimit:10; stroke-width:2px;"/><line x1="377.86" y1="175.75" x2="377.86" y2="157.83" style="fill:none; stroke:#fbb03b; stroke-linecap:round; stroke-miterlimit:10; stroke-width:2px;"/></svg>