<?xml version="1.0" encoding="UTF-8"?><svg id="a" xmlns="http://www.w3.org/2000/svg" viewBox="0 0 568.01 751.96"><line x1="44.22" y1="492.66" x2="44.22" y2="739.46" style="fill:#fff; stroke:#ccc; stroke-miterlimit:10;"/><line x1="524.64" y1="492.66" x2="524.64" y2="739.46" style="fill:#fff; stroke:#ccc; stroke-miterlimit:10;"/><line x1="444.51" y1="492.66" x2="444.51" y2="616.06" style="fill:#fff; stroke:#ccc; stroke-miterlimit:10;"/><line x1="284.01" y1="616.06" x2="284.01" y2="739.46" style="fill:#fff; stroke:#ccc; stroke-miterlimit:10;"/><line x1="284.43" y1="184.98" x2="444.51" y2="184.98" style="fill:none; stroke:#fbb03b; stroke-dasharray:0 8; stroke-linecap:round; stroke-miterlimit:10; stroke-width:4px;"/><line x1="284.43" y1="184.98" x2="44.22" y2="184.98" style="fill:none; stroke:#1bcc9a; stroke-dasharray:0 8; stroke-linecap:round; stroke-miterlimit:10; stroke-width:4px;"/><line x1="444.51" y1="184.98" x2="524.64" y2="184.98" style="fill:#fff; stroke:#f1503d; stroke-dasharray:0 8; stroke-linecap:round; stroke-miterlimit:10; stroke-width:4px;"/><ellipse cx="284.43" cy="184.98" rx="240.21" ry="179.41" style="fill:none; stroke:#999; stroke-miterlimit:10; stroke-width:8px;"/><circle cx="125.67" cy="184.98" r="5.53" style="fill:#999;"/><g><path d="m524.61,192.51c-4.15,0-7.53-3.38-7.53-7.53s3.38-7.53,7.53-7.53,7.53,3.38,7.53,7.53-3.38,7.53-7.53,7.53Z" style="fill:#fff;"/><path d="m524.61,179.46c3.05,0,5.53,2.48,5.53,5.53s-2.48,5.53-5.53,5.53-5.53-2.48-5.53-5.53,2.48-5.53,5.53-5.53m0-4c-5.25,0-9.53,4.28-9.53,9.53s4.28,9.53,9.53,9.53,9.53-4.28,9.53-9.53-4.28-9.53-9.53-9.53h0Z" style="fill:#45abff;"/></g><circle cx="444.51" cy="184.98" r="5.53" style="fill:#999;"/><text transform="translate(113.8 243.75)" style="fill:#999; font-family:SegoeUI-Semibold, &apos;Segoe UI&apos;; font-size:45.84px; font-weight:600;"><tspan x="0" y="0">E</tspan></text><text transform="translate(532.43 243.75)" style="fill:#45abff; font-family:SegoeUI-Bold, &apos;Segoe UI&apos;; font-size:45.84px; font-weight:700;"><tspan x="0" y="0">A</tspan></text><text transform="translate(433 243.75)" style="fill:#999; font-family:SegoeUI-Semibold, &apos;Segoe UI&apos;; font-size:45.84px; font-weight:600;"><tspan x="0" y="0">F</tspan></text><text transform="translate(271.95 243.75)" style="fill:#999; font-family:SegoeUI-Semibold, &apos;Segoe UI&apos;; font-size:45.84px; font-weight:600;"><tspan x="0" y="0">S</tspan></text><text transform="translate(151.99 157.29)" style="fill:#1bcc9a; font-family:SegoeUI-Bold, &apos;Segoe UI&apos;; font-size:45.84px; font-weight:700;"><tspan x="0" y="0">a</tspan></text><text transform="translate(352.07 157.29)" style="fill:#fbb03b; font-family:SegoeUI-Bold, &apos;Segoe UI&apos;; font-size:45.84px; font-weight:700;"><tspan x="0" y="0">e</tspan></text><circle cx="284.43" cy="184.98" r="6.24" style="fill:#999;"/><line x1="444.51" y1="615.17" x2="524.64" y2="615.17" style="fill:#fff; stroke:#f1503d; stroke-dasharray:0 8; stroke-linecap:round; stroke-miterlimit:10; stroke-width:4px;"/><g><line x1="284.43" y1="615.17" x2="280.43" y2="615.17" style="fill:none; stroke:#1bcc9a; stroke-linecap:round; stroke-miterlimit:10; stroke-width:4px;"/><line x1="272.42" y1="615.17" x2="52.23" y2="615.17" style="fill:none; stroke:#1bcc9a; stroke-dasharray:0 0 8.01 8.01; stroke-linecap:round; stroke-miterlimit:10; stroke-width:4px;"/><line x1="48.22" y1="615.17" x2="44.22" y2="615.17" style="fill:none; stroke:#1bcc9a; stroke-linecap:round; stroke-miterlimit:10; stroke-width:4px;"/></g><text transform="translate(151.99 578.84)" style="fill:#1bcc9a; font-family:SegoeUI-Bold, &apos;Segoe UI&apos;; font-size:45.84px; font-weight:700;"><tspan x="0" y="0">a</tspan></text><text transform="translate(450.58 586.63)" style="font-family:SegoeUI-Bold, &apos;Segoe UI&apos;; font-size:45.84px; font-weight:700;"><tspan x="0" y="0" style="fill:#1bcc9a;">a</tspan><tspan x="24.66" y="0" style="fill:#999;">-</tspan><tspan x="43.2" y="0" style="fill:#fbb03b;">e</tspan></text><line x1="284.43" y1="615.17" x2="444.51" y2="615.17" style="fill:none; stroke:#fbb03b; stroke-dasharray:0 8; stroke-linecap:round; stroke-miterlimit:10; stroke-width:4px;"/><text transform="translate(352.07 586.63)" style="fill:#fbb03b; font-family:SegoeUI-Bold, &apos;Segoe UI&apos;; font-size:45.84px; font-weight:700;"><tspan x="0" y="0">e</tspan></text><line x1="44.22" y1="602.67" x2="44.22" y2="627.67" style="fill:none; stroke:#999; stroke-linecap:round; stroke-miterlimit:10; stroke-width:4px;"/><line x1="284.01" y1="602.67" x2="284.01" y2="627.67" style="fill:none; stroke:#999; stroke-linecap:round; stroke-miterlimit:10; stroke-width:4px;"/><line x1="444.51" y1="602.67" x2="444.51" y2="627.67" style="fill:none; stroke:#999; stroke-linecap:round; stroke-miterlimit:10; stroke-width:4px;"/><line x1="524.64" y1="602.67" x2="524.64" y2="627.67" style="fill:none; stroke:#999; stroke-linecap:round; stroke-miterlimit:10; stroke-width:4px;"/><g><line x1="444.51" y1="492.66" x2="524.64" y2="492.66" style="fill:#fff; stroke:#f1503d; stroke-dasharray:0 8; stroke-linecap:round; stroke-miterlimit:10; stroke-width:4px;"/><line x1="44.22" y1="492.66" x2="444.51" y2="492.5" style="fill:#fff; stroke:#999; stroke-dasharray:0 8; stroke-linecap:round; stroke-miterlimit:10; stroke-width:4px;"/><text transform="translate(211.64 459.09)" style="font-family:SegoeUI-Bold, &apos;Segoe UI&apos;; font-size:22.92px; font-weight:700;"><tspan x="0" y="0" style="fill:#999;">|</tspan><tspan x="7.48" y="0" style="fill:#999; letter-spacing:.01em;">E</tspan><tspan x="20" y="0" style="fill:#45abff;">A</tspan><tspan x="36.11" y="0" style="fill:#999;">|</tspan></text><text transform="translate(463.7 459.09)" style="font-family:SegoeUI-Bold, &apos;Segoe UI&apos;; font-size:22.92px; font-weight:700;"><tspan x="0" y="0" style="fill:#999;">|</tspan><tspan x="7.48" y="0" style="fill:#999; letter-spacing:-.05em;">F</tspan><tspan x="18.15" y="0" style="fill:#45abff;">A</tspan><tspan x="34.27" y="0" style="fill:#999;">|</tspan></text><line x1="44.22" y1="479.84" x2="44.22" y2="504.84" style="fill:none; stroke:#999; stroke-linecap:round; stroke-miterlimit:10; stroke-width:4px;"/><line x1="444.51" y1="479.84" x2="444.51" y2="504.84" style="fill:none; stroke:#999; stroke-linecap:round; stroke-miterlimit:10; stroke-width:4px;"/><line x1="524.64" y1="479.84" x2="524.64" y2="504.84" style="fill:none; stroke:#999; stroke-linecap:round; stroke-miterlimit:10; stroke-width:4px;"/></g><g><line x1="284.43" y1="739.46" x2="280.43" y2="739.46" style="fill:none; stroke:#1bcc9a; stroke-linecap:round; stroke-miterlimit:10; stroke-width:4px;"/><line x1="272.42" y1="739.46" x2="52.23" y2="739.46" style="fill:none; stroke:#1bcc9a; stroke-dasharray:0 0 8.01 8.01; stroke-linecap:round; stroke-miterlimit:10; stroke-width:4px;"/><line x1="48.22" y1="739.46" x2="44.22" y2="739.46" style="fill:none; stroke:#1bcc9a; stroke-linecap:round; stroke-miterlimit:10; stroke-width:4px;"/></g><g><line x1="521.14" y1="739.46" x2="517.14" y2="739.46" style="fill:none; stroke:#1bcc9a; stroke-linecap:round; stroke-miterlimit:10; stroke-width:4px;"/><line x1="509.13" y1="739.46" x2="288.94" y2="739.46" style="fill:none; stroke:#1bcc9a; stroke-dasharray:0 0 8.01 8.01; stroke-linecap:round; stroke-miterlimit:10; stroke-width:4px;"/><line x1="284.93" y1="739.46" x2="280.93" y2="739.46" style="fill:none; stroke:#1bcc9a; stroke-linecap:round; stroke-miterlimit:10; stroke-width:4px;"/></g><text transform="translate(151.99 703.14)" style="fill:#1bcc9a; font-family:SegoeUI-Bold, &apos;Segoe UI&apos;; font-size:45.84px; font-weight:700;"><tspan x="0" y="0">a</tspan></text><text transform="translate(388.71 703.14)" style="fill:#1bcc9a; font-family:SegoeUI-Bold, &apos;Segoe UI&apos;; font-size:45.84px; font-weight:700;"><tspan x="0" y="0">a</tspan></text><line x1="44.22" y1="726.96" x2="44.22" y2="751.96" style="fill:none; stroke:#999; stroke-linecap:round; stroke-miterlimit:10; stroke-width:4px;"/><line x1="284.01" y1="726.96" x2="284.01" y2="751.96" style="fill:none; stroke:#999; stroke-linecap:round; stroke-miterlimit:10; stroke-width:4px;"/><line x1="524.64" y1="726.96" x2="524.64" y2="751.96" style="fill:none; stroke:#999; stroke-linecap:round; stroke-miterlimit:10; stroke-width:4px;"/></svg>