<?xml version="1.0" encoding="UTF-8"?><svg id="a" xmlns="http://www.w3.org/2000/svg" viewBox="0 0 424.26 424.26"><g><line x1="212.13" y1="212.13" x2="218.13" y2="212.13" style="fill:none; stroke:#999; stroke-linecap:round; stroke-miterlimit:10; stroke-width:2px;"/><line x1="229.9" y1="212.13" x2="412.37" y2="212.13" style="fill:none; stroke:#999; stroke-dasharray:0 0 11.77 11.77; stroke-linecap:round; stroke-miterlimit:10; stroke-width:2px;"/><line x1="418.26" y1="212.13" x2="424.26" y2="212.13" style="fill:none; stroke:#999; stroke-linecap:round; stroke-miterlimit:10; stroke-width:2px;"/></g><path d="m212.13,8c27.56,0,54.29,5.4,79.45,16.04,24.31,10.28,46.14,25,64.89,43.75,18.75,18.75,33.47,40.58,43.75,64.89,10.64,25.16,16.04,51.89,16.04,79.45s-5.4,54.29-16.04,79.45c-10.28,24.31-25,46.14-43.75,64.89s-40.58,33.47-64.89,43.75c-25.16,10.64-51.89,16.04-79.45,16.04s-54.29-5.4-79.45-16.04c-24.31-10.28-46.14-25-64.89-43.75s-33.47-40.58-43.75-64.89c-10.64-25.16-16.04-51.89-16.04-79.45s5.4-54.29,16.04-79.45c10.28-24.31,25-46.14,43.75-64.89,18.75-18.75,40.58-33.47,64.89-43.75,25.16-10.64,51.89-16.04,79.45-16.04M212.13,0C94.97,0,0,94.97,0,212.13s94.97,212.13,212.13,212.13,212.13-94.97,212.13-212.13S329.28,0,212.13,0h0Z" style="fill:#45abff;"/><g><path d="m212.13,222.67c-5.81,0-10.54-4.73-10.54-10.54s4.73-10.54,10.54-10.54,10.54,4.73,10.54,10.54-4.73,10.54-10.54,10.54Z" style="fill:#fff;"/><path d="m212.13,205.59c3.61,0,6.54,2.93,6.54,6.54s-2.93,6.54-6.54,6.54-6.54-2.93-6.54-6.54,2.93-6.54,6.54-6.54m0-8c-8.02,0-14.54,6.52-14.54,14.54s6.52,14.54,14.54,14.54,14.54-6.52,14.54-14.54-6.52-14.54-14.54-14.54h0Z" style="fill:#45abff;"/></g><text transform="translate(198.67 279.32)" style="fill:#45abff; font-family:SegoeUI-Bold, &apos;Segoe UI&apos;; font-size:48px; font-weight:700;"><tspan x="0" y="0">S</tspan></text><text transform="translate(308.64 198.83)" style="fill:#999; font-family:SegoeUI-Bold, &apos;Segoe UI&apos;; font-size:48px; font-weight:700;"><tspan x="0" y="0">r</tspan></text></svg>