<?xml version="1.0" encoding="UTF-8"?><svg id="a" xmlns="http://www.w3.org/2000/svg" viewBox="0 0 496.52 446.84"><g><path d="m219.4,395.47c-.29-.04-.49-.32-.44-.64l54.02-361.23c.03-.17.23-.33.45-.35s.38.11.35.28l-53.77,361.43c-.05.32-.32.54-.61.51Z" style="fill:#ccc;"/><path d="m114.87,382.14c-.26-.03-.41-.3-.34-.59L191.87,39.84c.04-.17.23-.32.43-.33s.33.11.3.28l-77.15,341.88c-.07.3-.33.51-.58.48Z" style="fill:#ccc;"/><path d="m338.11,410.61c-.33-.04-.58-.35-.56-.7l24.55-383.18c.01-.18.22-.34.46-.36s.43.11.42.3l-24.24,383.4c-.02.34-.31.59-.64.54Z" style="fill:#ccc;"/><path d="m466.46,189.73l-389.98-3.38c-.2,0-.32-.17-.26-.38s.28-.37.48-.37l389.73,3.2c.32,0,.58.21.59.47s-.24.47-.56.46Z" style="fill:#ccc;"/><path d="m463.52,98.06l-364.97,13.61c-.19,0-.31-.13-.25-.32s.25-.34.45-.34l364.75-13.75c.29-.01.53.16.54.38s-.22.41-.51.42Z" style="fill:#ccc;"/><path d="m469.94,298.03l-418.68-26.3c-.22-.01-.33-.22-.26-.46s.3-.42.52-.41l418.39,26.05c.34.02.63.29.64.6s-.26.54-.61.52Z" style="fill:#ccc;"/><path d="m474.8,428.04L21.72,370.26,117.82,45.31l343.64-26.51,13.34,409.23ZM22.84,369.37l450.54,57.15-12.87-406.95L118.32,45.85,22.84,369.37Z" style="fill:#ccc;"/></g><g><g><path d="m255.77,188.32l-5.47-.05c-.5,0-.85-.38-.78-.84s.53-.83,1.03-.82l5.46.04c.5,0,.86.38.79.84s-.53.83-1.04.83Z" style="fill:#999;"/><path d="m446.37,190.02l-13.1-.12c-.61,0-1.11-.42-1.11-.93s.49-.91,1.1-.91l13.08.1c.62,0,1.13.42,1.13.93s-.49.92-1.11.92Zm-26.02-.23l-12.76-.11c-.59,0-1.07-.42-1.06-.92s.5-.9,1.09-.9l12.74.1c.6,0,1.09.42,1.08.92s-.49.91-1.1.91Zm-25.34-.23l-12.43-.11c-.58,0-1.03-.41-1.01-.91s.5-.89,1.08-.89l12.41.1c.59,0,1.05.41,1.04.91s-.5.9-1.09.89Zm-24.69-.22l-12.11-.11c-.56,0-1-.41-.97-.89s.51-.88,1.07-.87l12.09.1c.57,0,1.02.41.99.9s-.51.89-1.08.88Zm-24.07-.21l-11.81-.11c-.55,0-.97-.4-.93-.88s.51-.87,1.06-.86l11.79.09c.56,0,.98.4.95.89s-.51.88-1.07.87Zm-23.47-.21l-11.51-.1c-.54,0-.93-.39-.89-.87s.52-.86,1.06-.85l11.5.09c.54,0,.95.4.91.87s-.52.86-1.06.86Zm-22.89-.2l-11.23-.1c-.52,0-.9-.39-.85-.86s.52-.85,1.05-.84l11.22.09c.53,0,.92.39.87.86s-.52.85-1.05.85Zm-22.33-.2l-10.96-.1c-.51,0-.87-.38-.81-.85s.53-.84,1.04-.83l10.95.09c.52,0,.89.39.83.85s-.53.84-1.04.84Z" style="fill:#999;"/><path d="m466.48,190.2l-6.83-.06c-.63,0-1.14-.43-1.16-.94s.48-.93,1.11-.92l6.82.05c.63,0,1.16.43,1.17.94s-.48.93-1.11.93Z" style="fill:#999;"/></g><path d="m218.8,399.5c-58.63-7.61-104.82-38.01-130.84-82.19-23.5-39.91-27.69-86.48-14.32-131.37,12.43-41.74,39.2-79.03,75.67-106.94,35.99-27.55,79.45-44.44,124.44-47.96,47.35-3.71,93.32,7.6,130.02,33.81,40.4,28.86,65.39,72.67,67.25,124.45,2.04,56.7-23.8,113.31-73.64,155.73-50.79,43.23-115.75,62.64-178.59,54.48Zm54.2-363.41c-87.66,6.63-169.87,69.42-193.44,149.9-27.26,93.06,28.4,190.35,140.61,204.32,128.71,16.03,245.05-83.43,241.72-201.1-2.78-98.28-91.79-160.47-188.89-153.12Z" style="fill:#45abff;"/><path d="m256.38,187.49c-.44,3.03-3.47,5.46-6.77,5.42s-5.57-2.52-5.1-5.52c.46-2.99,3.47-5.39,6.73-5.37s5.58,2.46,5.15,5.47Z" style="fill:#999;"/></g></svg>