<?xml version="1.0" encoding="UTF-8"?><svg id="a" xmlns="http://www.w3.org/2000/svg" viewBox="0 0 568.01 686.62"><line x1="535.55" y1="645.37" x2="428.75" y2="645.54" style="fill:#fff; stroke:#6ac439; stroke-dasharray:0 12; stroke-linecap:round; stroke-miterlimit:10; stroke-width:4px;"/><line x1="32.46" y1="645.71" x2="428.75" y2="645.54" style="fill:#fff; stroke:#45abff; stroke-dasharray:0 12; stroke-linecap:round; stroke-miterlimit:10; stroke-width:4px;"/><line x1="117.75" y1="245.06" x2="502.33" y2="338.48" style="fill:#fff; stroke:#45abff; stroke-dasharray:0 12; stroke-linecap:round; stroke-miterlimit:10; stroke-width:4px;"/><line x1="451.65" y1="245.06" x2="502.33" y2="338.48" style="fill:#fff; stroke:#6ac439; stroke-dasharray:0 12; stroke-linecap:round; stroke-miterlimit:10; stroke-width:4px;"/><line x1="169.95" y1="77.66" x2="451.65" y2="245.06" style="fill:none; stroke:#f1503d; stroke-dasharray:0 12; stroke-linecap:round; stroke-miterlimit:10; stroke-width:4px;"/><line x1="117.75" y1="245.06" x2="169.95" y2="77.66" style="fill:none; stroke:#fbb03b; stroke-dasharray:0 12; stroke-linecap:round; stroke-miterlimit:10; stroke-width:4px;"/><line x1="207.84" y1="516.55" x2="535.52" y2="516.83" style="fill:none; stroke:#f1503d; stroke-dasharray:0 12; stroke-linecap:round; stroke-miterlimit:10; stroke-width:4px;"/><line x1="32.49" y1="516.79" x2="207.84" y2="516.59" style="fill:none; stroke:#fbb03b; stroke-dasharray:0 12; stroke-linecap:round; stroke-miterlimit:10; stroke-width:4px;"/><ellipse cx="284.01" cy="245.06" rx="251.55" ry="187.88" style="fill:none; stroke:#999; stroke-miterlimit:10; stroke-width:8px;"/><circle cx="117.75" cy="245.06" r="5.79" style="fill:#999;"/><circle cx="32.46" cy="516.88" r="5.79" style="fill:#999;"/><g><circle cx="169.95" cy="77.66" r="7.79" style="fill:#fff;"/><path d="m169.95,71.86c3.2,0,5.79,2.59,5.79,5.79s-2.59,5.79-5.79,5.79-5.79-2.59-5.79-5.79,2.59-5.79,5.79-5.79m0-4c-5.4,0-9.79,4.39-9.79,9.79s4.39,9.79,9.79,9.79,9.79-4.39,9.79-9.79-4.39-9.79-9.79-9.79h0Z" style="fill:#1bcc9a;"/></g><g><circle cx="502.33" cy="338.48" r="7.79" style="fill:#fff;"/><path d="m502.33,332.69c3.2,0,5.79,2.59,5.79,5.79s-2.59,5.79-5.79,5.79-5.79-2.59-5.79-5.79,2.59-5.79,5.79-5.79m0-4c-5.4,0-9.79,4.39-9.79,9.79s4.39,9.79,9.79,9.79,9.79-4.39,9.79-9.79-4.39-9.79-9.79-9.79h0Z" style="fill:#b91eed;"/></g><g><path d="m207.84,524.43c-4.3,0-7.79-3.49-7.79-7.79s3.5-7.79,7.79-7.79,7.79,3.5,7.79,7.79-3.5,7.79-7.79,7.79Z" style="fill:#fff;"/><path d="m207.84,510.85c3.2,0,5.79,2.59,5.79,5.79s-2.59,5.79-5.79,5.79-5.79-2.59-5.79-5.79,2.59-5.79,5.79-5.79m0-4c-5.4,0-9.79,4.39-9.79,9.79s4.39,9.79,9.79,9.79,9.79-4.39,9.79-9.79-4.39-9.79-9.79-9.79h0Z" style="fill:#1bcc9a;"/></g><circle cx="451.65" cy="245.06" r="5.79" style="fill:#999;"/><circle cx="535.55" cy="516.54" r="5.79" style="fill:#999;"/><text transform="translate(105.33 306.6)" style="fill:#999; font-family:SegoeUI-Semibold, &apos;Segoe UI&apos;; font-size:48px; font-weight:600;"><tspan x="0" y="0">E</tspan></text><text transform="translate(20.07 492.51)" style="fill:#999; font-family:SegoeUI-Semibold, &apos;Segoe UI&apos;; font-size:48px; font-weight:600;"><tspan x="0" y="0">E</tspan></text><text transform="translate(147.41 51.64)" style="fill:#1bcc9a; font-family:SegoeUI-Bold, &apos;Segoe UI&apos;; font-size:48px; font-weight:700;"><tspan x="0" y="0">P</tspan></text><text transform="translate(511.56 383.76)" style="fill:#b91eed; font-family:SegoeUI-Bold, &apos;Segoe UI&apos;; font-size:48px; font-weight:700;"><tspan x="0" y="0">Q</tspan></text><text transform="translate(193.1 492.51)" style="fill:#1bcc9a; font-family:SegoeUI-Bold, &apos;Segoe UI&apos;; font-size:48px; font-weight:700;"><tspan x="0" y="0">P</tspan></text><text transform="translate(98.58 483.63)" style="fill:#fbb03b; font-family:SegoeUI-Bold, &apos;Segoe UI&apos;; font-size:24px; font-weight:700;"><tspan x="0" y="0">|EP|</tspan></text><text transform="translate(345.82 483.63)" style="fill:#f1503d; font-family:SegoeUI-Bold, &apos;Segoe UI&apos;; font-size:24px; font-weight:700;"><tspan x="0" y="0">|FP|</tspan></text><text transform="translate(439.59 306.6)" style="fill:#999; font-family:SegoeUI-Semibold, &apos;Segoe UI&apos;; font-size:48px; font-weight:600;"><tspan x="0" y="0">F</tspan></text><text transform="translate(523.49 492.51)" style="fill:#999; font-family:SegoeUI-Semibold, &apos;Segoe UI&apos;; font-size:48px; font-weight:600;"><tspan x="0" y="0">F</tspan></text><g><path d="m428.75,653.33c-4.3,0-7.79-3.49-7.79-7.79s3.5-7.79,7.79-7.79,7.79,3.5,7.79,7.79-3.5,7.79-7.79,7.79Z" style="fill:#fff;"/><path d="m428.75,639.75c3.2,0,5.79,2.59,5.79,5.79s-2.59,5.79-5.79,5.79-5.79-2.59-5.79-5.79,2.59-5.79,5.79-5.79m0-4c-5.4,0-9.79,4.39-9.79,9.79s4.39,9.79,9.79,9.79,9.79-4.39,9.79-9.79-4.39-9.79-9.79-9.79h0Z" style="fill:#b91eed;"/></g><circle cx="32.46" cy="645.71" r="5.79" style="fill:#999;"/><circle cx="535.55" cy="645.37" r="5.79" style="fill:#999;"/><text transform="translate(20.07 619.44)" style="fill:#999; font-family:SegoeUI-Semibold, &apos;Segoe UI&apos;; font-size:48px; font-weight:600;"><tspan x="0" y="0">E</tspan></text><text transform="translate(410.55 619.44)" style="fill:#b91eed; font-family:SegoeUI-Bold, &apos;Segoe UI&apos;; font-size:48px; font-weight:700;"><tspan x="0" y="0">Q</tspan></text><text transform="translate(207.29 610.56)" style="fill:#45abff; font-family:SegoeUI-Bold, &apos;Segoe UI&apos;; font-size:24px; font-weight:700;"><tspan x="0" y="0">|EQ|</tspan></text><text transform="translate(458.98 610.56)" style="fill:#6ac439; font-family:SegoeUI-Bold, &apos;Segoe UI&apos;; font-size:24px; font-weight:700;"><tspan x="0" y="0">|FQ|</tspan></text><text transform="translate(523.49 619.44)" style="fill:#999; font-family:SegoeUI-Semibold, &apos;Segoe UI&apos;; font-size:48px; font-weight:600;"><tspan x="0" y="0">F</tspan></text></svg>