<?xml version="1.0" encoding="UTF-8"?><svg id="a" xmlns="http://www.w3.org/2000/svg" viewBox="0 0 568.01 625.23"><line x1="524.64" y1="492.66" x2="524.64" y2="612.73" style="fill:#fff; stroke:#ccc; stroke-miterlimit:10;"/><line x1="44.22" y1="492.66" x2="44.22" y2="612.73" style="fill:#fff; stroke:#ccc; stroke-miterlimit:10;"/><line x1="494.18" y1="97.43" x2="444.51" y2="184.98" style="fill:none; stroke:#f1503d; stroke-dasharray:0 8; stroke-linecap:round; stroke-miterlimit:10; stroke-width:4px;"/><line x1="125.67" y1="184.98" x2="494.18" y2="97.43" style="fill:none; stroke:#b91eed; stroke-dasharray:0 8; stroke-linecap:round; stroke-miterlimit:10; stroke-width:4px;"/><line x1="284.43" y1="184.98" x2="44.22" y2="184.98" style="fill:none; stroke:#1bcc9a; stroke-dasharray:0 8; stroke-linecap:round; stroke-miterlimit:10; stroke-width:4px;"/><ellipse cx="284.43" cy="184.98" rx="240.21" ry="179.41" style="fill:none; stroke:#999; stroke-miterlimit:10; stroke-width:8px;"/><g><path d="m125.67,192.51c-4.15,0-7.53-3.38-7.53-7.53s3.38-7.53,7.53-7.53,7.53,3.38,7.53,7.53-3.38,7.53-7.53,7.53Z" style="fill:#fff;"/><path d="m125.67,179.46c3.05,0,5.53,2.48,5.53,5.53s-2.48,5.53-5.53,5.53-5.53-2.48-5.53-5.53,2.48-5.53,5.53-5.53m0-4c-5.25,0-9.53,4.28-9.53,9.53s4.28,9.53,9.53,9.53,9.53-4.28,9.53-9.53-4.28-9.53-9.53-9.53h0Z" style="fill:#b91eed;"/></g><g><circle cx="494.18" cy="97.43" r="7.53" style="fill:#fff;"/><path d="m494.18,91.9c3.05,0,5.53,2.48,5.53,5.53s-2.48,5.53-5.53,5.53-5.53-2.48-5.53-5.53,2.48-5.53,5.53-5.53m0-4c-5.25,0-9.53,4.28-9.53,9.53s4.28,9.53,9.53,9.53,9.53-4.28,9.53-9.53-4.28-9.53-9.53-9.53h0Z" style="fill:#45abff;"/></g><g><path d="m444.51,192.51c-4.15,0-7.53-3.38-7.53-7.53s3.38-7.53,7.53-7.53,7.53,3.38,7.53,7.53-3.38,7.53-7.53,7.53Z" style="fill:#fff;"/><path d="m444.51,179.46c3.05,0,5.53,2.48,5.53,5.53s-2.48,5.53-5.53,5.53-5.53-2.48-5.53-5.53,2.48-5.53,5.53-5.53m0-4c-5.25,0-9.53,4.28-9.53,9.53s4.28,9.53,9.53,9.53,9.53-4.28,9.53-9.53-4.28-9.53-9.53-9.53h0Z" style="fill:#f1503d;"/></g><text transform="translate(113.47 243.75)" style="fill:#b91eed; font-family:SegoeUI-Bold, &apos;Segoe UI&apos;; font-size:45.84px; font-weight:700;"><tspan x="0" y="0">E</tspan></text><text transform="translate(32.02 453.76)" style="fill:#b91eed; font-family:SegoeUI-Bold, &apos;Segoe UI&apos;; font-size:45.84px; font-weight:700;"><tspan x="0" y="0">E</tspan></text><text transform="translate(510.56 82.59)" style="fill:#45abff; font-family:SegoeUI-Bold, &apos;Segoe UI&apos;; font-size:45.84px; font-weight:700;"><tspan x="0" y="0">P</tspan></text><text transform="translate(408.14 453.76)" style="fill:#45abff; font-family:SegoeUI-Bold, &apos;Segoe UI&apos;; font-size:45.84px; font-weight:700;"><tspan x="0" y="0">P</tspan></text><text transform="translate(432.59 243.75)" style="fill:#f1503d; font-family:SegoeUI-Bold, &apos;Segoe UI&apos;; font-size:45.84px; font-weight:700;"><tspan x="0" y="0">F</tspan></text><text transform="translate(518.25 453.76)" style="fill:#f1503d; font-family:SegoeUI-Bold, &apos;Segoe UI&apos;; font-size:45.84px; font-weight:700;"><tspan x="0" y="0">F</tspan></text><text transform="translate(271.95 243.75)" style="fill:#999; font-family:SegoeUI-Semibold, &apos;Segoe UI&apos;; font-size:45.84px; font-weight:600;"><tspan x="0" y="0">S</tspan></text><text transform="translate(151.99 157.29)" style="fill:#1bcc9a; font-family:SegoeUI-Bold, &apos;Segoe UI&apos;; font-size:45.84px; font-weight:700;"><tspan x="0" y="0">a</tspan></text><circle cx="284.43" cy="184.98" r="6.24" style="fill:#999;"/><line x1="422.22" y1="492.58" x2="524.64" y2="492.58" style="fill:#fff; stroke:#f1503d; stroke-dasharray:0 8; stroke-linecap:round; stroke-miterlimit:10; stroke-width:4px;"/><line x1="44.22" y1="492.66" x2="422.22" y2="492.5" style="fill:none; stroke:#b91eed; stroke-dasharray:0 8; stroke-linecap:round; stroke-miterlimit:10; stroke-width:4px;"/><g><line x1="284.01" y1="612.73" x2="280.01" y2="612.73" style="fill:none; stroke:#1bcc9a; stroke-linecap:round; stroke-miterlimit:10; stroke-width:4px;"/><line x1="272.01" y1="612.73" x2="52.22" y2="612.73" style="fill:none; stroke:#1bcc9a; stroke-dasharray:0 0 7.99 7.99; stroke-linecap:round; stroke-miterlimit:10; stroke-width:4px;"/><line x1="48.22" y1="612.73" x2="44.22" y2="612.73" style="fill:none; stroke:#1bcc9a; stroke-linecap:round; stroke-miterlimit:10; stroke-width:4px;"/></g><g><line x1="524.64" y1="612.73" x2="520.64" y2="612.73" style="fill:none; stroke:#1bcc9a; stroke-linecap:round; stroke-miterlimit:10; stroke-width:4px;"/><line x1="512.61" y1="612.73" x2="292.02" y2="612.73" style="fill:none; stroke:#1bcc9a; stroke-dasharray:0 0 8.02 8.02; stroke-linecap:round; stroke-miterlimit:10; stroke-width:4px;"/><line x1="288.01" y1="612.73" x2="284.01" y2="612.73" style="fill:none; stroke:#1bcc9a; stroke-linecap:round; stroke-miterlimit:10; stroke-width:4px;"/></g><text transform="translate(151.99 576.4)" style="fill:#1bcc9a; font-family:SegoeUI-Bold, &apos;Segoe UI&apos;; font-size:45.84px; font-weight:700;"><tspan x="0" y="0">a</tspan></text><text transform="translate(388.71 576.4)" style="fill:#1bcc9a; font-family:SegoeUI-Bold, &apos;Segoe UI&apos;; font-size:45.84px; font-weight:700;"><tspan x="0" y="0">a</tspan></text><line x1="44.22" y1="600.23" x2="44.22" y2="625.23" style="fill:none; stroke:#999; stroke-linecap:round; stroke-miterlimit:10; stroke-width:4px;"/><line x1="284.01" y1="600.23" x2="284.01" y2="625.23" style="fill:none; stroke:#999; stroke-linecap:round; stroke-miterlimit:10; stroke-width:4px;"/><line x1="524.64" y1="600.23" x2="524.64" y2="625.23" style="fill:none; stroke:#999; stroke-linecap:round; stroke-miterlimit:10; stroke-width:4px;"/><g><path d="m44.22,500.11c-4.15,0-7.53-3.38-7.53-7.53s3.38-7.53,7.53-7.53,7.53,3.38,7.53,7.53-3.38,7.53-7.53,7.53Z" style="fill:#fff;"/><path d="m44.22,487.05c3.05,0,5.53,2.48,5.53,5.53s-2.48,5.53-5.53,5.53-5.53-2.48-5.53-5.53,2.48-5.53,5.53-5.53m0-4c-5.25,0-9.53,4.28-9.53,9.53s4.28,9.53,9.53,9.53,9.53-4.28,9.53-9.53-4.28-9.53-9.53-9.53h0Z" style="fill:#b91eed;"/></g><g><path d="m422.22,500.11c-4.15,0-7.53-3.38-7.53-7.53s3.38-7.53,7.53-7.53,7.53,3.38,7.53,7.53-3.38,7.53-7.53,7.53Z" style="fill:#fff;"/><path d="m422.22,487.05c3.05,0,5.53,2.48,5.53,5.53s-2.48,5.53-5.53,5.53-5.53-2.48-5.53-5.53,2.48-5.53,5.53-5.53m0-4c-5.25,0-9.53,4.28-9.53,9.53s4.28,9.53,9.53,9.53,9.53-4.28,9.53-9.53-4.28-9.53-9.53-9.53h0Z" style="fill:#45abff;"/></g><path d="m92.24,432.61c-.86,0-2.06.52-2.38,1.38-.32.88.5,1.3,1.26,1.3.86,0,2.06-.52,2.38-1.38.32-.88-.5-1.3-1.26-1.3Z" style="fill:#fbb03b;"/><g><path d="m524.64,500.11c-4.15,0-7.53-3.38-7.53-7.53s3.38-7.53,7.53-7.53,7.53,3.38,7.53,7.53-3.38,7.53-7.53,7.53Z" style="fill:#fff;"/><path d="m524.64,487.05c3.05,0,5.53,2.48,5.53,5.53s-2.48,5.53-5.53,5.53-5.53-2.48-5.53-5.53,2.48-5.53,5.53-5.53m0-4c-5.25,0-9.53,4.28-9.53,9.53s4.28,9.53,9.53,9.53,9.53-4.28,9.53-9.53-4.28-9.53-9.53-9.53h0Z" style="fill:#f1503d;"/></g></svg>