<?xml version="1.0" encoding="UTF-8"?><svg id="a" xmlns="http://www.w3.org/2000/svg" viewBox="0 0 568.01 475.46"><line x1="169.95" y1="26.14" x2="451.65" y2="193.54" style="fill:none; stroke:#f1503d; stroke-dasharray:0 8; stroke-linecap:round; stroke-miterlimit:10; stroke-width:4px;"/><line x1="117.75" y1="193.54" x2="169.95" y2="26.14" style="fill:none; stroke:#fbb03b; stroke-dasharray:0 8; stroke-linecap:round; stroke-miterlimit:10; stroke-width:4px;"/><g><line x1="207.84" y1="465.04" x2="535.52" y2="465.32" style="fill:none; stroke:#f1503d; stroke-dasharray:0 8; stroke-linecap:round; stroke-miterlimit:10; stroke-width:4px;"/><line x1="32.49" y1="465.28" x2="207.84" y2="465.08" style="fill:none; stroke:#fbb03b; stroke-dasharray:0 8; stroke-linecap:round; stroke-miterlimit:10; stroke-width:4px;"/></g><ellipse cx="284.01" cy="193.54" rx="251.55" ry="187.88" style="fill:none; stroke:#999; stroke-miterlimit:10; stroke-width:8px;"/><g><path d="m117.75,201.33c-4.3,0-7.79-3.5-7.79-7.79s3.5-7.79,7.79-7.79,7.79,3.49,7.79,7.79-3.5,7.79-7.79,7.79Z" style="fill:#fff;"/><path d="m117.75,187.75c3.2,0,5.79,2.59,5.79,5.79s-2.59,5.79-5.79,5.79-5.79-2.59-5.79-5.79,2.59-5.79,5.79-5.79m0-4c-5.4,0-9.79,4.39-9.79,9.79s4.39,9.79,9.79,9.79,9.79-4.39,9.79-9.79-4.39-9.79-9.79-9.79h0Z" style="fill:#fbb03b;"/></g><g><path d="m32.46,473.16c-4.3,0-7.79-3.5-7.79-7.79s3.49-7.79,7.79-7.79,7.79,3.5,7.79,7.79-3.5,7.79-7.79,7.79Z" style="fill:#fff;"/><path d="m32.46,459.58c3.2,0,5.79,2.59,5.79,5.79s-2.59,5.79-5.79,5.79-5.79-2.59-5.79-5.79,2.59-5.79,5.79-5.79m0-4c-5.4,0-9.79,4.39-9.79,9.79s4.39,9.79,9.79,9.79,9.79-4.39,9.79-9.79-4.39-9.79-9.79-9.79h0Z" style="fill:#fbb03b;"/></g><g><path d="m169.95,33.93c-4.3,0-7.79-3.5-7.79-7.79s3.49-7.79,7.79-7.79,7.79,3.5,7.79,7.79-3.5,7.79-7.79,7.79Z" style="fill:#fff;"/><path d="m169.95,20.35c3.2,0,5.79,2.59,5.79,5.79s-2.59,5.79-5.79,5.79-5.79-2.59-5.79-5.79,2.59-5.79,5.79-5.79m0-4c-5.4,0-9.79,4.39-9.79,9.79s4.39,9.79,9.79,9.79,9.79-4.39,9.79-9.79-4.39-9.79-9.79-9.79h0Z" style="fill:#3fa9f5;"/></g><g><path d="m207.84,472.92c-4.3,0-7.79-3.49-7.79-7.79s3.49-7.79,7.79-7.79,7.79,3.5,7.79,7.79-3.5,7.79-7.79,7.79Z" style="fill:#fff;"/><path d="m207.84,459.34c3.2,0,5.79,2.59,5.79,5.79s-2.59,5.79-5.79,5.79-5.79-2.59-5.79-5.79,2.59-5.79,5.79-5.79m0-4c-5.4,0-9.79,4.39-9.79,9.79s4.39,9.79,9.79,9.79,9.79-4.39,9.79-9.79-4.39-9.79-9.79-9.79h0Z" style="fill:#3fa9f5;"/></g><g><path d="m451.65,201.33c-4.3,0-7.79-3.5-7.79-7.79s3.49-7.79,7.79-7.79,7.79,3.49,7.79,7.79-3.5,7.79-7.79,7.79Z" style="fill:#fff;"/><path d="m451.65,187.75c3.2,0,5.79,2.59,5.79,5.79s-2.59,5.79-5.79,5.79-5.79-2.59-5.79-5.79,2.59-5.79,5.79-5.79m0-4c-5.4,0-9.79,4.39-9.79,9.79s4.39,9.79,9.79,9.79,9.79-4.39,9.79-9.79-4.39-9.79-9.79-9.79h0Z" style="fill:#f1503d;"/></g><g><path d="m535.55,472.82c-4.3,0-7.79-3.49-7.79-7.79s3.5-7.79,7.79-7.79,7.79,3.5,7.79,7.79-3.5,7.79-7.79,7.79Z" style="fill:#fff;"/><path d="m535.55,459.24c3.2,0,5.79,2.59,5.79,5.79s-2.59,5.79-5.79,5.79-5.79-2.59-5.79-5.79,2.59-5.79,5.79-5.79m0-4c-5.4,0-9.79,4.39-9.79,9.79s4.39,9.79,9.79,9.79,9.79-4.39,9.79-9.79-4.39-9.79-9.79-9.79h0Z" style="fill:#f1503d;"/></g><text transform="translate(100.87 255.09)" style="fill:#fbb03b; font-family:SegoeUI-Bold, &apos;Segoe UI&apos;; font-size:48px; font-weight:700;"><tspan x="0" y="0">A</tspan></text><text transform="translate(436.26 255.09)" style="fill:#f1503d; font-family:SegoeUI-Bold, &apos;Segoe UI&apos;; font-size:48px; font-weight:700;"><tspan x="0" y="0">B</tspan></text><text transform="translate(75.03 283.55)" style="fill:#fbb03b; font-family:SegoeUI-Semibold, &apos;Segoe UI&apos;; font-size:24px; font-weight:600;"><tspan x="0" y="0">ohnis</tspan><tspan x="58.92" y="0" style="letter-spacing:-.02em;">k</tspan><tspan x="71.1" y="0">o</tspan></text><text transform="translate(408.93 283.55)" style="fill:#f1503d; font-family:SegoeUI-Semibold, &apos;Segoe UI&apos;; font-size:24px; font-weight:600;"><tspan x="0" y="0">ohnis</tspan><tspan x="58.92" y="0" style="letter-spacing:-.02em;">k</tspan><tspan x="71.1" y="0">o</tspan></text></svg>