<?xml version="1.0" encoding="UTF-8"?><svg id="a" xmlns="http://www.w3.org/2000/svg" viewBox="0 0 568.01 550.12"><line x1="169.95" y1="50.14" x2="451.65" y2="217.54" style="fill:none; stroke:#f1503d; stroke-dasharray:0 12; stroke-linecap:round; stroke-miterlimit:10; stroke-width:4px;"/><line x1="117.75" y1="217.54" x2="169.95" y2="50.14" style="fill:none; stroke:#fbb03b; stroke-dasharray:0 12; stroke-linecap:round; stroke-miterlimit:10; stroke-width:4px;"/><g><line x1="207.84" y1="489.04" x2="535.52" y2="489.32" style="fill:none; stroke:#f1503d; stroke-dasharray:0 12; stroke-linecap:round; stroke-miterlimit:10; stroke-width:4px;"/><line x1="32.49" y1="489.28" x2="207.84" y2="489.08" style="fill:none; stroke:#fbb03b; stroke-dasharray:0 12; stroke-linecap:round; stroke-miterlimit:10; stroke-width:4px;"/></g><ellipse cx="284.01" cy="217.54" rx="251.55" ry="187.88" style="fill:none; stroke:#999; stroke-miterlimit:10; stroke-width:8px;"/><g><path d="m117.75,225.33c-4.3,0-7.79-3.5-7.79-7.79s3.5-7.79,7.79-7.79,7.79,3.49,7.79,7.79-3.5,7.79-7.79,7.79Z" style="fill:#fff;"/><path d="m117.75,211.75c3.2,0,5.79,2.59,5.79,5.79s-2.59,5.79-5.79,5.79-5.79-2.59-5.79-5.79,2.59-5.79,5.79-5.79m0-4c-5.4,0-9.79,4.39-9.79,9.79s4.39,9.79,9.79,9.79,9.79-4.39,9.79-9.79-4.39-9.79-9.79-9.79h0Z" style="fill:#fbb03b;"/></g><g><path d="m32.46,497.16c-4.3,0-7.79-3.5-7.79-7.79s3.49-7.79,7.79-7.79,7.79,3.5,7.79,7.79-3.5,7.79-7.79,7.79Z" style="fill:#fff;"/><path d="m32.46,483.58c3.2,0,5.79,2.59,5.79,5.79s-2.59,5.79-5.79,5.79-5.79-2.59-5.79-5.79,2.59-5.79,5.79-5.79m0-4c-5.4,0-9.79,4.39-9.79,9.79s4.39,9.79,9.79,9.79,9.79-4.39,9.79-9.79-4.39-9.79-9.79-9.79h0Z" style="fill:#fbb03b;"/></g><g><path d="m169.95,57.93c-4.3,0-7.79-3.5-7.79-7.79s3.49-7.79,7.79-7.79,7.79,3.5,7.79,7.79-3.5,7.79-7.79,7.79Z" style="fill:#fff;"/><path d="m169.95,44.35c3.2,0,5.79,2.59,5.79,5.79s-2.59,5.79-5.79,5.79-5.79-2.59-5.79-5.79,2.59-5.79,5.79-5.79m0-4c-5.4,0-9.79,4.39-9.79,9.79s4.39,9.79,9.79,9.79,9.79-4.39,9.79-9.79-4.39-9.79-9.79-9.79h0Z" style="fill:#3fa9f5;"/></g><g><path d="m207.84,496.92c-4.3,0-7.79-3.49-7.79-7.79s3.49-7.79,7.79-7.79,7.79,3.5,7.79,7.79-3.5,7.79-7.79,7.79Z" style="fill:#fff;"/><path d="m207.84,483.34c3.2,0,5.79,2.59,5.79,5.79s-2.59,5.79-5.79,5.79-5.79-2.59-5.79-5.79,2.59-5.79,5.79-5.79m0-4c-5.4,0-9.79,4.39-9.79,9.79s4.39,9.79,9.79,9.79,9.79-4.39,9.79-9.79-4.39-9.79-9.79-9.79h0Z" style="fill:#3fa9f5;"/></g><g><path d="m451.65,225.33c-4.3,0-7.79-3.5-7.79-7.79s3.49-7.79,7.79-7.79,7.79,3.49,7.79,7.79-3.5,7.79-7.79,7.79Z" style="fill:#fff;"/><path d="m451.65,211.75c3.2,0,5.79,2.59,5.79,5.79s-2.59,5.79-5.79,5.79-5.79-2.59-5.79-5.79,2.59-5.79,5.79-5.79m0-4c-5.4,0-9.79,4.39-9.79,9.79s4.39,9.79,9.79,9.79,9.79-4.39,9.79-9.79-4.39-9.79-9.79-9.79h0Z" style="fill:#f1503d;"/></g><g><path d="m535.55,496.82c-4.3,0-7.79-3.49-7.79-7.79s3.5-7.79,7.79-7.79,7.79,3.5,7.79,7.79-3.5,7.79-7.79,7.79Z" style="fill:#fff;"/><path d="m535.55,483.24c3.2,0,5.79,2.59,5.79,5.79s-2.59,5.79-5.79,5.79-5.79-2.59-5.79-5.79,2.59-5.79,5.79-5.79m0-4c-5.4,0-9.79,4.39-9.79,9.79s4.39,9.79,9.79,9.79,9.79-4.39,9.79-9.79-4.39-9.79-9.79-9.79h0Z" style="fill:#f1503d;"/></g><text transform="translate(100.87 279.09)" style="fill:#fbb03b; font-family:SegoeUI-Bold, &apos;Segoe UI&apos;; font-size:48px; font-weight:700;"><tspan x="0" y="0">A</tspan></text><text transform="translate(436.26 279.09)" style="fill:#f1503d; font-family:SegoeUI-Bold, &apos;Segoe UI&apos;; font-size:48px; font-weight:700;"><tspan x="0" y="0">B</tspan></text><text transform="translate(75.03 307.55)" style="fill:#fbb03b; font-family:SegoeUI-Semibold, &apos;Segoe UI&apos;; font-size:24px; font-weight:600;"><tspan x="0" y="0">ohnis</tspan><tspan x="58.92" y="0" style="letter-spacing:-.02em;">k</tspan><tspan x="71.1" y="0">o</tspan></text><text transform="translate(408.93 307.55)" style="fill:#f1503d; font-family:SegoeUI-Semibold, &apos;Segoe UI&apos;; font-size:24px; font-weight:600;"><tspan x="0" y="0">ohnis</tspan><tspan x="58.92" y="0" style="letter-spacing:-.02em;">k</tspan><tspan x="71.1" y="0">o</tspan></text></svg>