<?xml version="1.0" encoding="UTF-8"?><svg id="a" xmlns="http://www.w3.org/2000/svg" viewBox="0 0 568.01 424.26"><line x1="0" y1="212.13" x2="284.01" y2="212.13" style="fill:none; stroke:#1bcc9a; stroke-dasharray:0 8; stroke-linecap:round; stroke-miterlimit:10; stroke-width:4px;"/><path d="m284.01,8c152.19,0,276.01,91.57,276.01,204.13s-123.82,204.13-276.01,204.13S8,324.68,8,212.13,131.82,8,284.01,8M284.01,0C127.15,0,0,94.97,0,212.13s127.15,212.13,284.01,212.13,284.01-94.97,284.01-212.13S440.86,0,284.01,0h0Z" style="fill:#999;"/><circle cx="96.3" cy="212.13" r="6.54" style="fill:#999;"/><g><path d="m284.01,222.67c-5.81,0-10.54-4.73-10.54-10.54s4.73-10.54,10.54-10.54,10.54,4.73,10.54,10.54-4.73,10.54-10.54,10.54Z" style="fill:#fff;"/><path d="m284.01,205.59c3.61,0,6.54,2.93,6.54,6.54s-2.93,6.54-6.54,6.54-6.54-2.93-6.54-6.54,2.93-6.54,6.54-6.54m0-8c-8.02,0-14.54,6.52-14.54,14.54s6.52,14.54,14.54,14.54,14.54-6.52,14.54-14.54-6.52-14.54-14.54-14.54h0Z" style="fill:#45abff;"/></g><circle cx="473.28" cy="212.13" r="6.54" style="fill:#999;"/><text transform="translate(270.55 281.4)" style="fill:#45abff; font-family:SegoeUI-Bold, &apos;Segoe UI&apos;; font-size:48px; font-weight:700;"><tspan x="0" y="0">S</tspan></text><text transform="translate(83.87 281.4)" style="fill:#999; font-family:SegoeUI-Semibold, &apos;Segoe UI&apos;; font-size:48px; font-weight:600;"><tspan x="0" y="0">E</tspan></text><text transform="translate(461.22 281.4)" style="fill:#999; font-family:SegoeUI-Semibold, &apos;Segoe UI&apos;; font-size:48px; font-weight:600;"><tspan x="0" y="0">F</tspan></text><text transform="translate(222.14 314.56)" style="fill:#45abff; font-family:SegoeUI-Semibold, &apos;Segoe UI&apos;; font-size:24px; font-weight:600;"><tspan x="0" y="0">st</tspan><tspan x="19.02" y="0" style="letter-spacing:-.01em;">ř</tspan><tspan x="27.62" y="0">ed elipsy</tspan></text><text transform="translate(62.8 186.04)" style="fill:#1bcc9a; font-family:SegoeUI-Semibold, &apos;Segoe UI&apos;; font-size:24px; font-weight:600;"><tspan x="0" y="0">hlavní poloosa</tspan></text><text transform="translate(129.09 149.77)" style="fill:#1bcc9a; font-family:SegoeUI-Bold, &apos;Segoe UI&apos;; font-size:48px; font-weight:700;"><tspan x="0" y="0">a</tspan></text></svg>