<?xml version="1.0" encoding="UTF-8"?><svg id="a" xmlns="http://www.w3.org/2000/svg" viewBox="0 0 606.02 701.29"><path d="m305.25,25.09c27.56,0,54.29,5.4,79.45,16.04,24.31,10.28,46.14,25,64.89,43.75,18.75,18.75,33.47,40.58,43.75,64.89,10.64,25.16,16.04,51.89,16.04,79.45s-5.4,54.29-16.04,79.45c-10.28,24.31-25,46.14-43.75,64.89-18.75,18.75-40.58,33.47-64.89,43.75-25.16,10.64-51.89,16.04-79.45,16.04s-54.29-5.4-79.45-16.04c-24.31-10.28-46.14-25-64.89-43.75-18.75-18.75-33.47-40.58-43.75-64.89-10.64-25.16-16.04-51.89-16.04-79.45s5.4-54.29,16.04-79.45c10.28-24.31,25-46.14,43.75-64.89,18.75-18.75,40.58-33.47,64.89-43.75,25.16-10.64,51.89-16.04,79.45-16.04m0-8c-117.15,0-212.13,94.97-212.13,212.13s94.97,212.13,212.13,212.13,212.13-94.97,212.13-212.13S422.4,17.09,305.25,17.09h0Z" style="fill:#f1503d;"/><path d="m305.25,17.09v666.08H93.12V17.09h212.13m0-6H93.12c-3.31,0-6,2.69-6,6v666.08c0,3.31,2.69,6,6,6h212.13c3.31,0,6-2.69,6-6V17.09c0-3.31-2.69-6-6-6h0Z" style="fill:#454eff;"/><g><rect x="94.12" y="18.09" width="210.13" height="210.13" style="fill:#fa8fed; opacity:.6;"/><path d="m303.25,19.09v208.13H95.12V19.09h208.13m2-2H93.12v212.13h212.13V17.09h0Z" style="fill:#fa8fed;"/></g><g><rect x="94.12" y="442.35" width="210.13" height="210.13" style="fill:#fa8fed; opacity:.25;"/><path d="m303.25,443.35v208.13H95.12v-208.13h208.13m2-2H93.12v212.13h212.13v-212.13h0Z" style="fill:#fa8fed;"/></g><g><rect x="94.12" y="654.47" width="210.13" height="27.7" style="fill:#fa8fed; opacity:.25;"/><path d="m303.25,655.47v25.7H95.12v-25.7h208.13m2-2H93.12v29.7h212.13v-29.7h0Z" style="fill:#fa8fed;"/></g><g><rect x="94.12" y="230.22" width="210.13" height="210.13" style="fill:#fa8fed; opacity:.25;"/><path d="m303.25,231.22v208.13H95.12v-208.13h208.13m2-2H93.12v212.13h212.13v-212.13h0Z" style="fill:#fa8fed;"/></g><g><line x1="305.25" y1="229.22" x2="305.25" y2="225.22" style="fill:none; stroke:#b91eed; stroke-linecap:round; stroke-miterlimit:10; stroke-width:4px;"/><line x1="305.25" y1="217.25" x2="305.25" y2="30.07" style="fill:none; stroke:#b91eed; stroke-dasharray:0 0 7.97 7.97; stroke-linecap:round; stroke-miterlimit:10; stroke-width:4px;"/><line x1="305.25" y1="26.09" x2="305.25" y2="22.09" style="fill:none; stroke:#b91eed; stroke-linecap:round; stroke-miterlimit:10; stroke-width:4px;"/></g><g><line x1="93.12" y1="229.22" x2="97.12" y2="229.22" style="fill:none; stroke:#b91eed; stroke-linecap:round; stroke-miterlimit:10; stroke-width:4px;"/><line x1="105.28" y1="229.22" x2="297.16" y2="229.22" style="fill:none; stroke:#b91eed; stroke-dasharray:0 0 8.17 8.17; stroke-linecap:round; stroke-miterlimit:10; stroke-width:4px;"/><line x1="301.25" y1="229.22" x2="305.25" y2="229.22" style="fill:none; stroke:#b91eed; stroke-linecap:round; stroke-miterlimit:10; stroke-width:4px;"/></g><circle cx="305.25" cy="229.22" r="6.54" style="fill:#999;"/><g><path d="m205.32,123.6c-.89-.48-1.93-.73-3.12-.73-1.61,0-2.87.59-3.77,1.77s-1.36,2.79-1.36,4.82v11.46h-7.41v-24h7.41v4.45h.09c1.17-3.25,3.28-4.88,6.33-4.88.78,0,1.39.09,1.83.28v6.82Z" style="fill:#b91eed;"/><path d="m215.5,116.96h-8.25v-1.15c0-.66.12-1.23.37-1.72.25-.49.55-.93.92-1.31.36-.38.76-.72,1.19-1.04.43-.31.82-.62,1.19-.93.36-.31.67-.62.92-.96.25-.33.37-.72.37-1.15,0-.38-.13-.68-.38-.88-.26-.21-.6-.31-1.04-.31-.22,0-.46.03-.72.08-.26.05-.53.13-.79.23-.26.1-.51.22-.75.36-.24.14-.45.29-.62.46v-2.65c.55-.36,1.1-.6,1.67-.73s1.15-.2,1.75-.2c.56,0,1.09.08,1.59.23.49.15.92.38,1.28.68s.64.67.85,1.11.31.94.31,1.52c0,.51-.12.99-.35,1.45-.23.46-.52.88-.87,1.28-.35.4-.72.77-1.12,1.11s-.77.64-1.12.9c-.35.26-.64.49-.87.68-.23.19-.35.34-.35.45v.05h4.84v2.43Z" style="fill:#b91eed;"/></g><text transform="translate(369.93 361.66)" style="fill:#fbb03b; font-family:SegoeUI-Bold, &apos;Segoe UI&apos;; font-size:48px; font-weight:700;"><tspan x="0" y="0">π</tspan></text><text transform="translate(188.3 367.9)" style="fill:#454eff; font-family:SegoeUI-Bold, &apos;Segoe UI&apos;; font-size:48px; font-weight:700;"><tspan x="0" y="0">S</tspan></text><path d="m313,17.09h12.79c5.16,0,9.34,5.39,9.34,12.03v642.02c0,6.64-4.18,12.03-9.34,12.03h-12.79" style="fill:none; stroke:#fbb03b; stroke-linecap:round; stroke-miterlimit:10; stroke-width:2px;"/><line x1="335.13" y1="350.13" x2="353.05" y2="350.13" style="fill:none; stroke:#fbb03b; stroke-linecap:round; stroke-miterlimit:10; stroke-width:2px;"/></svg>