<?xml version="1.0" encoding="UTF-8"?><svg id="a" xmlns="http://www.w3.org/2000/svg" viewBox="0 0 595.03 448.11"><g><line x1="330.87" y1="26.78" x2="307.93" y2="405" style="fill:none; stroke:#ccc; stroke-linecap:round; stroke-miterlimit:10;"/><line x1="168.71" y1="41.86" x2="104.41" y2="378.5" style="fill:none; stroke:#ccc; stroke-linecap:round; stroke-miterlimit:10;"/><line x1="245.75" y1="34.7" x2="199.63" y2="390.9" style="fill:none; stroke:#ccc; stroke-linecap:round; stroke-miterlimit:10;"/><line x1="425.41" y1="17.99" x2="432.2" y2="421.18" style="fill:none; stroke:#ccc; stroke-linecap:round; stroke-miterlimit:10;"/><line x1="549.15" y1="191.22" x2="63.81" y2="189.8" style="fill:none; stroke:#ccc; stroke-linecap:round; stroke-miterlimit:10;"/><line x1="538.97" y1="93.28" x2="82.17" y2="115.28" style="fill:none; stroke:#ccc; stroke-linecap:round; stroke-miterlimit:10;"/><line x1="561.01" y1="305.27" x2="43.24" y2="273.3" style="fill:none; stroke:#ccc; stroke-linecap:round; stroke-miterlimit:10;"/><polygon points="574.99 439.78 20.03 367.51 98.63 48.43 530.13 8.34 574.99 439.78" style="fill:none; stroke:#ccc; stroke-linecap:round; stroke-miterlimit:10;"/></g><g><path d="m251.87,398.84c-.53-.07-.9-.63-.84-1.25l1.29-13.36c.06-.61.53-1.05,1.05-.99s.9.61.84,1.22l-1.28,13.38c-.06.62-.53,1.07-1.06,1Zm2.55-26.55c-.52-.06-.89-.59-.83-1.19l1.25-12.92c.06-.59.52-1.02,1.03-.97s.89.58.83,1.17l-1.23,12.94c-.06.6-.52,1.04-1.04.98Zm2.47-25.68c-.51-.05-.88-.56-.82-1.14l1.21-12.5c.06-.57.51-1,1.02-.95s.87.54.82,1.12l-1.19,12.52c-.06.58-.51,1.01-1.03.96Zm2.39-24.85c-.5-.04-.87-.53-.81-1.09l1.17-12.11c.05-.55.5-.97,1-.93s.86.52.81,1.07l-1.16,12.12c-.05.56-.51.98-1.01.94Zm2.31-24.07c-.5-.03-.85-.5-.8-1.05l1.13-11.73c.05-.54.49-.94.98-.92s.85.49.8,1.02l-1.12,11.74c-.05.54-.5.96-.99.93Zm2.24-23.31c-.49-.03-.84-.48-.79-1l1.1-11.36c.05-.52.48-.92.97-.9s.84.46.79.98l-1.09,11.38c-.05.53-.49.93-.98.91Zm2.17-22.6c-.48-.02-.83-.45-.78-.96l1.07-11.02c.05-.5.48-.9.95-.88s.83.44.78.94l-1.05,11.03c-.05.51-.48.91-.96.89Zm2.1-21.91c-.47-.01-.82-.43-.77-.92l1.03-10.69c.05-.49.47-.88.94-.87s.82.41.77.9l-1.02,10.7c-.05.5-.47.89-.95.88Zm2.04-21.26c-.47,0-.81-.4-.76-.88l1-10.38c.05-.47.46-.86.92-.85s.81.39.76.86l-.99,10.39c-.05.48-.46.87-.93.86Zm1.98-20.63c-.46,0-.8-.38-.75-.85l.97-10.07c.04-.46.45-.83.91-.84s.8.37.75.83l-.96,10.08c-.04.47-.46.85-.92.85Zm1.92-20.04c-.46,0-.79-.36-.75-.81l.95-9.79c.04-.45.44-.82.9-.82s.79.35.74.8l-.93,9.8c-.04.45-.45.83-.9.83Zm1.87-19.46c-.45.01-.78-.34-.74-.78l.92-9.51c.04-.43.44-.8.88-.81s.78.33.73.76l-.91,9.52c-.04.44-.44.81-.89.82Zm1.82-18.92c-.44.02-.77-.32-.73-.75l.89-9.24c.04-.42.43-.78.87-.8s.77.31.73.73l-.88,9.25c-.04.43-.43.79-.88.8Zm1.77-18.39c-.44.02-.76-.3-.72-.72l.87-8.99c.04-.41.42-.76.86-.78s.76.29.72.7l-.86,9c-.04.42-.43.77-.87.79Zm1.72-17.89c-.43.02-.75-.29-.71-.69l.85-8.75c.04-.4.42-.75.85-.77s.75.28.71.68l-.84,8.76c-.04.41-.42.75-.85.78Zm1.67-17.4c-.43.03-.74-.27-.7-.66l.82-8.51c.04-.39.41-.73.84-.76s.74.26.7.65l-.81,8.52c-.04.39-.42.74-.84.77Zm1.63-16.94c-.42.03-.73-.25-.7-.64l.8-8.29c.04-.38.41-.71.83-.75s.73.24.69.62l-.79,8.3c-.04.38-.41.72-.83.75Zm1.58-16.49c-.42.04-.73-.24-.69-.61l.78-8.07c.04-.37.4-.7.81-.74s.72.23.69.6l-.77,8.08c-.04.37-.4.71-.82.74Z" style="fill:#999;"/><path d="m545.73,192.2l-13.59-.05c-.62,0-1.16-.45-1.21-.99s.41-.98,1.03-.98l13.57.03c.63,0,1.19.45,1.24.99s-.41.99-1.04.99Zm-26.99-.09l-13.22-.05c-.6,0-1.12-.44-1.16-.97s.42-.97,1.02-.97l13.2.03c.61,0,1.14.44,1.19.98s-.42.98-1.03.98Zm-26.25-.09l-12.85-.04c-.59,0-1.09-.43-1.11-.96s.42-.96,1.01-.95l12.83.03c.59,0,1.11.43,1.14.97s-.42.96-1.02.96Zm-25.53-.09l-12.51-.04c-.57,0-1.05-.43-1.07-.95s.43-.94,1-.94l12.49.03c.58,0,1.07.43,1.09.95s-.43.95-1.01.95Zm-24.84-.09l-12.17-.04c-.56,0-1.01-.42-1.02-.94s.43-.93.99-.93l12.16.03c.56,0,1.03.42,1.05.94s-.43.94-1,.94Zm-24.18-.08l-11.85-.04c-.54,0-.98-.42-.98-.92s.44-.92.98-.92l11.84.03c.55,0,1,.42,1,.93s-.44.93-.99.92Zm-23.55-.08l-11.54-.04c-.53,0-.95-.41-.94-.91s.44-.91.97-.9l11.53.03c.53,0,.96.41.96.92s-.44.91-.98.91Zm-22.94-.08l-11.25-.04c-.51,0-.92-.4-.9-.9s.45-.89.96-.89l11.23.03c.52,0,.93.41.92.9s-.44.9-.97.9Zm-22.35-.08l-10.96-.04c-.5,0-.89-.4-.86-.89s.45-.88.95-.88l10.95.03c.51,0,.9.4.88.89s-.45.89-.96.89Zm-21.79-.08l-10.69-.04c-.49,0-.86-.39-.83-.88s.45-.87.94-.87l10.68.03c.49,0,.87.4.85.88s-.45.88-.95.88Zm-21.24-.07l-10.42-.04c-.48,0-.83-.39-.79-.87s.45-.86.93-.86l10.41.03c.48,0,.85.39.81.87s-.45.87-.94.87Zm-20.72-.07l-10.17-.04c-.47,0-.81-.38-.76-.85s.46-.85.92-.85l10.16.02c.47,0,.82.39.78.86s-.46.86-.93.86Zm-20.22-.07l-9.93-.03c-.45,0-.78-.38-.73-.84s.46-.84.91-.84l9.91.02c.46,0,.79.38.75.85s-.46.85-.92.84Zm-19.73-.07l-9.69-.03c-.44,0-.76-.38-.7-.83s.46-.83.9-.83l9.68.02c.45,0,.77.38.72.84s-.46.84-.91.83Zm-19.26-.07l-9.46-.03c-.43,0-.73-.37-.67-.82s.46-.82.89-.82l9.45.02c.44,0,.75.37.69.83s-.46.83-.9.82Zm-18.81-.06l-9.24-.03c-.42,0-.71-.37-.64-.81s.46-.81.89-.81l9.23.02c.43,0,.72.37.66.82s-.46.82-.89.81Zm-18.37-.06l-9.03-.03c-.41,0-.69-.36-.62-.81s.46-.8.88-.8l9.02.02c.42,0,.7.36.63.81s-.46.81-.88.81Zm-17.95-.06l-8.82-.03c-.4,0-.67-.36-.59-.8s.47-.79.87-.79l8.81.02c.41,0,.68.36.6.8s-.47.8-.87.8Zm-17.55-.06l-8.62-.03c-.39,0-.65-.35-.57-.79s.47-.78.86-.78l8.62.02c.4,0,.66.35.58.79s-.47.79-.87.79Zm-17.15-.06l-8.43-.03c-.39,0-.63-.35-.54-.78s.47-.77.85-.77l8.43.02c.39,0,.64.35.56.78s-.47.78-.86.78Zm-16.77-.06l-8.25-.03c-.38,0-.61-.35-.52-.77s.47-.77.85-.76l8.24.02c.38,0,.62.35.53.77s-.47.77-.85.77Zm-16.41-.06l-8.07-.03c-.37,0-.59-.34-.5-.76s.47-.76.84-.76l8.06.02c.37,0,.6.34.51.76s-.47.76-.84.76Zm-16.05-.06l-7.9-.03c-.36,0-.57-.34-.48-.75s.47-.75.83-.75l7.89.02c.37,0,.58.34.49.76s-.47.75-.83.75Zm-15.71-.05l-7.73-.03c-.35,0-.56-.33-.46-.74s.47-.74.82-.74l7.72.02c.36,0,.57.34.47.75s-.47.75-.83.75Z" style="fill:#999;"/><path d="m251.55,402.22c-70.09-9.32-126.66-40.03-160.86-83.28-31-39.21-40.43-84.83-29.43-129.16,10.34-41.66,38.1-79.51,78.78-108.58,40.6-29.01,92.02-47.79,147.44-53.03,59.38-5.61,119.26,4.66,169.04,31.26,55.73,29.78,92.3,76.35,98.29,131.79,6.51,60.26-24.07,119.37-86.22,162.04-61.34,42.11-140.34,59.14-217.03,48.94Zm35.42-368.71c-108.31,9.9-200.93,75.89-220.59,156.29-22.24,90.97,51.49,186.29,186.03,203.43,161.15,20.54,305.81-78.03,293.23-202.03-10.67-105.19-134.16-169.08-258.67-157.7Z" style="fill:#3fa9f5;"/><path d="m132.8,190c-.55,2.82-3.06,5.09-5.6,5.08s-4.11-2.31-3.54-5.1,3.05-5.04,5.56-5.04,4.12,2.26,3.57,5.07Z" style="fill:#999;"/><path d="m277.39,190.42c-.28,3.09-2.99,5.58-6.04,5.56s-5.23-2.53-4.93-5.6c.31-3.05,2.98-5.52,6-5.52s5.25,2.48,4.97,5.55Z" style="fill:#999;"/><path d="m454.23,190.94c.12,3.42-2.82,6.18-6.55,6.16s-6.79-2.81-6.88-6.2,2.82-6.1,6.5-6.11,6.8,2.74,6.92,6.14Z" style="fill:#999;"/></g></svg>