<?xml version="1.0" encoding="UTF-8"?><svg xmlns="http://www.w3.org/2000/svg" xmlns:xlink="http://www.w3.org/1999/xlink" viewBox="0 0 639.02 565.77"><defs><clipPath id="b"><circle cx="502.38" cy="226.5" r="18.87" style="fill:#ffda59;"/></clipPath><clipPath id="c"><circle cx="32.3" cy="253.27" r="14.92" style="fill:#e86e3c; stroke:#fba67b; stroke-miterlimit:10;"/></clipPath><clipPath id="d"><circle cx="555.3" cy="454.16" r="14.92" style="fill:#4fe8d9; stroke:#b6fff6; stroke-miterlimit:10;"/></clipPath></defs><g style="isolation:isolate;"><g id="a"><g><path d="m504.77,203.05l.88-1.39.49,1.58c.62,1.98,3.09,2.64,4.61,1.24l1.21-1.12.07,1.65c.09,2.07,2.3,3.35,4.13,2.39l1.46-.77-.36,1.61c-.45,2.02,1.35,3.83,3.38,3.38l1.61-.36-.77,1.46c-.96,1.84.32,4.05,2.39,4.13l1.65.07-1.12,1.21c-1.4,1.52-.74,3.99,1.24,4.61l1.58.49-1.39.88c-1.75,1.11-1.75,3.66,0,4.77l1.39.88-1.58.49c-1.98.62-2.64,3.09-1.24,4.61l1.12,1.21-1.65.07c-2.07.09-3.35,2.3-2.39,4.13l.77,1.46-1.61-.36c-2.02-.45-3.83,1.35-3.38,3.38l.36,1.61-1.46-.77c-1.84-.96-4.05.32-4.13,2.39l-.07,1.65-1.21-1.12c-1.52-1.4-3.99-.74-4.61,1.24l-.49,1.58-.88-1.39c-1.11-1.75-3.66-1.75-4.77,0l-.88,1.39-.49-1.58c-.62-1.98-3.09-2.64-4.61-1.24l-1.21,1.12-.07-1.65c-.09-2.07-2.3-3.35-4.13-2.39l-1.46.77.36-1.61c.45-2.02-1.35-3.83-3.38-3.38l-1.61.36.77-1.46c.96-1.84-.32-4.05-2.39-4.13l-1.65-.07,1.12-1.21c1.4-1.52.74-3.99-1.24-4.61l-1.58-.49,1.39-.88c1.75-1.11,1.75-3.66,0-4.77l-1.39-.88,1.58-.49c1.98-.62,2.64-3.09,1.24-4.61l-1.12-1.21,1.65-.07c2.07-.09,3.35-2.3,2.39-4.13l-.77-1.46,1.61.36c2.02.45,3.83-1.35,3.38-3.38l-.36-1.61,1.46.77c1.84.96,4.05-.32,4.13-2.39l.07-1.65,1.21,1.12c1.52,1.4,3.99.74,4.61-1.24l.49-1.58.88,1.39c1.11,1.75,3.66,1.75,4.77,0Z" style="fill:#ffda59;"/><circle cx="502.38" cy="226.5" r="20.96" style="fill:#fff5d1;"/><circle cx="502.38" cy="226.5" r="19.69" style="fill:#ffedb0;"/><circle cx="503.46" cy="227.58" r="18.8" style="fill:#e87b4f;"/><g><circle cx="502.38" cy="226.5" r="18.87" style="fill:#ffda59;"/><g style="clip-path:url(#b);"><path d="m513.71,209.72c4.68,24.26-6.92,30.83-29.32,29.32v9.32h37.41v-37.77l-8.09-.87Z" style="fill:#ffb83d;"/><ellipse cx="485.93" cy="223.72" rx="2.82" ry="1.36" transform="translate(170.23 655.58) rotate(-78.55)" style="fill:#ffedb0;"/><ellipse cx="486.42" cy="223.73" rx="2.53" ry="1.29" transform="translate(170.6 656.07) rotate(-78.55)" style="fill:#ffda59;"/><ellipse cx="506.97" cy="235.56" rx="4.62" ry="3.5" transform="translate(-47.39 307.6) rotate(-32.33)" style="fill:#ffda59;"/><ellipse cx="494.58" cy="217.34" rx="3.95" ry="2.99" transform="translate(-39.57 298.15) rotate(-32.33)" style="fill:#fbb03b;"/><ellipse cx="494" cy="217.41" rx="4.62" ry="3.5" transform="translate(-39.7 297.85) rotate(-32.33)" style="fill:#ffe7ad;"/><ellipse cx="498.01" cy="211.6" rx=".87" ry=".66" transform="translate(-37.96 137.27) rotate(-15.12)" style="fill:#f79439;"/><ellipse cx="494.43" cy="218.13" rx="3.95" ry="2.99" transform="translate(-40.02 298.19) rotate(-32.33)" style="fill:#ffda59;"/><ellipse cx="491.22" cy="230.41" rx="2.68" ry="3.54" transform="translate(-11.97 27.48) rotate(-3.17)" style="fill:#ffb83d;"/><ellipse cx="491.86" cy="230.39" rx="2.29" ry="3.02" transform="translate(-11.97 27.51) rotate(-3.17)" style="fill:#ffda59;"/><ellipse cx="512.94" cy="239.97" rx=".56" ry=".32" transform="translate(-51.27 288.62) rotate(-30)" style="fill:#ffda59;"/><ellipse cx="487.17" cy="234.69" rx=".32" ry=".41" transform="translate(-53.55 240.68) rotate(-26.36)" style="fill:#ffe7ad;"/><ellipse cx="493.2" cy="238.95" rx="1.99" ry="2.96" transform="translate(123.31 643.34) rotate(-73.4)" style="fill:#ffda59;"/><ellipse cx="508.58" cy="212.93" rx="2.24" ry="2.96" transform="translate(159.23 639.48) rotate(-73.4)" style="fill:#ffb83d;"/><ellipse cx="508.35" cy="213.62" rx="2.24" ry="2.76" transform="translate(158.41 639.76) rotate(-73.4)" style="fill:#ffda59;"/><circle cx="500.44" cy="227.97" r="3.2" style="fill:#ffb83d;"/><circle cx="501.01" cy="228.39" r="2.89" style="fill:#ffda59;"/><ellipse cx="502.13" cy="209.32" rx=".52" ry=".4" transform="translate(-10.79 28.05) rotate(-3.17)" style="fill:#fbb03b;"/><ellipse cx="499.52" cy="209.4" rx=".52" ry=".4" transform="translate(-10.8 27.9) rotate(-3.17)" style="fill:#ffe7ad;"/><ellipse cx="499.62" cy="239.77" rx=".52" ry=".4" transform="translate(-12.48 27.95) rotate(-3.17)" style="fill:#fbb03b;"/><ellipse cx="517.29" cy="222.62" rx=".52" ry=".4" transform="translate(244.82 715.47) rotate(-84.35)" style="fill:#fbb03b;"/><ellipse cx="519.45" cy="229.14" rx=".52" ry=".4" transform="translate(240.28 723.51) rotate(-84.35)" style="fill:#e87b4f;"/><ellipse cx="488.07" cy="236.14" rx=".4" ry=".52" transform="translate(-53.81 217.66) rotate(-23.87)" style="fill:#e87b4f;"/><ellipse cx="510.78" cy="241.79" rx=".52" ry=".4" transform="translate(-52.47 287.78) rotate(-30)" style="fill:#e87b4f;"/><ellipse cx="514.29" cy="219.07" rx="2.24" ry="2.96" transform="translate(-27.4 81.01) rotate(-8.77)" style="fill:#ffda59;"/></g></g></g><ellipse cx="313.78" cy="227.11" rx="284.01" ry="212.13" style="fill:none; stroke:#fba67b; stroke-miterlimit:10; stroke-width:8px;"/><circle cx="126.07" cy="227.11" r="6.54" style="fill:#fba67b;"/><g><path d="m503.06,234.65c-4.16,0-7.54-3.38-7.54-7.54s3.38-7.54,7.54-7.54,7.54,3.38,7.54,7.54-3.38,7.54-7.54,7.54Z" style="fill:#fff;"/><path d="m503.06,220.58c3.61,0,6.54,2.93,6.54,6.54s-2.93,6.54-6.54,6.54-6.54-2.93-6.54-6.54,2.93-6.54,6.54-6.54m0-2c-4.71,0-8.54,3.83-8.54,8.54s3.83,8.54,8.54,8.54,8.54-3.83,8.54-8.54-3.83-8.54-8.54-8.54h0Z" style="fill:#fbb03b;"/></g><text transform="translate(87.47 255.36)" style="fill:#999; font-family:SegoeUI-Semibold, &apos;Segoe UI&apos;; font-size:21px; font-weight:600;"><tspan x="0" y="0">prázdné </tspan><tspan x="1.04" y="25.2">ohnikso</tspan></text><text transform="translate(461.37 277.2)" style="fill:#fbb03b; font-family:SegoeUI-Semibold, &apos;Segoe UI&apos;; font-size:21px; font-weight:600;"><tspan x="0" y="0">společné </tspan><tspan x="4.71" y="25.2">ohnis</tspan><tspan x="56.27" y="25.2" style="letter-spacing:-.02em;">k</tspan><tspan x="66.92" y="25.2">o</tspan></text><text transform="translate(322.85 504.73)" style="fill:#999; font-family:SegoeUI-Semibold, &apos;Segoe UI&apos;; font-size:21px; font-weight:600;"><tspan x="0" y="0">prázdné </tspan><tspan x="1.04" y="25.2">ohnikso</tspan></text><g><ellipse cx="430.96" cy="350.87" rx="214.91" ry="160.52" transform="translate(-89.16 546.6) rotate(-59.77)" style="fill:none; mix-blend-mode:multiply; stroke:#6cffea; stroke-miterlimit:10; stroke-width:8px;"/><circle cx="359.45" cy="473.6" r="4.95" style="fill:#6cffea;"/></g><g><circle cx="32.3" cy="253.27" r="14.92" style="fill:#e86e3c;"/><g style="clip-path:url(#c);"><path d="m30.16,232.47c-3.32,12.14-2.96,25.07,6.09,39.84l-18.91-5.68-5.85-18.73,18.67-15.42Z" style="fill:#c96b44;"/></g><circle cx="32.3" cy="253.27" r="14.92" style="fill:none; stroke:#fba67b; stroke-miterlimit:10;"/></g><g><circle cx="555.3" cy="454.16" r="14.92" style="fill:#4fe8d9;"/><g style="clip-path:url(#d);"><path d="m534.84,458.41c12.42,2.07,25.24.39,39.01-10.11l-3.73,19.39-18.04,7.72-17.24-17Z" style="fill:#3eafa1;"/></g><circle cx="555.3" cy="454.16" r="14.92" style="fill:none; stroke:#b6fff6; stroke-miterlimit:10;"/></g><text transform="translate(45.63 128.31) rotate(-54.79)" style="fill:#fba67b; font-family:SegoeUI, &apos;Segoe UI&apos;; font-size:21.64px;"><tspan x="0" y="0">t</tspan></text><text transform="translate(49.79 122.41) rotate(-52.86)" style="fill:#fba67b; font-family:SegoeUI, &apos;Segoe UI&apos;; font-size:21.64px;"><tspan x="0" y="0">r</tspan></text><text transform="translate(54.21 116.51) rotate(-50.53)" style="fill:#fba67b; font-family:SegoeUI, &apos;Segoe UI&apos;; font-size:21.64px;"><tspan x="0" y="0">a</tspan></text><text transform="translate(61.17 108.13) rotate(-48.55)" style="fill:#fba67b; font-family:SegoeUI, &apos;Segoe UI&apos;; font-size:21.64px;"><tspan x="0" y="0">j</tspan></text><text transform="translate(64.52 104.26) rotate(-46.59)" style="fill:#fba67b; font-family:SegoeUI, &apos;Segoe UI&apos;; font-size:21.64px;"><tspan x="0" y="0">e</tspan></text><text transform="translate(72.19 96.16) rotate(-44.06)" style="fill:#fba67b; font-family:SegoeUI, &apos;Segoe UI&apos;; font-size:21.64px;"><tspan x="0" y="0">k</tspan></text><text transform="translate(79.86 88.78) rotate(-42.07)" style="fill:#fba67b; font-family:SegoeUI, &apos;Segoe UI&apos;; font-size:21.64px;"><tspan x="0" y="0">t</tspan></text><text transform="translate(85.15 83.93) rotate(-39.93)" style="fill:#fba67b; font-family:SegoeUI, &apos;Segoe UI&apos;; font-size:21.64px;"><tspan x="0" y="0">o</tspan></text><text transform="translate(94.82 75.9) rotate(-37.84)" style="fill:#fba67b; font-family:SegoeUI, &apos;Segoe UI&apos;; font-size:21.64px;"><tspan x="0" y="0">r</tspan></text><text transform="translate(100.7 71.35) rotate(-36.56)" style="fill:#fba67b; font-family:SegoeUI, &apos;Segoe UI&apos;; font-size:21.64px;"><tspan x="0" y="0">i</tspan></text><text transform="translate(104.8 68.25) rotate(-34.93)" style="fill:#fba67b; font-family:SegoeUI, &apos;Segoe UI&apos;; font-size:21.64px;"><tspan x="0" y="0">e</tspan></text><text transform="translate(114.02 61.86) rotate(-33.28)" style="fill:#fba67b; font-family:SegoeUI, &apos;Segoe UI&apos;; font-size:21.64px;"><tspan x="0" y="0"> </tspan></text><text transform="translate(118.89 58.64) rotate(-31.91)" style="fill:#fba67b; font-family:SegoeUI, &apos;Segoe UI&apos;; font-size:21.64px;"><tspan x="0" y="0">-</tspan></text><text transform="translate(126.17 54.13) rotate(-30.58)" style="fill:#fba67b; font-family:SegoeUI, &apos;Segoe UI&apos;; font-size:21.64px;"><tspan x="0" y="0"> </tspan></text><text transform="translate(131.18 51.12) rotate(-29.03)" style="fill:#fba67b; font-family:SegoeUI, &apos;Segoe UI&apos;; font-size:21.64px;"><tspan x="0" y="0">e</tspan></text><text transform="translate(141.01 45.71) rotate(-27.57)" style="fill:#fba67b; font-family:SegoeUI, &apos;Segoe UI&apos;; font-size:21.64px;"><tspan x="0" y="0">l</tspan></text><text transform="translate(145.6 43.31) rotate(-26.67)" style="fill:#fba67b; font-family:SegoeUI, &apos;Segoe UI&apos;; font-size:21.64px;"><tspan x="0" y="0">i</tspan></text><text transform="translate(150.18 40.95) rotate(-25.14)" style="fill:#fba67b; font-family:SegoeUI, &apos;Segoe UI&apos;; font-size:21.64px;"><tspan x="0" y="0">p</tspan></text><text transform="translate(161.62 35.62) rotate(-23.32)" style="fill:#fba67b; font-family:SegoeUI, &apos;Segoe UI&apos;; font-size:21.64px;"><tspan x="0" y="0">s</tspan></text><text transform="translate(169.95 32.01) rotate(-21.67)" style="fill:#fba67b; font-family:SegoeUI, &apos;Segoe UI&apos;; font-size:21.64px;"><tspan x="0" y="0">a</tspan></text><g><text transform="translate(281.49 263.81) rotate(-59.1)" style="fill:#6cffea; font-family:SegoeUI, &apos;Segoe UI&apos;; font-size:21.64px;"><tspan x="0" y="0">t</tspan></text><text transform="translate(285.2 257.59) rotate(-57.74)" style="fill:#6cffea; font-family:SegoeUI, &apos;Segoe UI&apos;; font-size:21.64px;"><tspan x="0" y="0">r</tspan></text><text transform="translate(289.13 251.31) rotate(-56.03)" style="fill:#6cffea; font-family:SegoeUI, &apos;Segoe UI&apos;; font-size:21.64px;"><tspan x="0" y="0">a</tspan></text><text transform="translate(295.27 242.27) rotate(-54.52)" style="fill:#6cffea; font-family:SegoeUI, &apos;Segoe UI&apos;; font-size:21.64px;"><tspan x="0" y="0">j</tspan></text><text transform="translate(298.22 238.06) rotate(-52.98)" style="fill:#6cffea; font-family:SegoeUI, &apos;Segoe UI&apos;; font-size:21.64px;"><tspan x="0" y="0">e</tspan></text><text transform="translate(304.95 229.14) rotate(-50.9)" style="fill:#6cffea; font-family:SegoeUI, &apos;Segoe UI&apos;; font-size:21.64px;"><tspan x="0" y="0">k</tspan></text><text transform="translate(311.69 220.88) rotate(-49.17)" style="fill:#6cffea; font-family:SegoeUI, &apos;Segoe UI&apos;; font-size:21.64px;"><tspan x="0" y="0">t</tspan></text><text transform="translate(316.37 215.39) rotate(-47.24)" style="fill:#6cffea; font-family:SegoeUI, &apos;Segoe UI&apos;; font-size:21.64px;"><tspan x="0" y="0">o</tspan></text><text transform="translate(324.94 206.19) rotate(-45.27)" style="fill:#6cffea; font-family:SegoeUI, &apos;Segoe UI&apos;; font-size:21.64px;"><tspan x="0" y="0">r</tspan></text><text transform="translate(330.18 200.92) rotate(-44)" style="fill:#6cffea; font-family:SegoeUI, &apos;Segoe UI&apos;; font-size:21.64px;"><tspan x="0" y="0">i</tspan></text><text transform="translate(333.85 197.31) rotate(-42.34)" style="fill:#6cffea; font-family:SegoeUI, &apos;Segoe UI&apos;; font-size:21.64px;"><tspan x="0" y="0">e</tspan></text><text transform="translate(342.16 189.79) rotate(-40.58)" style="fill:#6cffea; font-family:SegoeUI, &apos;Segoe UI&apos;; font-size:21.64px;"><tspan x="0" y="0"> </tspan></text><text transform="translate(346.56 185.99) rotate(-39.07)" style="fill:#6cffea; font-family:SegoeUI, &apos;Segoe UI&apos;; font-size:21.64px;"><tspan x="0" y="0">-</tspan></text><text transform="translate(353.23 180.6) rotate(-37.53)" style="fill:#6cffea; font-family:SegoeUI, &apos;Segoe UI&apos;; font-size:21.64px;"><tspan x="0" y="0"> </tspan></text><text transform="translate(357.81 177.03) rotate(-35.67)" style="fill:#6cffea; font-family:SegoeUI, &apos;Segoe UI&apos;; font-size:21.64px;"><tspan x="0" y="0">e</tspan></text><text transform="translate(366.93 170.54) rotate(-33.85)" style="fill:#6cffea; font-family:SegoeUI, &apos;Segoe UI&apos;; font-size:21.64px;"><tspan x="0" y="0">l</tspan></text><text transform="translate(371.22 167.66) rotate(-32.67)" style="fill:#6cffea; font-family:SegoeUI, &apos;Segoe UI&apos;; font-size:21.64px;"><tspan x="0" y="0">i</tspan></text><text transform="translate(375.48 164.84) rotate(-30.6)" style="fill:#6cffea; font-family:SegoeUI, &apos;Segoe UI&apos;; font-size:21.64px;"><tspan x="0" y="0">p</tspan></text><text transform="translate(386.32 158.47) rotate(-28)" style="fill:#6cffea; font-family:SegoeUI, &apos;Segoe UI&apos;; font-size:21.64px;"><tspan x="0" y="0">s</tspan></text><text transform="translate(394.29 154.21) rotate(-25.5)" style="fill:#6cffea; font-family:SegoeUI, &apos;Segoe UI&apos;; font-size:21.64px;"><tspan x="0" y="0">a</tspan></text></g></g></g></svg>