<?xml version="1.0" encoding="UTF-8"?><svg xmlns="http://www.w3.org/2000/svg" xmlns:xlink="http://www.w3.org/1999/xlink" viewBox="0 0 686 236.95"><defs><clipPath id="b"><circle cx="318.38" cy="121.31" r="40.67" style="fill:#4fb2e8; stroke:#a8e1ff; stroke-miterlimit:10; stroke-width:4px;"/></clipPath></defs><g style="isolation:isolate;"><g id="a"><text transform="translate(366.67 44.55) rotate(23.5)" style="fill:#fbb03b; font-family:SegoeUI-Semibold, &apos;Segoe UI&apos;; font-size:24px; font-weight:600;"><tspan x="0" y="0">Zemská </tspan><tspan x="0" y="21">osa</tspan></text><text transform="translate(485.92 110.18)" style="fill:#45abff; font-family:SegoeUI-Semibold, &apos;Segoe UI&apos;; font-size:24px; font-weight:600;"><tspan x="0" y="0" style="letter-spacing:0em;">r</tspan><tspan x="8.67" y="0">ovina ekliptiky</tspan></text><text transform="translate(363.21 146.02) rotate(23.5)" style="fill:#f1503d; font-family:SegoeUI-Semibold, &apos;Segoe UI&apos;; font-size:24px; font-weight:600;"><tspan x="0" y="0" style="letter-spacing:0em;">r</tspan><tspan x="8.67" y="0">ovník</tspan></text><text transform="translate(321.97 22.24)" style="fill:#ccc; font-family:SegoeUI-Semibold, &apos;Segoe UI&apos;; font-size:18px; font-weight:600;"><tspan x="0" y="0">23,5°</tspan></text><line x1="650.26" y1="121.31" x2="44.22" y2="121.31" style="fill:#fff; stroke:#45abff; stroke-dasharray:0 8; stroke-linecap:round; stroke-miterlimit:10; stroke-width:4px;"/><line x1="318.38" y1="26.4" x2="318.38" y2="216.23" style="fill:#fff; stroke:#ccc; stroke-linecap:round; stroke-miterlimit:10;"/><g><circle cx="318.38" cy="121.31" r="40.67" style="fill:#4fb2e8;"/><g style="clip-path:url(#b);"><path d="m289.83,130.68s31.48,3.25,32.84-3.34c1.35-6.58-18.76-17.51-19.53-24.95-.77-7.44,12.89-18.27,8.03-22.36-4.86-4.09-30.02,4.57-31.25,11.93-1.23,7.36-6.11,39.58,9.92,38.73Z" style="fill:#45c7ad;"/><path d="m357.4,114.08s-6.24-.89-7.15,2.28c-.92,3.17-6.18,9.23-6.09,12.91.09,3.68-.05,10.34,2.18,12.53,2.23,2.19,13.55-4.8,14.44-8.36s4.51-19.16-3.38-19.36Z" style="fill:#4bd6ba;"/><path d="m353.24,89.05s1.07-5.61-2.63-6.97c-3.7-1.36-10.75-7.2-15.04-7.71-4.3-.51-12.07-1.72-14.65-.02-2.57,1.7,5.53,13.28,9.68,14.67,4.15,1.39,22.36,7.27,22.64.03Z" style="fill:#c3dee0;"/><path d="m283.51,151.08s-.99,5.62,2.74,6.92c3.72,1.3,10.86,7.03,15.16,7.47,4.3.44,12.1,1.53,14.65-.21,2.55-1.74-5.74-13.19-9.92-14.52-4.18-1.33-22.47-6.92-22.63.33Z" style="fill:#c3dee0;"/><path d="m329.26,63.72c-20.68,27.39-32.8,60.49-24.8,107.03l-42.15-33.49,4.11-53.35,62.84-20.2Z" style="fill:#469ecf; mix-blend-mode:multiply; opacity:.31;"/></g><circle cx="318.38" cy="121.31" r="40.67" style="fill:none; stroke:#a8e1ff; stroke-miterlimit:10; stroke-width:4px;"/></g><g><line x1="355.68" y1="137.53" x2="281.08" y2="105.09" style="fill:#fff;"/><g><line x1="355.68" y1="137.53" x2="352.01" y2="135.94" style="fill:none; stroke:#f1503d; stroke-linecap:round; stroke-miterlimit:10; stroke-width:4px;"/><line x1="344.54" y1="132.69" x2="288.48" y2="108.31" style="fill:none; stroke:#f1503d; stroke-dasharray:0 0 8.15 8.15; stroke-linecap:round; stroke-miterlimit:10; stroke-width:4px;"/><line x1="284.75" y1="106.69" x2="281.08" y2="105.09" style="fill:none; stroke:#f1503d; stroke-linecap:round; stroke-miterlimit:10; stroke-width:4px;"/></g></g><path d="m318.41,33.9c5.97,0,11.92.63,17.76,1.87,5.84,1.24,11.53,3.09,16.99,5.51" style="fill:#fff; stroke:#ccc; stroke-linecap:round; stroke-miterlimit:10;"/><g><line x1="359.65" y1="26.4" x2="277.11" y2="216.23" style="fill:#fff;"/><g><line x1="359.65" y1="26.4" x2="358.05" y2="30.07" style="fill:none; stroke:#fbb03b; stroke-linecap:round; stroke-miterlimit:10; stroke-width:4px;"/><line x1="354.88" y1="37.36" x2="280.29" y2="208.91" style="fill:none; stroke:#fbb03b; stroke-dasharray:0 0 7.96 7.96; stroke-linecap:round; stroke-miterlimit:10; stroke-width:4px;"/><line x1="278.7" y1="212.56" x2="277.11" y2="216.23" style="fill:none; stroke:#fbb03b; stroke-linecap:round; stroke-miterlimit:10; stroke-width:4px;"/></g></g></g></g></svg>