<?xml version="1.0" encoding="UTF-8"?><svg xmlns="http://www.w3.org/2000/svg" xmlns:xlink="http://www.w3.org/1999/xlink" viewBox="0 0 844 236.95"><defs><clipPath id="b"><circle cx="422" cy="121.31" r="16.99" style="fill:#ffda59;"/></clipPath><clipPath id="c"><circle cx="103.24" cy="121.31" r="36.63" style="fill:#4fb2e8; stroke:#a8e1ff; stroke-miterlimit:10; stroke-width:4px;"/></clipPath><clipPath id="d"><circle cx="748.31" cy="121.31" r="36.63" style="fill:#4fb2e8; stroke:#a8e1ff; stroke-miterlimit:10; stroke-width:4px;"/></clipPath></defs><g style="isolation:isolate;"><g id="a"><text transform="translate(260.34 144.96)" style="fill:#999; font-family:SegoeUI-Semibold, &apos;Segoe UI&apos;; font-size:18px; font-weight:600;"><tspan x="0" y="0" style="letter-spacing:0em;">r</tspan><tspan x="6.5" y="0">ovina ekliptiky</tspan></text><text transform="translate(172.53 88.28)" style="font-size:18px;"><tspan x="0" y="0" style="fill:#fbb03b; font-family:SegoeUI-Bold, &apos;Segoe UI&apos;; font-weight:700;">lé</tspan><tspan x="14.85" y="0" style="fill:#fbb03b; font-family:SegoeUI-Bold, &apos;Segoe UI&apos;; font-weight:700; letter-spacing:0em;">t</tspan><tspan x="21.79" y="0" style="fill:#fbb03b; font-family:SegoeUI-Bold, &apos;Segoe UI&apos;; font-weight:700;">o</tspan><tspan x="32.79" y="0" xml:space="preserve" style="fill:#999; font-family:SegoeUI-Semibold, &apos;Segoe UI&apos;; font-weight:600;"> na se</tspan><tspan x="79.91" y="0" style="fill:#999; font-family:SegoeUI-Semibold, &apos;Segoe UI&apos;; font-weight:600; letter-spacing:0em;">v</tspan><tspan x="88.9" y="0" style="fill:#999; font-family:SegoeUI-Semibold, &apos;Segoe UI&apos;; font-weight:600;">erní </tspan><tspan style="fill:#999; font-family:SegoeUI-Semibold, &apos;Segoe UI&apos;; font-weight:600;"><tspan x="0" y="21.6">polo</tspan><tspan x="37.05" y="21.6" style="letter-spacing:-.02em;">k</tspan><tspan x="46.18" y="21.6">ouli </tspan></tspan></text><text transform="translate(559.57 88.28)" style="font-size:18px;"><tspan x="0" y="0" style="fill:#45abff; font-family:SegoeUI-Bold, &apos;Segoe UI&apos;; font-weight:700;">zima</tspan><tspan x="39.91" y="0" xml:space="preserve" style="fill:#999; font-family:SegoeUI-Semibold, &apos;Segoe UI&apos;; font-weight:600;"> na se</tspan><tspan x="87.03" y="0" style="fill:#999; font-family:SegoeUI-Semibold, &apos;Segoe UI&apos;; font-weight:600; letter-spacing:0em;">v</tspan><tspan x="96.02" y="0" style="fill:#999; font-family:SegoeUI-Semibold, &apos;Segoe UI&apos;; font-weight:600;">erní </tspan><tspan style="fill:#999; font-family:SegoeUI-Semibold, &apos;Segoe UI&apos;; font-weight:600;"><tspan x="50.62" y="21.6">polo</tspan><tspan x="87.66" y="21.6" style="letter-spacing:-.02em;">k</tspan><tspan x="96.79" y="21.6">ouli </tspan></tspan></text><line x1="805.4" y1="121.31" x2="38.6" y2="121.31" style="fill:#fff; stroke:#999; stroke-dasharray:0 8; stroke-linecap:round; stroke-miterlimit:10; stroke-width:4px;"/><g><path d="m424.15,100.21l.79-1.25.44,1.42c.56,1.78,2.78,2.38,4.15,1.11l1.09-1.01.06,1.48c.08,1.86,2.07,3.01,3.72,2.15l1.32-.69-.33,1.45c-.41,1.82,1.22,3.45,3.04,3.04l1.45-.33-.69,1.32c-.87,1.65.28,3.64,2.15,3.72l1.48.06-1.01,1.09c-1.26,1.37-.67,3.59,1.11,4.15l1.42.44-1.25.79c-1.58,1-1.58,3.3,0,4.3l1.25.79-1.42.44c-1.78.56-2.38,2.78-1.11,4.15l1.01,1.09-1.48.06c-1.86.08-3.01,2.07-2.15,3.72l.69,1.32-1.45-.33c-1.82-.41-3.45,1.22-3.04,3.04l.33,1.45-1.32-.69c-1.65-.87-3.64.28-3.72,2.15l-.06,1.48-1.09-1.01c-1.37-1.26-3.59-.67-4.15,1.11l-.44,1.42-.79-1.25c-1-1.58-3.3-1.58-4.3,0l-.79,1.25-.44-1.42c-.56-1.78-2.78-2.38-4.15-1.11l-1.09,1.01-.06-1.48c-.08-1.86-2.07-3.01-3.72-2.15l-1.32.69.33-1.45c.41-1.82-1.22-3.45-3.04-3.04l-1.45.33.69-1.32c.87-1.65-.28-3.64-2.15-3.72l-1.48-.06,1.01-1.09c1.26-1.37.67-3.59-1.11-4.15l-1.42-.44,1.25-.79c1.58-1,1.58-3.3,0-4.3l-1.25-.79,1.42-.44c1.78-.56,2.38-2.78,1.11-4.15l-1.01-1.09,1.48-.06c1.86-.08,3.01-2.07,2.15-3.72l-.69-1.32,1.45.33c1.82.41,3.45-1.22,3.04-3.04l-.33-1.45,1.32.69c1.65.87,3.64-.28,3.72-2.15l.06-1.48,1.09,1.01c1.37,1.26,3.59.67,4.15-1.11l.44-1.42.79,1.25c1,1.58,3.3,1.58,4.3,0Z" style="fill:#ffda59;"/><circle cx="422" cy="121.31" r="18.86" style="fill:#fff5d1;"/><circle cx="422" cy="121.31" r="17.72" style="fill:#ffedb0;"/><circle cx="422.97" cy="122.29" r="16.92" style="fill:#e87b4f;"/><g><circle cx="422" cy="121.31" r="16.99" style="fill:#ffda59;"/><g style="clip-path:url(#b);"><path d="m432.2,106.21c4.21,21.83-6.22,27.75-26.39,26.39v8.38h33.67v-33.99l-7.28-.78Z" style="fill:#ffb83d;"/><ellipse cx="407.2" cy="118.81" rx="2.54" ry="1.22" transform="translate(209.94 494.33) rotate(-78.55)" style="fill:#ffedb0;"/><ellipse cx="407.64" cy="118.82" rx="2.27" ry="1.16" transform="translate(210.28 494.77) rotate(-78.55)" style="fill:#ffda59;"/><ellipse cx="426.14" cy="129.47" rx="4.16" ry="3.15" transform="translate(-3.19 247.93) rotate(-32.33)" style="fill:#ffda59;"/><ellipse cx="414.98" cy="113.07" rx="3.56" ry="2.69" transform="translate(3.85 239.42) rotate(-32.33)" style="fill:#fbb03b;"/><ellipse cx="414.46" cy="113.13" rx="4.16" ry="3.15" transform="translate(3.73 239.15) rotate(-32.33)" style="fill:#ffe7ad;"/><ellipse cx="418.07" cy="107.91" rx=".79" ry=".59" transform="translate(-13.67 112.82) rotate(-15.12)" style="fill:#f79439;"/><ellipse cx="414.85" cy="113.78" rx="3.56" ry="2.69" transform="translate(3.45 239.46) rotate(-32.33)" style="fill:#ffda59;"/><ellipse cx="411.95" cy="124.84" rx="2.41" ry="3.18" transform="translate(-6.26 22.94) rotate(-3.17)" style="fill:#ffb83d;"/><ellipse cx="412.53" cy="124.82" rx="2.06" ry="2.72" transform="translate(-6.26 22.97) rotate(-3.17)" style="fill:#ffda59;"/><ellipse cx="431.5" cy="133.44" rx=".5" ry=".29" transform="translate(-8.91 233.63) rotate(-30)" style="fill:#ffda59;"/><ellipse cx="408.31" cy="128.69" rx=".29" ry=".37" transform="translate(-14.69 194.65) rotate(-26.36)" style="fill:#ffe7ad;"/><ellipse cx="413.74" cy="132.52" rx="1.79" ry="2.66" transform="translate(168.55 491.16) rotate(-73.4)" style="fill:#ffda59;"/><ellipse cx="427.58" cy="109.1" rx="2.02" ry="2.66" transform="translate(200.87 487.69) rotate(-73.4)" style="fill:#ffb83d;"/><ellipse cx="427.38" cy="109.72" rx="2.02" ry="2.48" transform="translate(200.14 487.94) rotate(-73.4)" style="fill:#ffda59;"/><circle cx="420.26" cy="122.64" r="2.88" style="fill:#ffb83d;"/><circle cx="420.77" cy="123.02" r="2.6" style="fill:#ffda59;"/><ellipse cx="421.77" cy="105.86" rx=".47" ry=".36" transform="translate(-5.2 23.45) rotate(-3.17)" style="fill:#fbb03b;"/><ellipse cx="419.42" cy="105.92" rx=".47" ry=".36" transform="translate(-5.21 23.32) rotate(-3.17)" style="fill:#ffe7ad;"/><ellipse cx="419.51" cy="133.26" rx=".47" ry=".36" transform="translate(-6.72 23.37) rotate(-3.17)" style="fill:#fbb03b;"/><ellipse cx="435.42" cy="117.82" rx=".47" ry=".36" transform="translate(275.3 539.52) rotate(-84.35)" style="fill:#fbb03b;"/><ellipse cx="437.37" cy="123.69" rx=".47" ry=".36" transform="translate(271.21 546.75) rotate(-84.35)" style="fill:#e87b4f;"/><ellipse cx="409.12" cy="129.99" rx=".36" ry=".47" transform="translate(-17.61 176.64) rotate(-23.87)" style="fill:#e87b4f;"/><ellipse cx="429.56" cy="135.08" rx=".47" ry=".36" transform="translate(-9.99 232.88) rotate(-30)" style="fill:#e87b4f;"/><ellipse cx="432.72" cy="114.63" rx="2.02" ry="2.66" transform="translate(-12.42 67.35) rotate(-8.77)" style="fill:#ffda59;"/></g></g></g><g><circle cx="103.24" cy="121.31" r="36.63" style="fill:#4fb2e8;"/><g style="clip-path:url(#c);"><path d="m77.53,129.75s28.35,2.92,29.57-3.01c1.22-5.93-16.9-15.77-17.59-22.47-.7-6.7,11.61-16.46,7.23-20.14-4.38-3.68-27.03,4.11-28.14,10.74-1.11,6.63-5.5,35.64,8.93,34.88Z" style="fill:#45c7ad;"/><path d="m138.38,114.8s-5.62-.8-6.44,2.06c-.82,2.86-5.57,8.31-5.48,11.62.08,3.31-.04,9.31,1.96,11.28,2.01,1.97,12.2-4.32,13-7.53.8-3.21,4.06-17.26-3.04-17.43Z" style="fill:#4bd6ba;"/><path d="m134.64,92.25s.97-5.05-2.37-6.27c-3.34-1.22-9.68-6.49-13.55-6.95-3.87-.46-10.87-1.55-13.19-.02-2.32,1.53,4.98,11.96,8.72,13.22,3.74,1.26,20.14,6.55,20.39.02Z" style="fill:#c3dee0;"/><path d="m71.84,148.13s-.89,5.07,2.47,6.24c3.35,1.17,9.78,6.33,13.66,6.73,3.88.4,10.9,1.38,13.19-.19,2.29-1.57-5.17-11.88-8.93-13.08-3.76-1.2-20.24-6.23-20.38.3Z" style="fill:#c3dee0;"/><path d="m146.42,156.73c-18.51-24.75-44.1-43.54-86.37-48.29l39.54-28.06,45.12,16.93,1.72,59.42Z" style="fill:#fbb03b; mix-blend-mode:hard-light; opacity:.69;"/><path d="m113.04,69.45c-18.62,24.67-29.54,54.48-22.34,96.4l-37.96-30.16,3.7-48.05,56.59-18.19Z" style="fill:#469ecf; mix-blend-mode:multiply; opacity:.31;"/></g><circle cx="103.24" cy="121.31" r="36.63" style="fill:none; stroke:#a8e1ff; stroke-miterlimit:10; stroke-width:4px;"/></g><g><line x1="136.83" y1="135.92" x2="69.65" y2="106.71" style="fill:#fff;"/><g><line x1="136.83" y1="135.92" x2="133.17" y2="134.32" style="fill:none; stroke:#f1503d; stroke-linecap:round; stroke-miterlimit:10; stroke-width:4px;"/><line x1="126.52" y1="131.43" x2="76.64" y2="109.75" style="fill:none; stroke:#f1503d; stroke-dasharray:0 0 7.25 7.25; stroke-linecap:round; stroke-miterlimit:10; stroke-width:4px;"/><line x1="73.32" y1="108.3" x2="69.65" y2="106.71" style="fill:none; stroke:#f1503d; stroke-linecap:round; stroke-miterlimit:10; stroke-width:4px;"/></g></g><g><circle cx="748.31" cy="121.31" r="36.63" style="fill:#4fb2e8;"/><g style="clip-path:url(#d);"><path d="m722.6,129.75s28.35,2.92,29.57-3.01c1.22-5.93-16.9-15.77-17.59-22.47-.7-6.7,11.61-16.46,7.23-20.14-4.38-3.68-27.03,4.11-28.14,10.74-1.11,6.63-5.5,35.64,8.93,34.88Z" style="fill:#45c7ad;"/><path d="m783.45,114.8s-5.62-.8-6.44,2.06c-.82,2.86-5.57,8.31-5.48,11.62.08,3.31-.04,9.31,1.96,11.28,2.01,1.97,12.2-4.32,13-7.53.8-3.21,4.06-17.26-3.04-17.43Z" style="fill:#4bd6ba;"/><path d="m779.71,92.25s.97-5.05-2.37-6.27c-3.34-1.22-9.68-6.49-13.55-6.95-3.87-.46-10.87-1.55-13.19-.02-2.32,1.53,4.98,11.96,8.72,13.22,3.74,1.26,20.14,6.55,20.39.02Z" style="fill:#c3dee0;"/><path d="m716.91,148.13s-.89,5.07,2.47,6.24c3.35,1.17,9.78,6.33,13.66,6.73,3.88.4,10.9,1.38,13.19-.19,2.29-1.57-5.17-11.88-8.93-13.08-3.76-1.2-20.24-6.23-20.38.3Z" style="fill:#c3dee0;"/><path d="m705.14,92.76c21.83,21.88,49.83,36.85,92.34,35.55l-35.16,33.38-47.06-10.36-10.12-58.57Z" style="fill:#fbb03b; mix-blend-mode:hard-light; opacity:.69;"/><path d="m751.06,176.12c16.05-26.41,23.92-57.17,12.55-98.15l40.79,26.2,1.14,48.17-54.48,23.78Z" style="fill:#469ecf; mix-blend-mode:multiply; opacity:.31;"/></g><circle cx="748.31" cy="121.31" r="36.63" style="fill:none; stroke:#a8e1ff; stroke-miterlimit:10; stroke-width:4px;"/></g><g><line x1="781.91" y1="135.92" x2="714.72" y2="106.71" style="fill:#fff;"/><g><line x1="781.91" y1="135.92" x2="778.24" y2="134.32" style="fill:none; stroke:#f1503d; stroke-linecap:round; stroke-miterlimit:10; stroke-width:4px;"/><line x1="771.59" y1="131.43" x2="721.71" y2="109.75" style="fill:none; stroke:#f1503d; stroke-dasharray:0 0 7.25 7.25; stroke-linecap:round; stroke-miterlimit:10; stroke-width:4px;"/><line x1="718.39" y1="108.3" x2="714.72" y2="106.71" style="fill:none; stroke:#f1503d; stroke-linecap:round; stroke-miterlimit:10; stroke-width:4px;"/></g></g><line x1="135.99" y1="46" x2="70.5" y2="196.62" style="fill:#fff; stroke:#ccc; stroke-linecap:round; stroke-miterlimit:10;"/><line x1="781.06" y1="46" x2="715.57" y2="196.62" style="fill:#fff; stroke:#ccc; stroke-linecap:round; stroke-miterlimit:10;"/><text transform="translate(101.67 72) rotate(23.5)" style="fill:#999; font-family:SegoeUI-Bold, &apos;Segoe UI&apos;; font-size:18px; font-weight:700;"><tspan x="0" y="0">se</tspan><tspan x="17.66" y="0" style="letter-spacing:0em;">v</tspan><tspan x="27.24" y="0">er</tspan></text><text transform="translate(73.47 170.84) rotate(23.5)" style="fill:#999; font-family:SegoeUI-Bold, &apos;Segoe UI&apos;; font-size:18px; font-weight:700;"><tspan x="0" y="0">jih</tspan></text><text transform="translate(746.81 72) rotate(23.5)" style="fill:#999; font-family:SegoeUI-Bold, &apos;Segoe UI&apos;; font-size:18px; font-weight:700;"><tspan x="0" y="0">se</tspan><tspan x="17.66" y="0" style="letter-spacing:0em;">v</tspan><tspan x="27.24" y="0">er</tspan></text><text transform="translate(718.61 169.84) rotate(23.5)" style="fill:#999; font-family:SegoeUI-Bold, &apos;Segoe UI&apos;; font-size:18px; font-weight:700;"><tspan x="0" y="0">jih</tspan></text></g></g></svg>