<?xml version="1.0" encoding="UTF-8"?><svg id="a" xmlns="http://www.w3.org/2000/svg" xmlns:xlink="http://www.w3.org/1999/xlink" viewBox="0 0 844 762.45"><defs><clipPath id="b"><circle cx="586.85" cy="369.97" r="18.87" style="fill:#ffda59;"/></clipPath><clipPath id="c"><circle cx="468.4" cy="310.87" r="11.28" style="fill:#4fb2e8; stroke:#a8e1ff; stroke-miterlimit:10;"/></clipPath><clipPath id="d"><circle cx="453.77" cy="454.48" r="7.87" style="fill:#e86e3c; stroke:#fba67b; stroke-miterlimit:10;"/></clipPath><clipPath id="e"><circle cx="765.04" cy="396.65" r="19.89" style="fill:#f7ab4f; stroke:#ffcd59; stroke-miterlimit:10;"/></clipPath><clipPath id="f"><circle cx="641.71" cy="281.52" r="10.34" style="fill:#e87b4f; stroke:#fbb03b; stroke-miterlimit:10;"/></clipPath><clipPath id="g"><circle cx="579.47" cy="574.01" r="11.96" style="fill:#fbc878;"/></clipPath><clipPath id="h"><circle cx="487.78" cy="161.97" r="8.43" style="fill:#4fe8d9;"/></clipPath><clipPath id="i"><circle cx="340.26" cy="447.9" r="8.12" style="fill:#1e73c7; stroke:#97cbe8; stroke-miterlimit:10;"/></clipPath></defs><g><path d="m589.23,346.52l.88-1.39.49,1.58c.62,1.98,3.09,2.64,4.61,1.24l1.21-1.12.07,1.65c.09,2.07,2.3,3.35,4.13,2.39l1.46-.77-.36,1.61c-.45,2.02,1.35,3.83,3.38,3.38l1.61-.36-.77,1.46c-.96,1.84.32,4.05,2.39,4.13l1.65.07-1.12,1.21c-1.4,1.52-.74,3.99,1.24,4.61l1.58.49-1.39.88c-1.75,1.11-1.75,3.66,0,4.77l1.39.88-1.58.49c-1.98.62-2.64,3.09-1.24,4.61l1.12,1.21-1.65.07c-2.07.09-3.35,2.3-2.39,4.13l.77,1.46-1.61-.36c-2.02-.45-3.83,1.35-3.38,3.38l.36,1.61-1.46-.77c-1.84-.96-4.05.32-4.13,2.39l-.07,1.65-1.21-1.12c-1.52-1.4-3.99-.74-4.61,1.24l-.49,1.58-.88-1.39c-1.11-1.75-3.66-1.75-4.77,0l-.88,1.39-.49-1.58c-.62-1.98-3.09-2.64-4.61-1.24l-1.21,1.12-.07-1.65c-.09-2.07-2.3-3.35-4.13-2.39l-1.46.77.36-1.61c.45-2.02-1.35-3.83-3.38-3.38l-1.61.36.77-1.46c.96-1.84-.32-4.05-2.39-4.13l-1.65-.07,1.12-1.21c1.4-1.52.74-3.99-1.24-4.61l-1.58-.49,1.39-.88c1.75-1.11,1.75-3.66,0-4.77l-1.39-.88,1.58-.49c1.98-.62,2.64-3.09,1.24-4.61l-1.12-1.21,1.65-.07c2.07-.09,3.35-2.3,2.39-4.13l-.77-1.46,1.61.36c2.02.45,3.83-1.35,3.38-3.38l-.36-1.61,1.46.77c1.84.96,4.05-.32,4.13-2.39l.07-1.65,1.21,1.12c1.52,1.4,3.99.74,4.61-1.24l.49-1.58.88,1.39c1.11,1.75,3.66,1.75,4.77,0Z" style="fill:#ffda59;"/><circle cx="586.85" cy="369.97" r="20.96" style="fill:#fff5d1;"/><ellipse cx="584.8" cy="369.97" rx="207.17" ry="203.31" style="fill:none; stroke:#fbcc83; stroke-miterlimit:10;"/><circle cx="586.85" cy="369.97" r="19.69" style="fill:#ffedb0;"/><circle cx="587.93" cy="371.05" r="18.8" style="fill:#e87b4f;"/><g><circle cx="586.85" cy="369.97" r="18.87" style="fill:#ffda59;"/><g style="clip-path:url(#b);"><path d="m598.18,353.19c4.68,24.26-6.92,30.83-29.32,29.32v9.32h37.41v-37.77l-8.09-.87Z" style="fill:#ffb83d;"/><ellipse cx="570.4" cy="367.18" rx="2.82" ry="1.36" transform="translate(97.31 853.36) rotate(-78.55)" style="fill:#ffedb0;"/><ellipse cx="570.89" cy="367.2" rx="2.53" ry="1.29" transform="translate(97.69 853.85) rotate(-78.55)" style="fill:#ffda59;"/><ellipse cx="591.44" cy="379.03" rx="4.62" ry="3.5" transform="translate(-111.02 375) rotate(-32.33)" style="fill:#ffda59;"/><ellipse cx="579.04" cy="360.81" rx="3.95" ry="2.99" transform="translate(-103.2 365.55) rotate(-32.33)" style="fill:#fbb03b;"/><ellipse cx="578.47" cy="360.88" rx="4.62" ry="3.5" transform="translate(-103.32 365.25) rotate(-32.33)" style="fill:#ffe7ad;"/><ellipse cx="582.48" cy="355.07" rx=".87" ry=".66" transform="translate(-72.47 164.28) rotate(-15.12)" style="fill:#f79439;"/><ellipse cx="578.9" cy="361.6" rx="3.95" ry="2.99" transform="translate(-103.64 365.59) rotate(-32.33)" style="fill:#ffda59;"/><ellipse cx="575.68" cy="373.88" rx="2.68" ry="3.54" transform="translate(-19.77 32.36) rotate(-3.17)" style="fill:#ffb83d;"/><ellipse cx="576.33" cy="373.86" rx="2.29" ry="3.02" transform="translate(-19.77 32.39) rotate(-3.17)" style="fill:#ffda59;"/><ellipse cx="597.41" cy="383.44" rx=".56" ry=".32" transform="translate(-111.68 350.07) rotate(-30)" style="fill:#ffda59;"/><ellipse cx="571.63" cy="378.16" rx=".32" ry=".41" transform="translate(-108.46 293.09) rotate(-26.36)" style="fill:#ffe7ad;"/><ellipse cx="577.67" cy="382.42" rx="1.99" ry="2.96" transform="translate(46.16 826.76) rotate(-73.4)" style="fill:#ffda59;"/><ellipse cx="593.04" cy="356.4" rx="2.24" ry="2.96" transform="translate(82.08 822.91) rotate(-73.4)" style="fill:#ffb83d;"/><ellipse cx="592.82" cy="357.09" rx="2.24" ry="2.76" transform="translate(81.26 823.19) rotate(-73.4)" style="fill:#ffda59;"/><circle cx="584.91" cy="371.44" r="3.2" style="fill:#ffb83d;"/><circle cx="585.47" cy="371.86" r="2.89" style="fill:#ffda59;"/><ellipse cx="586.59" cy="352.79" rx=".52" ry=".4" transform="translate(-18.59 32.93) rotate(-3.17)" style="fill:#fbb03b;"/><ellipse cx="583.98" cy="352.86" rx=".52" ry=".4" transform="translate(-18.59 32.79) rotate(-3.17)" style="fill:#ffe7ad;"/><ellipse cx="584.08" cy="383.24" rx=".52" ry=".4" transform="translate(-20.27 32.84) rotate(-3.17)" style="fill:#fbb03b;"/><ellipse cx="601.75" cy="366.09" rx=".52" ry=".4" transform="translate(178.2 928.87) rotate(-84.35)" style="fill:#fbb03b;"/><ellipse cx="603.92" cy="372.61" rx=".52" ry=".4" transform="translate(173.66 936.91) rotate(-84.35)" style="fill:#e87b4f;"/><ellipse cx="572.54" cy="379.61" rx=".4" ry=".52" transform="translate(-104.63 264.1) rotate(-23.87)" style="fill:#e87b4f;"/><ellipse cx="595.25" cy="385.26" rx=".52" ry=".4" transform="translate(-112.88 349.24) rotate(-30)" style="fill:#e87b4f;"/><ellipse cx="598.76" cy="362.54" rx="2.24" ry="2.96" transform="translate(-48.29 95.57) rotate(-8.77)" style="fill:#ffda59;"/></g></g><ellipse cx="586.85" cy="369.97" rx="82.1" ry="80.57" style="fill:none; stroke:#fbb03b; stroke-miterlimit:10;"/><ellipse cx="584.8" cy="369.97" rx="107.11" ry="105.12" style="fill:none; stroke:#f79439; stroke-miterlimit:10;"/><ellipse cx="584.8" cy="369.97" rx="132.13" ry="129.67" style="fill:none; stroke:#3fa9f5; stroke-miterlimit:10;"/><ellipse cx="584.8" cy="369.97" rx="157.14" ry="154.22" style="fill:none; stroke:#f15a24; stroke-miterlimit:10;"/><ellipse cx="584.8" cy="369.97" rx="182.16" ry="178.77" style="fill:none; stroke:#f7ab4f; stroke-miterlimit:10;"/><ellipse cx="584.8" cy="369.97" rx="232.19" ry="227.86" style="fill:none; stroke:#4fe8d9; stroke-miterlimit:10;"/><ellipse cx="584.8" cy="369.97" rx="257.2" ry="252.41" style="fill:none; stroke:#3374c7; stroke-miterlimit:10;"/><g><circle cx="468.4" cy="310.87" r="11.28" style="fill:#4fb2e8;"/><g style="clip-path:url(#c);"><path d="m473.39,295.88c-6.06,7.33-9.82,16.36-8.18,29.35l-11.27-9.79,1.79-14.73,17.65-4.83Z" style="fill:#469ecf;"/><path d="m466.88,319.14s5.4-4.72,4.52-5.96c-.88-1.24-5.8.41-7.16-.62s-1.04-4.96-2.47-4.79-3.88,5.68-2.85,7.03c1.03,1.34,5.62,7.13,7.96,4.34Z" style="fill:#45c7ad;"/><path d="m475.62,305.03s-1.49.51-1.34,1.32c.16.81-.33,2.76.1,3.57s1.16,2.31,1.91,2.55,2.48-2.61,2.28-3.5-1.16-4.79-2.95-3.94Z" style="fill:#4bd6ba;"/></g><circle cx="468.4" cy="310.87" r="11.28" style="fill:none; stroke:#a8e1ff; stroke-miterlimit:10;"/></g><g><circle cx="453.77" cy="454.48" r="7.87" style="fill:#e86e3c;"/><g style="clip-path:url(#d);"><path d="m448.52,444.78c.84,6.59,3.63,12.81,11.03,18.18l-10.37,1.06-6.64-7.95,5.98-11.29Z" style="fill:#c96b44;"/></g><circle cx="453.77" cy="454.48" r="7.87" style="fill:none; stroke:#fba67b; stroke-miterlimit:10;"/></g><g><circle cx="765.04" cy="396.65" r="19.89" style="fill:#f7ab4f;"/><g style="clip-path:url(#e);"><path d="m795.45,391.41s-12.05,2.57-16.26,1.94c-4.21-.62-9.63-2.34-13.8-1.89s-11.17,5.34-18.03-.17c-5.35-4.3-9.85-.77-9.85-.77,0,0-3.62,8.51-3.48,10.84.14,2.33,12.64-.38,16.12-1,3.49-.62,4.24,1.25,11.07.94,6.82-.31,10.14-2.13,16.67-1.43,6.53.7,15.93,3.28,19.36,1.65,3.43-1.63-1.8-10.11-1.8-10.11Z" style="fill:#d9bb97;"/><path d="m744.41,393.47s8.72,1.54,11.76,1.17c3.05-.37,5.73-1.94,8.74-1.67s8.48,2.28,14.68,1.53c6.2-.75,6.72-1.56,6.72-1.56,0,0,2.62,5.11,2.52,6.51s-8.92-.79-11.44-1.17c-2.52-.37-2.31,2.1-7.25,1.92s-5.88-2.9-10.61-2.48c-4.73.42-13.95,2.8-16.43,1.82-2.48-.98,1.3-6.07,1.3-6.07Z" style="fill:#ded0be;"/><path d="m786.74,381.91s-9.39.66-12.67.5c-3.28-.16-4.94-1.71-8.19-1.59-3.25.11-10.37,1.85-17.05,1.53-6.68-.32-7.24-.66-7.24-.66,0,0-2.82,2.17-2.71,2.77.11.6,9.62-.34,12.33-.5,2.72-.16,2.49.89,7.81.81,5.32-.08,4.82-1.6,9.91-1.42,5.09.18,16.55,1.56,19.22,1.14,2.67-.42-1.4-2.58-1.4-2.58Z" style="fill:#ded0be;"/><path d="m787.31,408.64s-9.39.66-12.67.5c-3.28-.16-6.17-.82-9.42-.71-3.25.11-9.14.97-15.81.65-6.68-.32-7.24-.66-7.24-.66,0,0-2.82,2.17-2.71,2.77s9.62-.34,12.33-.5c2.72-.16,2.49.89,7.81.81,5.32-.08,6.34-1.23,11.43-1.05,5.09.18,15.03,1.19,17.7.77,2.67-.42-1.4-2.58-1.4-2.58Z" style="fill:#d9bb97;"/><path d="m759.65,423.43c10.29-13.99,16.13-31.82,6.43-53.35l22.26,14.06.81,26.16-29.49,13.13Z" style="fill:#e68a35; opacity:.75;"/></g><circle cx="765.04" cy="396.65" r="19.89" style="fill:none; stroke:#ffcd59; stroke-miterlimit:10;"/></g><g><circle cx="641.71" cy="281.52" r="10.34" style="fill:#e87b4f;"/><g style="clip-path:url(#f);"><path d="m652.32,291.4c-3.8-7.85-9.89-14.43-21.36-18.01l12.46-5.66,11.6,7.11-2.71,16.57Z" style="fill:#c96b44;"/></g><circle cx="641.71" cy="281.52" r="10.34" style="fill:none; stroke:#fbb03b; stroke-miterlimit:10;"/></g><g><path d="m581.56,569.41c-14.5-11.3-27.6-18.72-29.27-16.59l3.43,2.68c1.45-1.86,12.84,4.59,25.44,14.42,12.6,9.82,21.64,19.29,20.19,21.15l3.43,2.68c1.67-2.14-8.73-13.03-23.23-24.33Z" style="fill:#e0b469;"/><path d="m580.41,570.87c-9.01-7.02-17.14-11.63-18.18-10.3l2.13,1.66c.9-1.15,7.98,2.85,15.8,8.96s13.44,11.98,12.54,13.14l2.13,1.66c1.04-1.33-5.42-8.1-14.43-15.12Z" style="fill:#b38e54;"/><path d="m580.41,570.87c9.01,7.02,15.47,13.79,14.43,15.12l6.51,5.07c1.45-1.86-7.59-11.33-20.19-21.15-12.6-9.82-23.99-16.27-25.44-14.42l6.51,5.07c1.04-1.33,9.18,3.28,18.18,10.3Z" style="fill:#f7e0b7;"/><g><circle cx="579.47" cy="574.01" r="11.96" style="fill:#fbc878;"/><g style="clip-path:url(#g);"><path d="m592.67,577.75c-7.16-4.24-13.77-9.44-19.88-15.5l2.51-3.22c5.91,6.01,12.55,11.17,19.88,15.5l-2.51,3.22Z" style="fill:#e0b469;"/><path d="m593.62,576.35c-6.95-4.6-13.57-9.78-19.88-15.5l.33-.42c6.33,5.86,12.49,10.69,19.88,15.5l-.33.42Z" style="fill:#e0cba6;"/><path d="m584.72,587.66c-7.66-3.6-14.25-8.82-19.88-15.5l4.43-5.68c5.39,6.68,12.03,11.83,19.88,15.5l-4.43,5.68Z" style="fill:#e0b469;"/><path d="m585.49,586.49c-6.93-4.63-13.55-9.81-19.88-15.5l.61-.78c6.4,5.88,12.58,10.7,19.88,15.5l-.61.78Z" style="fill:#e0cba6;"/><path d="m562.75,572.88c9.14,4.27,19.4,5.74,32.3.59l-7.06,14.17-15.59,2.08-9.65-16.84Z" style="fill:#b38f54; opacity:.75;"/></g></g><path d="m576.91,575.37c7.83,6.1,14.9,10.11,15.8,8.96l-28.34-22.09c-.9,1.15,4.71,7.04,12.54,13.14Z" style="fill:none;"/><path d="m580.17,571.19c-7.83-6.1-14.9-10.11-15.8-8.96l28.34,22.09c.9-1.15-4.71-7.04-12.54-13.14Z" style="fill:none;"/><path d="m575.91,576.65c-12.6-9.82-21.64-19.29-20.19-21.15l-3.43-2.68c-1.67,2.14,8.73,13.03,23.23,24.33,14.5,11.3,27.6,18.72,29.27,16.59l-3.43-2.68c-1.45,1.86-12.84-4.59-25.44-14.42Z" style="fill:#e0b469;"/><path d="m576.91,575.37c-7.83-6.1-13.44-11.98-12.54-13.14l-2.13-1.66c-1.04,1.33,5.42,8.1,14.43,15.12,9.01,7.02,17.14,11.63,18.18,10.3l-2.13-1.66c-.9,1.15-7.98-2.85-15.8-8.96Z" style="fill:#b38e54;"/><path d="m575.91,576.65c12.6,9.82,23.99,16.28,25.44,14.42l-6.51-5.07c-1.04,1.33-9.18-3.28-18.18-10.3-9.01-7.02-15.47-13.79-14.43-15.12l-6.51-5.07c-1.45,1.86,7.59,11.33,20.19,21.15Z" style="fill:#f7e0b7;"/></g><g><path d="m487.85,164.28c7.59,2.69,14.06,3.96,14.45,2.84l-1.8-.64c-.34.97-5.97-.13-12.56-2.47-6.59-2.33-11.66-5.02-11.32-5.99l-1.8-.64c-.4,1.12,5.43,4.21,13.02,6.89Z" style="fill:#41bfb3;"/><path d="m487.85,164.28c-7.59-2.69-13.42-5.77-13.02-6.89l-5.48-1.94c-.55,1.57,7.6,5.88,18.22,9.64,10.61,3.76,19.67,5.53,20.22,3.97l-5.48-1.94c-.4,1.12-6.87-.15-14.45-2.84Z" style="fill:#4fe8d9;"/><g><circle cx="487.78" cy="161.97" r="8.43" style="fill:#4fe8d9;"/><g style="clip-path:url(#h);"><path d="m478.12,162.41c5.73,1.24,11.31,3.24,16.75,5.93l-.96,2.71c-5.3-2.7-10.88-4.67-16.75-5.93l.96-2.71Z" style="fill:#41bfb3;"/><path d="m477.79,163.56c5.67,1.53,11.25,3.52,16.75,5.93l-.13.36c-5.54-2.51-10.74-4.37-16.75-5.93l.13-.36Z" style="fill:#4fe8d9;"/><path d="m481.23,154.01c5.93.7,11.5,2.72,16.75,5.93l-1.7,4.79c-5.1-3.27-10.68-5.23-16.75-5.93l1.7-4.79Z" style="fill:#41bfb3;"/><path d="m480.97,154.97c5.66,1.55,11.25,3.54,16.75,5.93l-.23.66c-5.59-2.5-10.8-4.35-16.75-5.93l.23-.66Z" style="fill:#4fe8d9;"/><path d="m499.21,159c-7.07-.82-14.25.49-21.73,6.81l1.56-11.05,9.97-4.87,10.21,9.11Z" style="fill:#3bada3;"/></g></g><path d="m489.19,160.49c-6.59-2.33-12.22-3.44-12.56-2.47l23.88,8.46c.34-.97-4.72-3.65-11.32-5.99Z" style="fill:none;"/><path d="m487.94,164.01c6.59,2.33,12.22,3.44,12.56,2.47l-23.88-8.46c-.34.97,4.72,3.65,11.32,5.99Z" style="fill:none;"/><path d="m489.19,160.49c6.59,2.33,11.66,5.02,11.32,5.99l1.8.64c.4-1.12-5.43-4.21-13.02-6.89-7.59-2.69-14.06-3.96-14.45-2.84l1.8.64c.34-.97,5.97.13,12.56,2.47Z" style="fill:#41bfb3;"/><path d="m489.57,159.41c-10.61-3.76-19.67-5.54-20.22-3.97l5.48,1.94c.4-1.12,6.87.15,14.45,2.84,7.59,2.69,13.42,5.77,13.02,6.89l5.48,1.94c.55-1.57-7.6-5.88-18.22-9.64Z" style="fill:#4fe8d9;"/></g><rect x="727.22" y="420.41" width="66.08" height="19.37" rx="6" ry="6" style="fill:#fff;"/><text transform="translate(737.75 435.72)" style="fill:#1a1a1a; font-family:SegoeUI, &apos;Segoe UI&apos;; font-size:15.2px;"><tspan x="0" y="0">Jupiter</tspan></text><rect x="608.3" y="296.8" width="66.83" height="19.37" rx="6" ry="6" style="fill:#fff;"/><rect x="553.11" y="322.15" width="66.83" height="19.37" rx="4.25" ry="4.25" style="fill:#fff;"/><text transform="translate(617.7 312.11)" style="fill:#1a1a1a; font-family:SegoeUI, &apos;Segoe UI&apos;; font-size:15.2px;"><tspan x="0" y="0" style="letter-spacing:-.06em;">V</tspan><tspan x="8.47" y="0">enuše</tspan></text><circle cx="620.65" cy="443.09" r="5.07" style="fill:#f79439;"/><rect x="587.61" y="452.67" width="66.08" height="19.37" rx="6" ry="6" style="fill:#fff;"/><text transform="translate(596.5 467.97)" style="fill:#1a1a1a; font-family:SegoeUI, &apos;Segoe UI&apos;; font-size:15.2px;"><tspan x="0" y="0">Merkur</tspan></text><rect x="547.08" y="593.74" width="64.79" height="19.37" rx="6" ry="6" style="fill:#fff;"/><text transform="translate(557.75 609.05)" style="fill:#1a1a1a; font-family:SegoeUI, &apos;Segoe UI&apos;; font-size:15.2px;"><tspan x="0" y="0">Saturn</tspan></text><rect x="428.41" y="465.4" width="53.45" height="19.37" rx="6" ry="6" style="fill:#fff;"/><text transform="translate(438.57 480.71)" style="fill:#1a1a1a; font-family:SegoeUI, &apos;Segoe UI&apos;; font-size:15.2px;"><tspan x="0" y="0">Mars</tspan></text><rect x="438.77" y="325.76" width="62" height="19.37" rx="6" ry="6" style="fill:#fff;"/><text transform="translate(450.94 341.07)" style="fill:#1a1a1a; font-family:SegoeUI, &apos;Segoe UI&apos;; font-size:15.2px;"><tspan x="0" y="0">Země</tspan></text><rect x="460.35" y="175.29" width="56.44" height="19.37" rx="6" ry="6" style="fill:#fff;"/><text transform="translate(472.54 190.6)" style="fill:#1a1a1a; font-family:SegoeUI, &apos;Segoe UI&apos;; font-size:15.2px;"><tspan x="0" y="0">Uran</tspan></text><text transform="translate(564.73 337.46)" style="fill:#1a1a1a; font-family:SegoeUI-Semibold, &apos;Segoe UI&apos;; font-size:15.2px; font-weight:600;"><tspan x="0" y="0">Slunce</tspan></text><g><g><circle cx="340.26" cy="447.9" r="8.12" style="fill:#1e73c7;"/><g style="clip-path:url(#i);"><path d="m352.67,445.76s-4.92,1.05-6.64.79c-1.72-.25-3.93-.95-5.64-.77-1.7.18-4.56,2.18-7.36-.07-2.18-1.76-4.02-.31-4.02-.31,0,0-1.48,3.47-1.42,4.43s5.16-.16,6.58-.41c1.42-.25,1.73.51,4.52.38,2.79-.13,4.14-.87,6.81-.58s6.51,1.34,7.91.67c1.4-.67-.74-4.13-.74-4.13Z" style="fill:#4fb2e8;"/><path d="m331.83,447s3.56.43,4.8.33c1.24-.1,2.34-.54,3.57-.47s3.46.64,5.99.43c2.53-.21,2.74-.44,2.74-.44,0,0,1.07,1.43,1.03,1.82s-3.64-.22-4.67-.33c-1.03-.1-.94.59-2.96.53-2.02-.05-2.4-.81-4.33-.69-1.93.12-5.69.78-6.71.51s.53-1.69.53-1.69Z" style="fill:#1e73c7;"/><path d="m349.12,441.88s-3.84.27-5.18.2c-1.34-.06-2.02-.7-3.34-.65-1.33.05-4.24.76-6.96.63-2.73-.13-2.96-.27-2.96-.27,0,0-1.15.89-1.11,1.13s3.93-.14,5.04-.2c1.11-.06,1.02.37,3.19.33,2.17-.03,1.97-.65,4.05-.58s6.76.64,7.85.47-.57-1.05-.57-1.05Z" style="fill:#4fb2e8;"/><path d="m349.35,452.8s-3.84.27-5.18.2c-1.34-.06-2.52-.34-3.85-.29-1.33.05-3.73.4-6.46.27s-2.96-.27-2.96-.27c0,0-1.15.89-1.11,1.13s3.93-.14,5.04-.2c1.11-.06,1.02.37,3.19.33,2.17-.03,2.59-.5,4.67-.43s6.14.49,7.23.32c1.09-.17-.57-1.05-.57-1.05Z" style="fill:#469ecf;"/><path d="m338.06,458.84c4.2-5.71,6.58-12.99,2.62-21.78l9.09,5.74.33,10.68-12.04,5.36Z" style="fill:#2b62a8; opacity:.75;"/></g><circle cx="340.26" cy="447.9" r="8.12" style="fill:none; stroke:#97cbe8; stroke-miterlimit:10;"/></g><rect x="304.3" y="459.15" width="71.92" height="19.37" rx="6" ry="6" style="fill:#fff;"/><text transform="translate(314.95 474.45)" style="fill:#1a1a1a; font-family:SegoeUI, &apos;Segoe UI&apos;; font-size:15.2px;"><tspan x="0" y="0">Neptun</tspan></text></g></g><text transform="translate(6.74 28.69)" style="fill:#1e73c7; font-family:SegoeUI-Bold, &apos;Segoe UI&apos;; font-size:24px; font-weight:700;"><tspan x="0" y="0">Neptun</tspan></text><g><line x1="9.92" y1="52.25" x2="18.52" y2="52.25" style="fill:none; stroke:#1e73c7; stroke-linecap:round; stroke-miterlimit:10; stroke-width:8px;"/><line x1="6.74" y1="39.75" x2="6.74" y2="64.75" style="fill:none; stroke:#999; stroke-linecap:round; stroke-miterlimit:10; stroke-width:4px;"/></g><g><line x1="9.92" y1="147.59" x2="57.12" y2="147.59" style="fill:none; stroke:#1bcc9a; stroke-linecap:round; stroke-miterlimit:10; stroke-width:8px;"/><line x1="6.74" y1="135.09" x2="6.74" y2="160.09" style="fill:none; stroke:#999; stroke-linecap:round; stroke-miterlimit:10; stroke-width:4px;"/></g><g><line x1="9.92" y1="242.94" x2="64.02" y2="242.94" style="fill:none; stroke:#f3aa4f; stroke-linecap:round; stroke-miterlimit:10; stroke-width:8px;"/><line x1="6.74" y1="230.44" x2="6.74" y2="255.44" style="fill:none; stroke:#999; stroke-linecap:round; stroke-miterlimit:10; stroke-width:4px;"/></g><g><line x1="9.92" y1="338.28" x2="58.32" y2="338.28" style="fill:none; stroke:#be7539; stroke-linecap:round; stroke-miterlimit:10; stroke-width:8px;"/><line x1="6.74" y1="325.78" x2="6.74" y2="350.78" style="fill:none; stroke:#999; stroke-linecap:round; stroke-miterlimit:10; stroke-width:4px;"/></g><g><line x1="9.92" y1="433.63" x2="103.32" y2="433.63" style="fill:none; stroke:#e06c39; stroke-linecap:round; stroke-miterlimit:10; stroke-width:8px;"/><line x1="6.74" y1="421.13" x2="6.74" y2="446.13" style="fill:none; stroke:#999; stroke-linecap:round; stroke-miterlimit:10; stroke-width:4px;"/></g><g><line x1="9.92" y1="528.97" x2="26.62" y2="528.97" style="fill:none; stroke:#4fb2e8; stroke-linecap:round; stroke-miterlimit:10; stroke-width:8px;"/><line x1="6.74" y1="516.47" x2="6.74" y2="541.47" style="fill:none; stroke:#999; stroke-linecap:round; stroke-miterlimit:10; stroke-width:4px;"/></g><g><line x1="9.92" y1="624.32" x2="16.72" y2="624.32" style="fill:none; stroke:#f1503d; stroke-linecap:round; stroke-miterlimit:10; stroke-width:8px;"/><line x1="6.74" y1="611.82" x2="6.74" y2="636.82" style="fill:none; stroke:#999; stroke-linecap:round; stroke-miterlimit:10; stroke-width:4px;"/></g><g><line x1="9.92" y1="719.66" x2="215.52" y2="719.66" style="fill:none; stroke:#f79439; stroke-linecap:round; stroke-miterlimit:10; stroke-width:8px;"/><line x1="6.74" y1="707.16" x2="6.74" y2="732.16" style="fill:none; stroke:#999; stroke-linecap:round; stroke-miterlimit:10; stroke-width:4px;"/></g><text transform="translate(6.74 124.03)" style="fill:#1bcc9a; font-family:SegoeUI-Bold, &apos;Segoe UI&apos;; font-size:24px; font-weight:700;"><tspan x="0" y="0">Uran</tspan></text><text transform="translate(6.74 219.38)" style="fill:#f3aa4f; font-family:SegoeUI-Bold, &apos;Segoe UI&apos;; font-size:24px; font-weight:700;"><tspan x="0" y="0">Satu</tspan><tspan x="50.23" y="0" style="letter-spacing:0em;">r</tspan><tspan x="59.85" y="0">n</tspan></text><text transform="translate(6.74 314.72)" style="fill:#be7539; font-family:SegoeUI-Bold, &apos;Segoe UI&apos;; font-size:24px; font-weight:700;"><tspan x="0" y="0">Jupi</tspan><tspan x="46.91" y="0" style="letter-spacing:0em;">t</tspan><tspan x="56.16" y="0">er</tspan></text><text transform="translate(6.74 410.07)" style="fill:#e06c39; font-family:SegoeUI-Bold, &apos;Segoe UI&apos;; font-size:24px; font-weight:700;"><tspan x="0" y="0">Ma</tspan><tspan x="35.88" y="0" style="letter-spacing:0em;">r</tspan><tspan x="45.57" y="0">s</tspan></text><text transform="translate(6.74 505.41)" style="fill:#4fb2e8; font-family:SegoeUI-Bold, &apos;Segoe UI&apos;; font-size:24px; font-weight:700;"><tspan x="0" y="0">Země</tspan></text><text transform="translate(6.74 600.76)" style="fill:#f1503d; font-family:SegoeUI-Bold, &apos;Segoe UI&apos;; font-size:24px; font-weight:700;"><tspan x="0" y="0" style="letter-spacing:-.06em;">V</tspan><tspan x="14.45" y="0">enuše</tspan></text><text transform="translate(6.74 696.1)" style="fill:#f79439; font-family:SegoeUI-Bold, &apos;Segoe UI&apos;; font-size:24px; font-weight:700;"><tspan x="0" y="0">Merkur</tspan></text><text transform="translate(43.9 58.91)" style="fill:#1e73c7; font-family:SegoeUI-Semibold, &apos;Segoe UI&apos;; font-size:18px; font-weight:600;"><tspan x="0" y="0">0,0086</tspan></text><text transform="translate(80.62 154.25)" style="fill:#1bcc9a; font-family:SegoeUI-Semibold, &apos;Segoe UI&apos;; font-size:18px; font-weight:600;"><tspan x="0" y="0">0,0472</tspan></text><text transform="translate(88.62 249.6)" style="fill:#f3aa4f; font-family:SegoeUI-Semibold, &apos;Segoe UI&apos;; font-size:18px; font-weight:600;"><tspan x="0" y="0">0,0541</tspan></text><text transform="translate(82.3 344.94)" style="fill:#be7539; font-family:SegoeUI-Semibold, &apos;Segoe UI&apos;; font-size:18px; font-weight:600;"><tspan x="0" y="0">0,0484</tspan></text><text transform="translate(126.27 440.29)" style="fill:#e06c39; font-family:SegoeUI-Semibold, &apos;Segoe UI&apos;; font-size:18px; font-weight:600;"><tspan x="0" y="0">0,0934</tspan></text><text transform="translate(50.01 535.63)" style="fill:#4fb2e8; font-family:SegoeUI-Semibold, &apos;Segoe UI&apos;; font-size:18px; font-weight:600;"><tspan x="0" y="0">0,0167</tspan></text><text transform="translate(40.16 630.98)" style="fill:#f1503d; font-family:SegoeUI-Semibold, &apos;Segoe UI&apos;; font-size:18px; font-weight:600;"><tspan x="0" y="0">0,0068</tspan></text><text transform="translate(241.12 726.32)" style="fill:#f79439; font-family:SegoeUI-Semibold, &apos;Segoe UI&apos;; font-size:18px; font-weight:600;"><tspan x="0" y="0">0,2056</tspan></text></svg>