<?xml version="1.0" encoding="UTF-8"?><svg id="a" xmlns="http://www.w3.org/2000/svg" xmlns:xlink="http://www.w3.org/1999/xlink" viewBox="0 0 844 569.55"><defs><clipPath id="b"><circle cx="462.2" cy="113.96" r="3.78" style="fill:#ffda59;"/></clipPath><clipPath id="c"><rect x="8.98" y="247.05" width="826.04" height="295.5" rx="6" ry="6" style="fill:none; stroke:#45abff; stroke-dasharray:0 2; stroke-miterlimit:10; stroke-width:2px;"/></clipPath><clipPath id="d"><circle cx="68.74" cy="425.39" r="19.97" style="fill:#ffda59;"/></clipPath></defs><line x1="462.2" y1="113.96" x2="493.66" y2="108.87" style="fill:#fff; stroke:#f1503d; stroke-miterlimit:10; stroke-width:4px;"/><g><line x1="462.2" y1="113.96" x2="466.2" y2="113.96" style="fill:none; stroke:#999; stroke-linecap:round; stroke-miterlimit:10; stroke-width:4px;"/><line x1="474.1" y1="113.96" x2="485.95" y2="113.96" style="fill:none; stroke:#999; stroke-dasharray:0 0 7.9 7.9; stroke-linecap:round; stroke-miterlimit:10; stroke-width:4px;"/><line x1="489.9" y1="113.96" x2="493.9" y2="113.96" style="fill:none; stroke:#999; stroke-linecap:round; stroke-miterlimit:10; stroke-width:4px;"/></g><g><path d="m462.68,109.26l.18-.28.1.32c.12.4.62.53.92.25l.24-.22v.33c.03.42.47.67.84.48l.29-.15-.07.32c-.09.41.27.77.68.68l.32-.07-.15.29c-.19.37.06.81.48.83h.33s-.22.26-.22.26c-.28.31-.15.8.25.92l.32.1-.28.18c-.35.22-.35.73,0,.96l.28.18-.32.1c-.4.12-.53.62-.25.92l.22.24h-.33c-.42.03-.67.47-.48.84l.15.29-.32-.07c-.41-.09-.77.27-.68.68l.07.32-.29-.15c-.37-.19-.81.06-.83.48v.33s-.26-.22-.26-.22c-.31-.28-.8-.15-.92.25l-.1.32-.18-.28c-.22-.35-.73-.35-.96,0l-.18.28-.1-.32c-.12-.4-.62-.53-.92-.25l-.24.22v-.33c-.03-.42-.47-.67-.84-.48l-.29.15.07-.32c.09-.41-.27-.77-.68-.68l-.32.07.15-.29c.19-.37-.06-.81-.48-.83h-.33s.22-.26.22-.26c.28-.31.15-.8-.25-.92l-.32-.1.28-.18c.35-.22.35-.73,0-.96l-.28-.18.32-.1c.4-.12.53-.62.25-.92l-.22-.24h.33c.42-.03.67-.47.48-.84l-.15-.29.32.07c.41.09.77-.27.68-.68l-.07-.32.29.15c.37.19.81-.06.83-.48v-.33s.26.22.26.22c.31.28.8.15.92-.25l.1-.32.18.28c.22.35.73.35.96,0Z" style="fill:#ffda59;"/><circle cx="462.2" cy="113.96" r="4.2" style="fill:#fff5d1;"/><circle cx="462.2" cy="113.96" r="3.95" style="fill:#ffedb0;"/><circle cx="462.41" cy="114.18" r="3.77" style="fill:#e87b4f;"/><g><circle cx="462.2" cy="113.96" r="3.78" style="fill:#ffda59;"/><g style="clip-path:url(#b);"><path d="m464.47,110.6c.94,4.86-1.39,6.18-5.88,5.88v1.87h7.5v-7.57l-1.62-.17Z" style="fill:#ffb83d;"/><ellipse cx="458.9" cy="113.41" rx=".57" ry=".27" transform="translate(256.67 540.67) rotate(-78.55)" style="fill:#ffedb0;"/><ellipse cx="459" cy="113.41" rx=".51" ry=".26" transform="translate(256.75 540.77) rotate(-78.55)" style="fill:#ffda59;"/><ellipse cx="463.12" cy="115.78" rx=".93" ry=".7" transform="translate(9.86 265.58) rotate(-32.33)" style="fill:#ffda59;"/><ellipse cx="460.63" cy="112.13" rx=".79" ry=".6" transform="translate(11.43 263.69) rotate(-32.33)" style="fill:#fbb03b;"/><ellipse cx="460.52" cy="112.14" rx=".93" ry=".7" transform="translate(11.4 263.63) rotate(-32.33)" style="fill:#ffe7ad;"/><ellipse cx="461.32" cy="110.98" rx=".17" ry=".13" transform="translate(-12.98 124.21) rotate(-15.12)" style="fill:#f79439;"/><ellipse cx="460.6" cy="112.29" rx=".79" ry=".6" transform="translate(11.34 263.7) rotate(-32.33)" style="fill:#ffda59;"/><ellipse cx="459.96" cy="114.75" rx=".54" ry=".71" transform="translate(-5.63 25.57) rotate(-3.17)" style="fill:#ffb83d;"/><ellipse cx="460.09" cy="114.74" rx=".46" ry=".61" transform="translate(-5.63 25.58) rotate(-3.17)" style="fill:#ffda59;"/><ellipse cx="464.31" cy="116.66" rx=".11" ry=".07" transform="translate(3.87 247.79) rotate(-30)" style="fill:#ffda59;"/><ellipse cx="459.15" cy="115.61" rx=".07" ry=".08" transform="translate(-3.59 215.86) rotate(-26.36)" style="fill:#ffe7ad;"/><ellipse cx="460.36" cy="116.46" rx=".4" ry=".59" transform="translate(217.24 524.36) rotate(-73.4)" style="fill:#ffda59;"/><ellipse cx="463.44" cy="111.24" rx=".45" ry=".59" transform="translate(224.44 523.59) rotate(-73.4)" style="fill:#ffb83d;"/><ellipse cx="463.39" cy="111.38" rx=".45" ry=".55" transform="translate(224.27 523.65) rotate(-73.4)" style="fill:#ffda59;"/><circle cx="461.81" cy="114.26" r=".64" style="fill:#ffb83d;"/><circle cx="461.92" cy="114.34" r=".58" style="fill:#ffda59;"/><ellipse cx="462.15" cy="110.52" rx=".1" ry=".08" transform="translate(-5.4 25.69) rotate(-3.17)" style="fill:#fbb03b;"/><ellipse cx="461.62" cy="110.54" rx=".1" ry=".08" transform="translate(-5.4 25.66) rotate(-3.17)" style="fill:#ffe7ad;"/><ellipse cx="461.64" cy="116.62" rx=".1" ry=".08" transform="translate(-5.74 25.67) rotate(-3.17)" style="fill:#fbb03b;"/><ellipse cx="465.18" cy="113.19" rx=".1" ry=".08" transform="translate(306.75 564.97) rotate(-84.35)" style="fill:#fbb03b;"/><ellipse cx="465.62" cy="114.49" rx=".1" ry=".08" transform="translate(305.84 566.58) rotate(-84.35)" style="fill:#e87b4f;"/><ellipse cx="459.33" cy="115.9" rx=".08" ry=".1" transform="translate(-7.62 195.75) rotate(-23.87)" style="fill:#e87b4f;"/><ellipse cx="463.88" cy="117.03" rx=".1" ry=".08" transform="translate(3.63 247.62) rotate(-30)" style="fill:#e87b4f;"/><ellipse cx="464.58" cy="112.48" rx=".45" ry=".59" transform="translate(-11.72 72.18) rotate(-8.77)" style="fill:#ffda59;"/></g></g></g><ellipse cx="398.86" cy="113.96" rx="95.04" ry="70.98" style="fill:none; stroke:#999; stroke-miterlimit:10; stroke-width:8px;"/><g><circle cx="493.66" cy="108.87" r="3.85" style="fill:#fff;"/><path d="m493.66,107.02c1.02,0,1.85.83,1.85,1.85s-.83,1.85-1.85,1.85-1.85-.83-1.85-1.85.83-1.85,1.85-1.85m0-4c-3.23,0-5.85,2.62-5.85,5.85s2.62,5.85,5.85,5.85,5.85-2.62,5.85-5.85-2.62-5.85-5.85-5.85h0Z" style="fill:#45abff;"/></g><g><circle cx="493.9" cy="113.96" r="3.85" style="fill:#fff;"/><path d="m493.9,112.11c1.02,0,1.85.83,1.85,1.85s-.83,1.85-1.85,1.85-1.85-.83-1.85-1.85.83-1.85,1.85-1.85m0-4c-3.23,0-5.85,2.62-5.85,5.85s2.62,5.85,5.85,5.85,5.85-2.62,5.85-5.85-2.62-5.85-5.85-5.85h0Z" style="fill:#1bcc9a;"/></g><text transform="translate(751.99 335.02)" style="fill:#f1503d; font-family:SegoeUI-Bold, &apos;Segoe UI&apos;; font-size:48px; font-weight:700;"><tspan x="0" y="0">B</tspan></text><g><path d="m462.2,117.15c-1.76,0-3.19-1.43-3.19-3.19s1.43-3.19,3.19-3.19,3.19,1.43,3.19,3.19-1.43,3.19-3.19,3.19Z" style="fill:#fff;"/><path d="m462.2,111.78c1.21,0,2.19.98,2.19,2.19s-.98,2.19-2.19,2.19-2.19-.98-2.19-2.19.98-2.19,2.19-2.19m0-2c-2.31,0-4.19,1.88-4.19,4.19s1.88,4.19,4.19,4.19,4.19-1.88,4.19-4.19-1.88-4.19-4.19-4.19h0Z" style="fill:#fbb03b;"/></g><g><g style="clip-path:url(#c);"><polyline points="736.02 425.39 69.74 425.39 736.02 317.29" style="fill:#454eff; opacity:.3;"/><line x1="68.74" y1="425.39" x2="736.02" y2="425.39" style="fill:none; stroke:#45abff; stroke-dasharray:0 8; stroke-linecap:round; stroke-miterlimit:10; stroke-width:4px;"/><path d="m710.84,189.09c16.72,77.99,25.18,157,25.18,236.3,0,46.65-2.92,93.22-8.75,139.57" style="fill:none; stroke:#999; stroke-linecap:round; stroke-miterlimit:10; stroke-width:8px;"/><line x1="736.02" y1="425.39" x2="736.02" y2="316.05" style="fill:none; stroke:#fbb03b; stroke-dasharray:0 8; stroke-linecap:round; stroke-miterlimit:10; stroke-width:4px;"/><line x1="63.72" y1="426.2" x2="736.02" y2="317.29" style="fill:none; stroke:#b91eed; stroke-dasharray:0 8; stroke-linecap:round; stroke-miterlimit:10; stroke-width:4px;"/><g><path d="m736.02,324.82c-4.15,0-7.53-3.38-7.53-7.53s3.38-7.53,7.53-7.53,7.53,3.38,7.53,7.53-3.38,7.53-7.53,7.53Z" style="fill:#fff;"/><path d="m736.02,311.76c3.05,0,5.53,2.48,5.53,5.53s-2.48,5.53-5.53,5.53-5.53-2.48-5.53-5.53,2.48-5.53,5.53-5.53m0-4c-5.25,0-9.53,4.27-9.53,9.53s4.28,9.53,9.53,9.53,9.53-4.27,9.53-9.53-4.28-9.53-9.53-9.53h0Z" style="fill:#f1503d;"/></g><g><path d="m736.02,432.92c-4.15,0-7.53-3.38-7.53-7.53s3.38-7.53,7.53-7.53,7.53,3.38,7.53,7.53-3.38,7.53-7.53,7.53Z" style="fill:#fff;"/><path d="m736.02,419.86c3.05,0,5.53,2.48,5.53,5.53s-2.48,5.53-5.53,5.53-5.53-2.48-5.53-5.53,2.48-5.53,5.53-5.53m0-4c-5.25,0-9.53,4.27-9.53,9.53s4.28,9.53,9.53,9.53,9.53-4.27,9.53-9.53-4.28-9.53-9.53-9.53h0Z" style="fill:#1bcc9a;"/></g><g><path d="m71.27,400.58l.93-1.48.52,1.67c.65,2.09,3.27,2.79,4.88,1.31l1.28-1.18.07,1.75c.09,2.19,2.43,3.54,4.38,2.53l1.55-.81-.38,1.7c-.48,2.14,1.43,4.05,3.57,3.57l1.7-.38-.81,1.55c-1.02,1.94.33,4.28,2.53,4.38l1.75.07-1.18,1.28c-1.49,1.61-.79,4.23,1.31,4.88l1.67.52-1.48.93c-1.85,1.17-1.85,3.88,0,5.05l1.48.93-1.67.52c-2.09.65-2.79,3.27-1.31,4.88l1.18,1.28-1.75.07c-2.19.09-3.54,2.43-2.53,4.38l.81,1.55-1.7-.38c-2.14-.48-4.05,1.43-3.57,3.57l.38,1.7-1.55-.81c-1.94-1.02-4.28.33-4.38,2.53l-.07,1.75-1.28-1.18c-1.61-1.49-4.23-.79-4.88,1.31l-.52,1.67-.93-1.48c-1.17-1.85-3.88-1.85-5.05,0l-.93,1.48-.52-1.67c-.65-2.09-3.27-2.79-4.88-1.31l-1.28,1.18-.07-1.75c-.09-2.19-2.43-3.54-4.38-2.53l-1.55.81.38-1.7c.48-2.14-1.43-4.05-3.57-3.57l-1.7.38.81-1.55c1.02-1.94-.33-4.28-2.53-4.38l-1.75-.07,1.18-1.28c1.49-1.61.79-4.23-1.31-4.88l-1.67-.52,1.48-.93c1.85-1.17,1.85-3.88,0-5.05l-1.48-.93,1.67-.52c2.09-.65,2.79-3.27,1.31-4.88l-1.18-1.28,1.75-.07c2.19-.09,3.54-2.43,2.53-4.38l-.81-1.55,1.7.38c2.14.48,4.05-1.43,3.57-3.57l-.38-1.7,1.55.81c1.94,1.02,4.28-.33,4.38-2.53l.07-1.75,1.28,1.18c1.61,1.49,4.23.79,4.88-1.31l.52-1.67.93,1.48c1.17,1.85,3.88,1.85,5.05,0Z" style="fill:#ffda59;"/><circle cx="68.74" cy="425.39" r="22.18" style="fill:#fff5d1;"/><circle cx="68.74" cy="425.39" r="20.84" style="fill:#ffedb0;"/><circle cx="69.89" cy="426.53" r="19.9" style="fill:#e87b4f;"/><g><circle cx="68.74" cy="425.39" r="19.97" style="fill:#ffda59;"/><g style="clip-path:url(#d);"><path d="m80.74,407.63c4.95,25.67-7.32,32.63-31.03,31.03v9.86h39.59v-39.97l-8.56-.92Z" style="fill:#ffb83d;"/><ellipse cx="51.34" cy="422.44" rx="2.99" ry="1.44" transform="translate(-372.89 388.92) rotate(-78.55)" style="fill:#ffedb0;"/><ellipse cx="51.85" cy="422.46" rx="2.67" ry="1.36" transform="translate(-372.49 389.43) rotate(-78.55)" style="fill:#ffda59;"/><ellipse cx="73.6" cy="434.98" rx="4.89" ry="3.71" transform="translate(-221.19 106.77) rotate(-32.33)" style="fill:#ffda59;"/><ellipse cx="60.48" cy="415.69" rx="4.18" ry="3.17" transform="translate(-212.91 96.76) rotate(-32.33)" style="fill:#fbb03b;"/><ellipse cx="59.87" cy="415.77" rx="4.89" ry="3.71" transform="translate(-213.04 96.45) rotate(-32.33)" style="fill:#ffe7ad;"/><ellipse cx="64.12" cy="409.62" rx=".92" ry=".7" transform="translate(-104.66 30.92) rotate(-15.12)" style="fill:#f79439;"/><ellipse cx="60.33" cy="416.53" rx="4.18" ry="3.17" transform="translate(-213.38 96.81) rotate(-32.33)" style="fill:#ffda59;"/><ellipse cx="56.93" cy="429.53" rx="2.84" ry="3.74" transform="translate(-23.63 3.8) rotate(-3.17)" style="fill:#ffb83d;"/><ellipse cx="57.61" cy="429.51" rx="2.42" ry="3.2" transform="translate(-23.63 3.84) rotate(-3.17)" style="fill:#ffda59;"/><ellipse cx="79.92" cy="439.65" rx=".59" ry=".34" transform="translate(-209.12 98.86) rotate(-30)" style="fill:#ffda59;"/><ellipse cx="52.64" cy="434.06" rx=".34" ry=".43" transform="translate(-187.23 68.49) rotate(-26.36)" style="fill:#ffe7ad;"/><ellipse cx="59.03" cy="438.57" rx="2.1" ry="3.13" transform="translate(-378.12 369.85) rotate(-73.4)" style="fill:#ffda59;"/><ellipse cx="75.3" cy="411.03" rx="2.37" ry="3.13" transform="translate(-340.11 365.77) rotate(-73.4)" style="fill:#ffb83d;"/><ellipse cx="75.06" cy="411.76" rx="2.37" ry="2.92" transform="translate(-340.98 366.06) rotate(-73.4)" style="fill:#ffda59;"/><circle cx="66.69" cy="426.94" r="3.39" style="fill:#ffb83d;"/><circle cx="67.29" cy="427.39" r="3.05" style="fill:#ffda59;"/><ellipse cx="68.47" cy="407.21" rx=".55" ry=".42" transform="translate(-22.38 4.4) rotate(-3.17)" style="fill:#fbb03b;"/><ellipse cx="65.71" cy="407.29" rx=".55" ry=".42" transform="translate(-22.39 4.25) rotate(-3.17)" style="fill:#ffe7ad;"/><ellipse cx="65.82" cy="439.43" rx=".55" ry=".42" transform="translate(-24.16 4.3) rotate(-3.17)" style="fill:#fbb03b;"/><ellipse cx="84.52" cy="421.28" rx=".55" ry=".42" transform="translate(-343.04 463.91) rotate(-84.35)" style="fill:#fbb03b;"/><ellipse cx="86.81" cy="428.18" rx=".55" ry=".42" transform="translate(-347.84 472.41) rotate(-84.35)" style="fill:#e87b4f;"/><ellipse cx="53.6" cy="435.6" rx=".42" ry=".55" transform="translate(-171.66 58.93) rotate(-23.87)" style="fill:#e87b4f;"/><ellipse cx="77.63" cy="441.58" rx=".55" ry=".42" transform="translate(-210.39 97.98) rotate(-30)" style="fill:#e87b4f;"/><ellipse cx="81.35" cy="417.53" rx="2.37" ry="3.13" transform="translate(-62.73 17.29) rotate(-8.77)" style="fill:#ffda59;"/></g></g></g><g><path d="m68.74,431.92c-3.6,0-6.53-2.93-6.53-6.53s2.93-6.53,6.53-6.53,6.53,2.93,6.53,6.53-2.93,6.53-6.53,6.53Z" style="fill:#fff;"/><path d="m68.74,419.86c3.05,0,5.53,2.48,5.53,5.53s-2.48,5.53-5.53,5.53-5.53-2.48-5.53-5.53,2.48-5.53,5.53-5.53m0-2c-4.15,0-7.53,3.38-7.53,7.53s3.38,7.53,7.53,7.53,7.53-3.38,7.53-7.53-3.38-7.53-7.53-7.53h0Z" style="fill:#fbb03b;"/></g><g><rect x="35.33" y="458.62" width="66.83" height="19.37" rx="4.25" ry="4.25" style="fill:#fff;"/><text transform="translate(46.94 473.93)" style="fill:#1a1a1a; font-family:SegoeUI-Semibold, &apos;Segoe UI&apos;; font-size:15.2px; font-weight:600;"><tspan x="0" y="0">Slunce</tspan></text></g></g><rect x="8.98" y="247.05" width="826.04" height="295.5" rx="6" ry="6" style="fill:none; stroke:#45abff; stroke-dasharray:0 2; stroke-miterlimit:10; stroke-width:2px;"/></g><rect x="447.67" y="100.91" width="60.76" height="21.74" rx="6" ry="6" style="fill:none; stroke:#45abff; stroke-dasharray:0 0 1.98 1.98; stroke-miterlimit:10; stroke-width:2px;"/><g><path d="m486.6,449.34c-.89-.48-1.93-.73-3.12-.73-1.61,0-2.87.59-3.77,1.77-.91,1.18-1.36,2.79-1.36,4.82v11.46h-7.41v-24h7.41v4.45h.09c1.17-3.25,3.28-4.88,6.33-4.88.78,0,1.39.09,1.83.28v6.82Z" style="fill:#45abff;"/><path d="m493.12,481.02h-.05v8.06h-4.32v-20.43h4.32v2.1h.05c1.07-1.63,2.56-2.45,4.5-2.45,1.81,0,3.21.62,4.2,1.86.99,1.24,1.48,2.94,1.48,5.08,0,2.33-.58,4.2-1.73,5.62-1.15,1.41-2.69,2.12-4.6,2.12-1.69,0-2.97-.66-3.85-1.97Zm-.12-5.74v1.12c0,.97.25,1.75.77,2.36.51.61,1.18.92,2.01.92.98,0,1.75-.38,2.29-1.14s.81-1.84.81-3.23c0-2.46-.96-3.69-2.87-3.69-.88,0-1.61.33-2.17,1-.56.67-.84,1.56-.84,2.66Z" style="fill:#45abff;"/></g><g><path d="m585.3,392.17v-7.5c1.36,1.14,2.84,2,4.43,2.57,1.59.57,3.2.86,4.83.86.95,0,1.79-.09,2.5-.26.71-.17,1.3-.41,1.78-.71s.83-.66,1.07-1.08c.23-.41.35-.86.35-1.35,0-.66-.19-1.24-.56-1.76s-.89-.99-1.54-1.43c-.65-.44-1.42-.86-2.31-1.27-.89-.41-1.85-.82-2.88-1.24-2.62-1.09-4.58-2.43-5.87-4.01-1.29-1.58-1.93-3.48-1.93-5.72,0-1.75.35-3.25,1.05-4.51.7-1.26,1.66-2.29,2.87-3.11,1.21-.81,2.61-1.41,4.21-1.79,1.59-.38,3.28-.57,5.06-.57s3.3.11,4.65.32,2.6.54,3.74.97v7.01c-.56-.39-1.18-.73-1.84-1.03-.66-.3-1.35-.54-2.05-.74-.7-.2-1.4-.34-2.1-.43s-1.36-.14-1.98-.14c-.86,0-1.64.08-2.34.25s-1.3.39-1.78.69c-.48.3-.86.65-1.12,1.07-.27.41-.4.88-.4,1.39,0,.56.15,1.07.45,1.51s.72.87,1.27,1.27,1.21.79,1.99,1.17c.78.38,1.66.78,2.65,1.18,1.34.56,2.55,1.16,3.62,1.79s1.99,1.35,2.75,2.14,1.35,1.71,1.76,2.73c.41,1.02.61,2.21.61,3.57,0,1.88-.36,3.45-1.07,4.72-.71,1.27-1.68,2.3-2.89,3.09-1.22.79-2.64,1.36-4.25,1.7s-3.32.52-5.12.52-3.6-.16-5.26-.47-3.11-.78-4.32-1.41Z" style="fill:#454eff;"/><path d="m616.1,407.82h-.05v8.06h-4.32v-20.43h4.32v2.1h.05c1.07-1.63,2.56-2.45,4.49-2.45,1.81,0,3.21.62,4.2,1.86.99,1.24,1.48,2.94,1.48,5.08,0,2.33-.58,4.2-1.73,5.62-1.15,1.41-2.69,2.12-4.6,2.12-1.68,0-2.97-.66-3.85-1.97Zm-.12-5.74v1.12c0,.97.25,1.75.76,2.36.51.61,1.18.92,2.01.92.98,0,1.75-.38,2.29-1.14.54-.76.81-1.84.81-3.23,0-2.46-.96-3.69-2.87-3.69-.88,0-1.61.33-2.17,1-.56.67-.84,1.56-.84,2.66Z" style="fill:#454eff;"/></g><g><path d="m766.79,360.48l-6.7,18h-6.33l-6.38-18h5.94l3.13,11.09c.35,1.25.56,2.32.62,3.2h.07c.08-.83.3-1.86.65-3.09l3.2-11.2h5.8Z" style="fill:#fbb03b;"/><path d="m771.47,389.25h-.04v6.05h-3.24v-15.32h3.24v1.58h.04c.8-1.22,1.92-1.83,3.37-1.83,1.36,0,2.41.47,3.15,1.4.74.93,1.11,2.2,1.11,3.81,0,1.75-.43,3.15-1.3,4.21-.86,1.06-2.01,1.59-3.45,1.59-1.26,0-2.23-.49-2.89-1.48Zm-.09-4.3v.84c0,.72.19,1.32.57,1.77.38.46.88.69,1.51.69.74,0,1.31-.29,1.72-.86.41-.57.61-1.38.61-2.42,0-1.84-.72-2.77-2.15-2.77-.66,0-1.2.25-1.62.75-.42.5-.63,1.17-.63,1.99Z" style="fill:#fbb03b;"/><path d="m793.06,378.27c-.82.43-2.06.65-3.71.65-3.91,0-5.87-2.03-5.87-6.1v-8.24h-2.92v-4.1h2.92v-3.88l5.54-1.58v5.47h4.04v4.1h-4.04v7.28c0,1.88.74,2.81,2.23,2.81.59,0,1.19-.17,1.81-.51v4.11Z" style="fill:#fbb03b;"/></g><rect x="667.43" y="444.65" width="133.22" height="32.57" rx="4.25" ry="4.25" style="fill:#fff;"/><text transform="translate(675.77 468.06)" style="fill:#1bcc9a; font-family:SegoeUI-Semibold, &apos;Segoe UI&apos;; font-size:24px; font-weight:600;"><tspan x="0" y="0">perihélium</tspan></text><line x1="508.43" y1="111.42" x2="805.69" y2="247.05" style="fill:none; stroke:#45abff; stroke-dasharray:0 2; stroke-miterlimit:10; stroke-width:2px;"/><line x1="447.67" y1="110.72" x2="41.52" y2="247.05" style="fill:none; stroke:#45abff; stroke-dasharray:0 2; stroke-miterlimit:10; stroke-width:2px;"/></svg>