<?xml version="1.0" encoding="UTF-8"?><svg xmlns="http://www.w3.org/2000/svg" xmlns:xlink="http://www.w3.org/1999/xlink" viewBox="0 0 844 473.59"><defs><clipPath id="b"><circle cx="594.72" cy="243.01" r="18.87" style="fill:#ffda59;"/></clipPath><clipPath id="c"><circle cx="169" cy="127.29" r="21.97" style="fill:#4fb2e8; stroke:#a8e1ff; stroke-miterlimit:10; stroke-width:2px;"/></clipPath><clipPath id="d"><circle cx="639.79" cy="123.05" r="21.97" style="fill:#4fb2e8; stroke:#a8e1ff; stroke-miterlimit:10; stroke-width:2px;"/></clipPath></defs><g style="isolation:isolate;"><g id="a"><path d="m642.22,107.6c40.63,39.22,62.69,87.44,62.69,137.03,0,118.75-126.48,217.91-285.28,223.65" style="fill:none; stroke:#1bcc9a; stroke-linecap:round; stroke-miterlimit:10; stroke-width:4px;"/><g style="opacity:.3;"><path d="m690.13,243.63c0-44.8-18.61-86.34-50.34-120.58l-44.39,120.58-167.46,211.51c146.66-8.32,262.19-99.84,262.19-211.51Z" style="fill:#454eff;"/></g><line x1="595.4" y1="243.63" x2="639.79" y2="123.05" style="fill:none; stroke:#f1503d; stroke-dasharray:0 8; stroke-linecap:round; stroke-miterlimit:10; stroke-width:4px;"/><path d="m392.2,19.88c-100.38,3.43-187.89,43.7-238.83,103.15" style="fill:none; stroke:#1bcc9a; stroke-linecap:round; stroke-miterlimit:10; stroke-width:4px;"/><path d="m595.8,243.62L169,127.29c50.12-56.97,135.99-94.84,233.78-95.78l193.02,212.11Z" style="fill:rgba(69,78,255,.3);"/><g><line x1="595.4" y1="243.63" x2="591.54" y2="242.58" style="fill:none; stroke:#f1503d; stroke-linecap:round; stroke-miterlimit:10; stroke-width:4px;"/><line x1="583.89" y1="240.49" x2="174.39" y2="128.89" style="fill:none; stroke:#f1503d; stroke-dasharray:0 0 7.93 7.93; stroke-linecap:round; stroke-miterlimit:10; stroke-width:4px;"/><line x1="170.57" y1="127.84" x2="166.71" y2="126.79" style="fill:none; stroke:#f1503d; stroke-linecap:round; stroke-miterlimit:10; stroke-width:4px;"/></g><g><g><path d="m597.11,219.57l.88-1.39.49,1.58c.62,1.98,3.09,2.64,4.61,1.24l1.21-1.12.07,1.65c.09,2.07,2.3,3.35,4.13,2.39l1.46-.77-.36,1.61c-.45,2.02,1.35,3.83,3.38,3.38l1.61-.36-.77,1.46c-.96,1.84.32,4.05,2.39,4.13l1.65.07-1.12,1.21c-1.4,1.52-.74,3.99,1.24,4.61l1.58.49-1.39.88c-1.75,1.11-1.75,3.66,0,4.77l1.39.88-1.58.49c-1.98.62-2.64,3.09-1.24,4.61l1.12,1.21-1.65.07c-2.07.09-3.35,2.3-2.39,4.13l.77,1.46-1.61-.36c-2.02-.45-3.83,1.35-3.38,3.38l.36,1.61-1.46-.77c-1.84-.96-4.05.32-4.13,2.39l-.07,1.65-1.21-1.12c-1.52-1.4-3.99-.74-4.61,1.24l-.49,1.58-.88-1.39c-1.11-1.75-3.66-1.75-4.77,0l-.88,1.39-.49-1.58c-.62-1.98-3.09-2.64-4.61-1.24l-1.21,1.12-.07-1.65c-.09-2.07-2.3-3.35-4.13-2.39l-1.46.77.36-1.61c.45-2.02-1.35-3.83-3.38-3.38l-1.61.36.77-1.46c.96-1.84-.32-4.05-2.39-4.13l-1.65-.07,1.12-1.21c1.4-1.52.74-3.99-1.24-4.61l-1.58-.49,1.39-.88c1.75-1.11,1.75-3.66,0-4.77l-1.39-.88,1.58-.49c1.98-.62,2.64-3.09,1.24-4.61l-1.12-1.21,1.65-.07c2.07-.09,3.35-2.3,2.39-4.13l-.77-1.46,1.61.36c2.02.45,3.83-1.35,3.38-3.38l-.36-1.61,1.46.77c1.84.96,4.05-.32,4.13-2.39l.07-1.65,1.21,1.12c1.52,1.4,3.99.74,4.61-1.24l.49-1.58.88,1.39c1.11,1.75,3.66,1.75,4.77,0Z" style="fill:#ffda59;"/><circle cx="594.72" cy="243.01" r="20.96" style="fill:#fff5d1;"/><circle cx="594.72" cy="243.01" r="19.69" style="fill:#ffedb0;"/><circle cx="595.8" cy="244.09" r="18.8" style="fill:#e87b4f;"/><g><circle cx="594.72" cy="243.01" r="18.87" style="fill:#ffda59;"/><g style="clip-path:url(#b);"><path d="m606.05,226.23c4.68,24.26-6.92,30.83-29.32,29.32v9.32h37.41v-37.77l-8.09-.87Z" style="fill:#ffb83d;"/><ellipse cx="578.28" cy="240.23" rx="2.82" ry="1.36" transform="translate(228.06 759.32) rotate(-78.55)" style="fill:#ffedb0;"/><ellipse cx="578.76" cy="240.24" rx="2.53" ry="1.29" transform="translate(228.43 759.81) rotate(-78.55)" style="fill:#ffda59;"/><ellipse cx="599.32" cy="252.07" rx="4.62" ry="3.5" transform="translate(-41.91 359.53) rotate(-32.33)" style="fill:#ffda59;"/><ellipse cx="586.92" cy="233.85" rx="3.95" ry="2.99" transform="translate(-34.09 350.08) rotate(-32.33)" style="fill:#fbb03b;"/><ellipse cx="586.34" cy="233.92" rx="4.62" ry="3.5" transform="translate(-34.22 349.78) rotate(-32.33)" style="fill:#ffe7ad;"/><ellipse cx="590.35" cy="228.12" rx=".87" ry=".66" transform="translate(-39.07 161.94) rotate(-15.12)" style="fill:#f79439;"/><ellipse cx="586.77" cy="234.65" rx="3.95" ry="2.99" transform="translate(-34.54 350.13) rotate(-32.33)" style="fill:#ffda59;"/><ellipse cx="583.56" cy="246.93" rx="2.68" ry="3.54" transform="translate(-12.74 32.6) rotate(-3.17)" style="fill:#ffb83d;"/><ellipse cx="584.2" cy="246.91" rx="2.29" ry="3.02" transform="translate(-12.74 32.64) rotate(-3.17)" style="fill:#ffda59;"/><ellipse cx="605.28" cy="256.49" rx=".56" ry=".32" transform="translate(-47.15 337) rotate(-30)" style="fill:#ffda59;"/><ellipse cx="579.51" cy="251.2" rx=".32" ry=".41" transform="translate(-51.28 283.39) rotate(-26.36)" style="fill:#ffe7ad;"/><ellipse cx="585.54" cy="255.46" rx="1.99" ry="2.96" transform="translate(173.45 743.62) rotate(-73.4)" style="fill:#ffda59;"/><ellipse cx="600.92" cy="229.44" rx="2.24" ry="2.96" transform="translate(209.37 739.77) rotate(-73.4)" style="fill:#ffb83d;"/><ellipse cx="600.7" cy="230.13" rx="2.24" ry="2.76" transform="translate(208.55 740.05) rotate(-73.4)" style="fill:#ffda59;"/><circle cx="592.78" cy="244.48" r="3.2" style="fill:#ffb83d;"/><circle cx="593.35" cy="244.91" r="2.89" style="fill:#ffda59;"/><ellipse cx="594.47" cy="225.84" rx=".52" ry=".4" transform="translate(-11.56 33.17) rotate(-3.17)" style="fill:#fbb03b;"/><ellipse cx="591.86" cy="225.91" rx=".52" ry=".4" transform="translate(-11.57 33.03) rotate(-3.17)" style="fill:#ffe7ad;"/><ellipse cx="591.96" cy="256.28" rx=".52" ry=".4" transform="translate(-13.25 33.08) rotate(-3.17)" style="fill:#fbb03b;"/><ellipse cx="609.63" cy="239.13" rx=".52" ry=".4" transform="translate(311.63 822.25) rotate(-84.35)" style="fill:#fbb03b;"/><ellipse cx="611.79" cy="245.65" rx=".52" ry=".4" transform="translate(307.1 830.29) rotate(-84.35)" style="fill:#e87b4f;"/><ellipse cx="580.41" cy="252.66" rx=".4" ry=".52" transform="translate(-52.6 256.43) rotate(-23.87)" style="fill:#e87b4f;"/><ellipse cx="603.12" cy="258.31" rx=".52" ry=".4" transform="translate(-48.35 336.17) rotate(-30)" style="fill:#e87b4f;"/><ellipse cx="606.63" cy="235.59" rx="2.24" ry="2.96" transform="translate(-28.84 95.29) rotate(-8.77)" style="fill:#ffda59;"/></g></g><rect x="561.3" y="275.08" width="66.83" height="19.37" rx="4.25" ry="4.25" style="fill:#fff;"/><text transform="translate(572.92 290.38)" style="fill:#1a1a1a; font-family:SegoeUI-Semibold, &apos;Segoe UI&apos;; font-size:15.2px; font-weight:600;"><tspan x="0" y="0">Slunce</tspan></text></g><g><circle cx="595.4" cy="243.63" r="7.54" style="fill:#fff;"/><path d="m595.4,237.09c3.61,0,6.54,2.93,6.54,6.54s-2.93,6.54-6.54,6.54-6.54-2.93-6.54-6.54,2.93-6.54,6.54-6.54m0-2c-4.71,0-8.54,3.83-8.54,8.54s3.83,8.54,8.54,8.54,8.54-3.83,8.54-8.54-3.83-8.54-8.54-8.54h0Z" style="fill:#fbb03b;"/></g></g><ellipse cx="406.13" cy="243.63" rx="284.01" ry="212.13" style="fill:none; stroke:#999; stroke-miterlimit:10; stroke-width:8px;"/><text transform="translate(315.93 230.93)" style="fill:#f1503d; font-family:SegoeUI-Semibold, &apos;Segoe UI&apos;; font-size:24px; font-weight:600;"><tspan x="0" y="0">prů</tspan><tspan x="37.35" y="0" style="letter-spacing:0em;">v</tspan><tspan x="49.34" y="0">odič</tspan></text><g><circle cx="169" cy="127.29" r="21.97" style="fill:#4fb2e8;"/><g style="clip-path:url(#c);"><path d="m155.9,136.87s16.72-3.59,16.31-7.2c-.4-3.61-12.56-5.86-14.2-9.56-1.64-3.69,3.57-11.54.39-12.83s-14.66,7.36-14.06,11.34c.6,3.99,3.47,21.35,11.56,18.24Z" style="fill:#45c7ad;"/><path d="m187.84,117.06s-3.35.58-3.29,2.37c.06,1.78-1.64,5.77-.97,7.65.66,1.87,1.7,5.32,3.21,6.07,1.51.75,6.16-4.73,6.02-6.7s-.88-10.6-4.97-9.38Z" style="fill:#4bd6ba;"/><path d="m181.53,104.89s-.38-3.06-2.51-3.14c-2.13-.08-6.72-1.91-9.02-1.45s-6.49,1.13-7.53,2.43c-1.04,1.3,5.06,5.9,7.43,5.92s12.7,0,11.63-3.77Z" style="fill:#c3dee0;"/><path d="m156.06,148.41s.43,3.05,2.56,3.1c2.13.05,6.75,1.8,9.04,1.31,2.28-.49,6.47-1.24,7.49-2.55,1.02-1.32-5.15-5.82-7.52-5.8s-12.7.2-11.57,3.95Z" style="fill:#c3dee0;"/><path d="m179.04,102.19c-13.77,12.41-23.59,28.73-24.11,54.23l-18.93-22.08,7.64-27.88,35.4-4.28Z" style="fill:#469ecf; mix-blend-mode:multiply; opacity:.31;"/></g><circle cx="169" cy="127.29" r="21.97" style="fill:none; stroke:#a8e1ff; stroke-miterlimit:10; stroke-width:2px;"/></g><g><path d="m169,134.82c-4.15,0-7.53-3.38-7.53-7.53s3.38-7.53,7.53-7.53,7.53,3.38,7.53,7.53-3.38,7.53-7.53,7.53Z" style="fill:#fff;"/><path d="m169,121.76c3.05,0,5.53,2.48,5.53,5.53s-2.48,5.53-5.53,5.53-5.53-2.48-5.53-5.53,2.48-5.53,5.53-5.53m0-4c-5.25,0-9.53,4.28-9.53,9.53s4.28,9.53,9.53,9.53,9.53-4.27,9.53-9.53-4.28-9.53-9.53-9.53h0Z" style="fill:#45abff;"/></g><g><circle cx="639.79" cy="123.05" r="21.97" style="fill:#4fb2e8;"/><g style="clip-path:url(#d);"><path d="m626.69,132.62s16.72-3.59,16.31-7.2c-.4-3.61-12.56-5.86-14.2-9.56-1.64-3.69,3.57-11.54.39-12.83s-14.66,7.36-14.06,11.34c.6,3.99,3.47,21.35,11.56,18.24Z" style="fill:#45c7ad;"/><path d="m658.63,112.81s-3.35.58-3.29,2.37c.06,1.78-1.64,5.77-.97,7.65.66,1.87,1.7,5.32,3.21,6.07,1.51.75,6.16-4.73,6.02-6.7s-.88-10.6-4.97-9.38Z" style="fill:#4bd6ba;"/><path d="m652.31,100.65s-.38-3.06-2.51-3.14c-2.13-.08-6.72-1.91-9.02-1.45s-6.49,1.13-7.53,2.43c-1.04,1.3,5.06,5.9,7.43,5.92s12.7,0,11.63-3.77Z" style="fill:#c3dee0;"/><path d="m626.85,144.16s.43,3.05,2.56,3.1c2.13.05,6.75,1.8,9.04,1.31,2.28-.49,6.47-1.24,7.49-2.55,1.02-1.32-5.15-5.82-7.52-5.8s-12.7.2-11.57,3.95Z" style="fill:#c3dee0;"/><path d="m649.82,97.95c-13.77,12.41-23.59,28.73-24.11,54.23l-18.93-22.08,7.64-27.88,35.4-4.28Z" style="fill:#469ecf; mix-blend-mode:multiply; opacity:.31;"/></g><circle cx="639.79" cy="123.05" r="21.97" style="fill:none; stroke:#a8e1ff; stroke-miterlimit:10; stroke-width:2px;"/></g><g><path d="m639.79,130.58c-4.15,0-7.53-3.38-7.53-7.53s3.38-7.53,7.53-7.53,7.53,3.38,7.53,7.53-3.38,7.53-7.53,7.53Z" style="fill:#fff;"/><path d="m639.79,117.52c3.05,0,5.53,2.48,5.53,5.53s-2.48,5.53-5.53,5.53-5.53-2.48-5.53-5.53,2.48-5.53,5.53-5.53m0-4c-5.25,0-9.53,4.28-9.53,9.53s4.28,9.53,9.53,9.53,9.53-4.27,9.53-9.53-4.28-9.53-9.53-9.53h0Z" style="fill:#45abff;"/></g><text transform="translate(361.17 129.19)" style="fill:#454eff; font-family:SegoeUI-Bold, &apos;Segoe UI&apos;; font-size:48px; font-weight:700;"><tspan x="0" y="0">S</tspan></text><text transform="translate(595.9 343.39)" style="fill:#454eff; font-family:SegoeUI-Bold, &apos;Segoe UI&apos;; font-size:48px; font-weight:700;"><tspan x="0" y="0">S</tspan></text><text transform="translate(242.55 37.48)" style="fill:#1bcc9a; font-family:SegoeUI-Bold, &apos;Segoe UI&apos;; font-size:48px; font-weight:700;"><tspan x="0" y="0">t</tspan></text><text transform="translate(695.57 357.48)" style="fill:#1bcc9a; font-family:SegoeUI-Bold, &apos;Segoe UI&apos;; font-size:48px; font-weight:700;"><tspan x="0" y="0">t</tspan></text></g></g></svg>